<?xml version="1.0" encoding="UTF-8" standalone="no"?>
<!-- Created with Inkscape (http://www.inkscape.org/) -->

<svg
   xmlns:dc="http://purl.org/dc/elements/1.1/"
   xmlns:cc="http://creativecommons.org/ns#"
   xmlns:rdf="http://www.w3.org/1999/02/22-rdf-syntax-ns#"
   xmlns:svg="http://www.w3.org/2000/svg"
   xmlns="http://www.w3.org/2000/svg"
   xmlns:sodipodi="http://sodipodi.sourceforge.net/DTD/sodipodi-0.dtd"
   xmlns:inkscape="http://www.inkscape.org/namespaces/inkscape"
   width="364.82971"
   height="579.91553"
   id="svg2"
   version="1.1"
   inkscape:version="0.47 r22583"
   sodipodi:docname="snowpack.svg">
  <defs
     id="defs4">
    <inkscape:perspective
       sodipodi:type="inkscape:persp3d"
       inkscape:vp_x="0 : 526.18109 : 1"
       inkscape:vp_y="0 : 1000 : 0"
       inkscape:vp_z="744.09448 : 526.18109 : 1"
       inkscape:persp3d-origin="372.04724 : 350.78739 : 1"
       id="perspective10" />
    <inkscape:perspective
       id="perspective2824"
       inkscape:persp3d-origin="0.5 : 0.33333333 : 1"
       inkscape:vp_z="1 : 0.5 : 1"
       inkscape:vp_y="0 : 1000 : 0"
       inkscape:vp_x="0 : 0.5 : 1"
       sodipodi:type="inkscape:persp3d" />
    <inkscape:perspective
       id="perspective3688"
       inkscape:persp3d-origin="0.5 : 0.33333333 : 1"
       inkscape:vp_z="1 : 0.5 : 1"
       inkscape:vp_y="0 : 1000 : 0"
       inkscape:vp_x="0 : 0.5 : 1"
       sodipodi:type="inkscape:persp3d" />
    <inkscape:perspective
       id="perspective3688-9"
       inkscape:persp3d-origin="0.5 : 0.33333333 : 1"
       inkscape:vp_z="1 : 0.5 : 1"
       inkscape:vp_y="0 : 1000 : 0"
       inkscape:vp_x="0 : 0.5 : 1"
       sodipodi:type="inkscape:persp3d" />
    <inkscape:perspective
       id="perspective3688-7"
       inkscape:persp3d-origin="0.5 : 0.33333333 : 1"
       inkscape:vp_z="1 : 0.5 : 1"
       inkscape:vp_y="0 : 1000 : 0"
       inkscape:vp_x="0 : 0.5 : 1"
       sodipodi:type="inkscape:persp3d" />
    <inkscape:perspective
       id="perspective3688-3"
       inkscape:persp3d-origin="0.5 : 0.33333333 : 1"
       inkscape:vp_z="1 : 0.5 : 1"
       inkscape:vp_y="0 : 1000 : 0"
       inkscape:vp_x="0 : 0.5 : 1"
       sodipodi:type="inkscape:persp3d" />
    <inkscape:perspective
       id="perspective3759"
       inkscape:persp3d-origin="0.5 : 0.33333333 : 1"
       inkscape:vp_z="1 : 0.5 : 1"
       inkscape:vp_y="0 : 1000 : 0"
       inkscape:vp_x="0 : 0.5 : 1"
       sodipodi:type="inkscape:persp3d" />
    <inkscape:perspective
       id="perspective3759-2"
       inkscape:persp3d-origin="0.5 : 0.33333333 : 1"
       inkscape:vp_z="1 : 0.5 : 1"
       inkscape:vp_y="0 : 1000 : 0"
       inkscape:vp_x="0 : 0.5 : 1"
       sodipodi:type="inkscape:persp3d" />
    <inkscape:perspective
       id="perspective2841"
       inkscape:persp3d-origin="0.5 : 0.33333333 : 1"
       inkscape:vp_z="1 : 0.5 : 1"
       inkscape:vp_y="0 : 1000 : 0"
       inkscape:vp_x="0 : 0.5 : 1"
       sodipodi:type="inkscape:persp3d" />
    <inkscape:perspective
       id="perspective2841-4"
       inkscape:persp3d-origin="0.5 : 0.33333333 : 1"
       inkscape:vp_z="1 : 0.5 : 1"
       inkscape:vp_y="0 : 1000 : 0"
       inkscape:vp_x="0 : 0.5 : 1"
       sodipodi:type="inkscape:persp3d" />
    <inkscape:perspective
       id="perspective2841-0"
       inkscape:persp3d-origin="0.5 : 0.33333333 : 1"
       inkscape:vp_z="1 : 0.5 : 1"
       inkscape:vp_y="0 : 1000 : 0"
       inkscape:vp_x="0 : 0.5 : 1"
       sodipodi:type="inkscape:persp3d" />
  </defs>
  <sodipodi:namedview
     id="base"
     pagecolor="#ffffff"
     bordercolor="#666666"
     borderopacity="1.0"
     inkscape:pageopacity="0.0"
     inkscape:pageshadow="2"
     inkscape:zoom="0.98994949"
     inkscape:cx="-26.092439"
     inkscape:cy="272.39664"
     inkscape:document-units="px"
     inkscape:current-layer="layer1"
     showgrid="false"
     showguides="true"
     inkscape:guide-bbox="true"
     inkscape:window-width="1280"
     inkscape:window-height="949"
     inkscape:window-x="0"
     inkscape:window-y="25"
     inkscape:window-maximized="1">
    <sodipodi:guide
       orientation="1,0"
       position="-2.8571429,297.14286"
       id="guide2824" />
    <sodipodi:guide
       orientation="0,1"
       position="-2.8571429,297.14286"
       id="guide2826" />
  </sodipodi:namedview>
  <metadata
     id="metadata7">
    <rdf:RDF>
      <cc:Work
         rdf:about="">
        <dc:format>image/svg+xml</dc:format>
        <dc:type
           rdf:resource="http://purl.org/dc/dcmitype/StillImage" />
        <dc:title />
      </cc:Work>
    </rdf:RDF>
  </metadata>
  <g
     inkscape:label="Layer 1"
     inkscape:groupmode="layer"
     id="layer1"
     transform="translate(-324.78575,-225.74309)">
    <g
       id="g2899">
      <path
         id="path2839"
         d="m 337.47325,247.24309 c -0.75298,-0.0291 -1.40236,0.0149 -1.78125,0.1875 -1.27499,0.58093 0.34541,1.43963 3.59375,1.90625 1.28506,0.1846 2.49935,0.42203 2.6875,0.53125 0.42972,0.24946 0.33716,0.27187 1.0625,-0.0313 0.67529,-0.28215 0.68852,-0.34346 0.4375,-0.8125 -0.45116,-0.843 -3.74105,-1.69406 -6,-1.78125 z m 130.65625,6.53125 c -22.02838,0.0918 -39.32169,0.5878 -43.125,1.34375 -1.73651,0.34515 -1.89951,0.48278 -1.03125,0.875 1.5466,0.69866 20.33063,0.46803 28.28125,-0.34375 7.40083,-0.75566 25.67855,-0.86522 39.3125,-0.3125 -0.76502,-0.50964 -1.54265,-0.99709 -2.3125,-1.5 -7.3011,-0.0551 -14.44709,-0.0903 -21.125,-0.0625 z m -60.46875,0.5 c -0.62279,0.0323 -1.12673,0.16064 -1.40625,0.34375 -0.42407,0.27781 -0.4513,0.3512 -0.25,0.59375 0.1293,0.1558 0.48657,0.40282 0.78125,0.53125 0.7051,0.30731 1.46203,0.28456 2.8125,-0.0313 0.60947,-0.14251 1.50893,-0.32035 2,-0.40625 l 0.875,-0.15625 -1.3125,-0.4375 c -1.08801,-0.34307 -2.46202,-0.49133 -3.5,-0.4375 z m 62.40625,46.59375 c -7.54959,-0.008 -14.98452,0.2684 -17.875,0.875 -2.25989,0.47427 -7.74728,1.34402 -12.1875,1.90625 -4.44023,0.56222 -8.45407,1.15824 -8.9375,1.34375 -0.80078,0.3073 -0.81108,0.39358 -0.0625,0.8125 1.20931,0.67677 26.32959,0.53303 33.375,-0.1875 10.94245,-1.11908 36.75892,-0.49474 49.75,1.1875 2.36123,0.30576 6.01031,0.70877 8.09375,0.90625 5.61301,0.53207 14.24946,0.56726 13.9375,0.0625 -0.4277,-0.69203 -2.50543,-0.9745 -11.6875,-1.5625 -12.90089,-0.82616 -23.03333,-2.05703 -35.84375,-4.40625 -3.34494,-0.61342 -11.01291,-0.92926 -18.5625,-0.9375 z m -83.40625,1.875 c -1.42938,0.0603 -2.46789,0.33337 -4.0625,0.9375 -1.641,0.6217 -3.78322,1.88406 -4.78125,2.8125 l -1.8125,1.6875 1.5,0.0313 c 0.83348,0.008 3.11806,-0.33814 5.0625,-0.75 2.50366,-0.53032 7.07182,-0.7706 15.65625,-0.8125 6.66701,-0.0325 12.68332,-0.21373 13.375,-0.40625 2.30021,-0.64022 0.15025,-1.15635 -4.5,-1.09375 -2.95235,0.0397 -5.87991,-0.28174 -8.6875,-0.96875 -2.32582,-0.56912 -6.17002,-1.18465 -8.53125,-1.34375 -1.37669,-0.0928 -2.36112,-0.12996 -3.21875,-0.0937 z m -40.59375,1.5 c -0.48786,-0.005 -0.97124,0.0122 -1.40625,0.0313 l -3.46875,0.15625 1.40625,0.9375 c 0.78436,0.51196 2.93579,1.09704 4.78125,1.3125 7.88805,0.92095 14.51364,0.29167 9.90625,-0.9375 -3.26666,-0.87149 -7.80376,-1.46685 -11.21875,-1.5 z m 205.75,3.8125 c -1.51546,0.14787 -2.34544,0.31081 -2.15625,0.5 0.0303,0.0303 1.13457,0.0824 2.75,0.15625 -0.19458,-0.22235 -0.39854,-0.43447 -0.59375,-0.65625 z m -179.71875,89.125 c -2.95323,-0.002 -6.89884,0.1009 -12.78125,0.34375 -14.13036,0.58336 -18.1602,1.02898 -16.28125,1.75 0.43447,0.16672 4.15702,0.7836 8.28125,1.375 4.12424,0.5914 8.30897,1.28443 9.28125,1.53125 0.97227,0.24682 6.43026,0.80372 12.125,1.25 14.82434,1.16174 20.15894,2.00793 41.15625,6.5 24.3864,5.21711 38.45311,7.02723 62.375,8.0625 2.08344,0.0901 13.44384,0.1227 25.25,0.0625 17.49118,-0.0892 22.20754,-0.269 25.5,-0.9375 6.32212,-1.28364 23.73472,-3.7087 29.3125,-4.09375 2.77792,-0.19177 5.81326,-0.67425 6.75,-1.0625 1.01765,-0.42178 3.50361,-0.71875 6.15625,-0.71875 2.44177,0 6.19345,-0.33858 8.34375,-0.75 3.93259,-0.75242 12.83621,-1.43594 25.46875,-2 2.58079,-0.11524 5.11306,-0.25642 7.5625,-0.40625 -0.3983,-1.12731 -0.80764,-2.2538 -1.21875,-3.375 -1.32123,0.18098 -2.6869,0.3456 -3.8125,0.46875 -2.91682,0.31913 -6.8992,0.93554 -8.84375,1.34375 -3.85631,0.80954 -15.59453,1.46149 -35.625,1.96875 -13.8715,0.35129 -13.84698,0.32822 -30.8125,3 -22.64588,3.56633 -25.75601,3.88642 -39.875,4.15625 -10.11569,0.19332 -15.30202,0.0719 -21.21875,-0.53125 -4.30577,-0.4389 -9.98598,-0.92346 -12.625,-1.09375 -7.46308,-0.48156 -10.45738,-1.08756 -20.34375,-4 -10.91932,-3.21674 -15.15968,-4.08219 -23.59375,-4.84375 -7.60855,-0.68702 -10.01107,-1.17333 -15.1875,-3.0625 -5.42281,-1.97907 -12.91533,-3.81227 -18.5625,-4.5625 -1.86522,-0.2478 -3.82802,-0.37311 -6.78125,-0.375 z m 255.8125,105.5 c -8.41559,1.6497 -19.02039,3.46526 -26,4.34375 -7.10366,0.8941 -19.50653,2.02008 -27.5625,2.5 -8.05596,0.47992 -19.89204,1.38023 -26.28125,2 -12.91772,1.25305 -21.83778,0.7854 -40.125,-2.125 -26.73868,-4.25546 -32.93354,-4.56187 -77.03125,-3.6875 -38.70334,0.7674 -76.79331,-0.0913 -85.125,-1.90625 -2.10045,-0.45755 -2.78125,-0.22092 -2.78125,0.96875 0,2.25895 0.72934,2.52329 10.71875,3.71875 21.44571,2.56645 32.20261,2.98265 103.4375,4.15625 35.83516,0.59039 67.44083,1.47461 70.21875,1.9375 5.59772,0.93278 15.48308,0.57636 26.25,-0.90625 3.88908,-0.53553 16.8362,-1.482 28.78125,-2.125 11.94506,-0.64301 26.06571,-1.85853 31.34375,-2.6875 3.95423,-0.62106 9.41006,-1.39042 14.21875,-2.03125 -0.0138,-1.38912 -0.0302,-2.77162 -0.0625,-4.15625 z m -288.90625,40.65625 -0.96875,2.78125 -0.96875,2.78125 48.0625,0 c 51.98933,0 101.58898,1.35562 118.5,3.25 5.83363,0.65349 17.06699,1.2542 24.96875,1.3125 7.90175,0.0583 14.59296,0.31568 14.84375,0.5625 0.8117,0.7988 47.02601,0.47139 66.40625,-0.46875 l 15.125,-0.75 c 0.34273,-2.44164 0.65281,-4.88396 0.9375,-7.34375 -2.13544,0.13591 -4.99036,0.34056 -8.125,0.59375 -14.37596,1.16118 -91.88766,0.43701 -262.875,-2.4375 l -15.90625,-0.28125 z m 109.46875,56.21875 c -2.67082,0.0476 -5.8664,0.79116 -11.625,2.25 -5.21039,1.31996 -12.19774,2.69421 -15.53125,3.03125 -3.3335,0.33704 -13.1072,1.36117 -21.71875,2.28125 -19.07166,2.03767 -36.2501,1.46471 -45.09375,-1.5 -3.2696,-1.09609 -7.63531,-2.30163 -9.71875,-2.6875 -3.56147,-0.65962 -3.78125,-0.55154 -3.78125,1.84375 0,2.00747 0.89844,2.97326 4.28125,4.5625 2.36124,1.1093 5.42354,2.32382 6.8125,2.71875 1.38896,0.39493 3.24989,1.35916 4.125,2.125 2.03186,1.77815 4.69603,1.8714 14.0625,0.53125 4.16688,-0.5962 19.39857,-1.55624 33.84375,-2.125 17.96875,-0.70749 28.01141,-1.51362 31.8125,-2.59375 8.71959,-2.4778 14.62251,-2.87408 23.03125,-1.5 4.28426,0.70009 13.01704,1.3585 19.40625,1.4375 10.4247,0.1289 12.29528,0.4249 18.1875,3.03125 5.39191,2.38505 7.81832,2.87647 13.625,2.75 20.0549,-0.43681 56.50016,-0.003 63.15625,0.75 11.84905,1.34023 17.28344,1.26049 23.5625,-0.375 3.19955,-0.83337 6.69718,-1.53125 7.78125,-1.53125 1.69528,0 1.96875,-0.72227 1.96875,-5.125 0,-4.39836 -0.23105,-5.03744 -1.75,-4.59375 -5.96865,1.74344 -23.41602,2.8023 -35.625,2.15625 -7.50038,-0.39688 -24.33915,-0.6723 -37.4375,-0.625 -23.14836,0.0835 -29.79833,-0.59321 -31.34375,-3.09375 -0.8442,-1.36594 -2.28953,-1.63344 -13.21875,-2.5 -5.3521,-0.42436 -10.34148,-0.0855 -16.15625,1.0625 -8.13729,1.6066 -8.5959,1.59906 -14.1875,-0.375 -3.65685,-1.29102 -5.79793,-1.95386 -8.46875,-1.90625 z m -67.46875,111.75 c -2.22346,-0.007 -4.14232,0.11268 -5.65625,0.3125 -3.61129,0.47664 -11.89611,2.1929 -18.40625,3.84375 -6.51014,1.65084 -13.99926,3.33414 -16.65625,3.71875 -4.76179,0.68929 -7.375,1.93838 -7.375,3.53125 0,1.25659 13.19806,-0.25226 36.875,-4.1875 11.56783,-1.92264 29.21335,-0.69836 43.78125,3.03125 23.03551,5.89745 27.19642,6.41665 50.65625,6.34375 15.22464,-0.0473 24.4394,-0.55052 30.8125,-1.6875 5.00025,-0.89206 16.36066,-1.86845 25.25,-2.1875 10.40622,-0.37349 14.54932,-0.40668 19.78125,0.4375 2.19447,-2.2275 4.34295,-4.48758 6.46875,-6.78125 -3.50032,-0.64415 -7.11396,-1.09375 -9.3125,-1.09375 -7.77522,0 -44.18462,4.74028 -48.75,6.34375 -5.45287,1.91516 -29.0993,1.4525 -38.875,-0.75 -4.44467,-1.0014 -9.90266,-2.12965 -12.125,-2.53125 -2.22233,-0.40159 -9.7427,-1.9305 -16.6875,-3.375 -14.65596,-3.04839 -30.14625,-4.94056 -39.78125,-4.96875 z"
         style="fill:#dbdbe3;fill-opacity:1;stroke:#dbdbe3;stroke-width:3;stroke-linecap:round;stroke-linejoin:round;stroke-miterlimit:4;stroke-opacity:1;stroke-dasharray:none;stroke-dashoffset:0" />
      <path
         id="path3647"
         d="m 336.47325,228.24309 c -4.63264,23.00966 30.13075,17.02468 44.60015,20.07666 29.76813,1.65188 59.70108,0.448 89.32363,-0.70813 21.27661,1.58062 -17.32104,-15.27219 -26.09833,-15.32143 -35.40507,-4.9279 -71.71691,0.1606 -107.07545,-3.3595 l -0.75,-0.6875 0,-1e-4 z m -0.15625,25.84375 c 4.9744,19.83708 -0.27063,58.28886 33.04795,45.99888 26.83412,-5.14947 53.8537,3.08583 80.37488,-3.25027 29.90512,-5.93997 59.02623,5.28345 88.83981,5.10215 12.30995,-5.09111 -17.55248,-19.96592 -21.31617,-28.27333 -19.64017,-20.724 -49.52842,-12.17729 -74.6461,-12.75818 -35.8158,3.24937 -70.7755,-4.33324 -106.30037,-6.81925 z m 139.125,56.46875 c -45.2434,1.31857 -90.52165,2.55492 -135.78125,1.28125 0.89471,25.36007 -8.58322,61.43343 7.98886,80.06166 26.40387,-0.30771 51.08194,3.41942 76.48534,9.86272 36.59935,12.29731 75.61362,10.17811 113.11317,3.86833 22.06019,-4.59761 45.49831,0.49542 66.94218,-6.29931 3.34118,-14.51018 -12.93078,-29.97713 -18.32217,-44.32447 -8.4479,-14.34991 -18.06791,-28.01 -28.73863,-40.79388 -27.29018,0.31279 -54.3921,-4.21986 -81.6875,-3.6563 z m -133.875,93.875 c 2.68619,21.41696 0.99762,43.05931 -5.89062,63.48521 -7.01085,35.43923 31.15578,36.21273 55.36915,33.16521 47.13254,-0.61307 94.55385,-1.71461 141.1491,6.49384 27.53066,-1.03576 54.97941,-4.01531 82.39133,-6.50756 27.28795,-8.35208 4.45515,-44.05832 4.64752,-64.0301 -1.17938,-18.69796 -9.64634,-29.55358 -28.76909,-23.02583 -42.98584,4.38948 -85.94458,12.4483 -129.31499,7.74588 -32.63285,-1.2523 -63.72733,-11.95872 -96.18374,-14.27779 -7.79569,-1.04523 -15.58687,-2.12857 -23.39866,-3.04886 z m 286.4375,107.0625 c -32.70831,4.67642 -65.93119,7.1977 -98.84896,8.20497 -61.18421,-5.12033 -123.01807,0.0402 -183.9682,-6.87338 -16.28788,11.0633 -3.83803,34.90678 14.87376,26.19849 84.53203,-0.46523 169.03822,4.92681 253.54949,2.01055 20.86897,4.62369 11.81289,-16.68184 14.39391,-29.54063 z m -222.21875,43.125 c -20.74931,3.90102 -57.37852,-8.03098 -67.81808,7.42244 -2.65752,20.04808 3.9356,41.57596 28.02343,40.00227 42.93021,4.89533 85.16737,-13.11394 128.18226,-5.4044 27.59045,8.18322 57.82339,1.91252 86.66969,4.33286 26.07278,7.27103 40.48395,-20.37494 41.32063,-41.62955 -18.61833,-2.12394 -38.39329,2.68824 -57.5588,1.05014 -51.85347,-0.47679 -103.44002,-6.92551 -155.35822,-5.75384 l -3.46091,-0.0199 0,0 z m 75.9375,58.875 c -40.00338,0.94548 -79.67405,6.18824 -119.66921,6.24763 -13.99039,-5.31274 -31.28584,-4.43839 -25.92826,15.51973 0.23947,21.94778 -9.56753,42.33567 -4.44136,64.9032 -2.1071,28.55122 36.8012,-0.19713 53.95229,3.97516 37.7929,0.90183 75.15189,22.87405 112.88901,9.98947 21.41308,-6.90556 52.34828,6.00064 65.72525,-17.44529 18.10164,-23.49254 33.33301,-49.42677 43.19103,-77.47105 -29.29696,7.85244 -59.52724,-3.35815 -89.14911,2.16098 -12.61941,0.54026 -25.27107,-2.25845 -36.56964,-7.87983 z m -101.6875,110.53125 c -22.14978,1.60974 -59.61195,0.14092 -44.25866,33.49041 -2.57432,18.09389 -12.01611,50.42997 18.76897,44.26416 28.17163,5.48455 57.60499,4.46538 83.56576,-8.84599 35.34184,-14.47995 67.94395,-35.63297 95.51768,-62.06483 -32.37893,-3.74573 -64.68594,10.37524 -97.04319,2.41599 -18.80177,-3.32944 -37.30679,-9.10993 -56.55056,-9.25974 z"
         style="fill:#d7eef4;fill-opacity:1;stroke:#d7eef4;stroke-width:1.51522887;stroke-linecap:round;stroke-linejoin:round;stroke-miterlimit:4;stroke-opacity:1;stroke-dasharray:none;stroke-dashoffset:0" />
      <path
         id="path2830"
         d="m 334.22325,225.74309 c -2.89192,0.15867 -5.01144,9.83326 -4.78125,22.75 0.14182,7.95793 0.53283,10.0933 2.4375,13.15625 2.21646,3.56433 3.4107,12.28572 3.3125,24.34375 -0.0179,2.2 -0.0532,7.825 -0.0937,12.5 -0.0406,4.675 -0.87099,11.54553 -1.84375,15.28125 -1.40023,5.37733 -1.57791,8.00379 -0.84375,12.5625 0.70422,4.37281 0.5636,7.16931 -0.59375,11.6875 -0.85987,3.35683 -1.14307,6.09318 -0.625,6.28125 0.50502,0.18334 0.9375,1.19584 0.9375,2.25 0,1.05417 0.4943,1.9375 1.125,1.9375 0.83405,0 0.93882,2.11322 0.34375,7.75 -1.00983,9.56545 -0.96157,11.7995 0.59375,31.75 0.68604,8.8 1.17685,19.15 1.09375,23 -0.0831,3.85 0.56642,9.78986 1.46875,13.21875 1.57852,5.99838 1.57911,6.49041 -0.4375,13 -1.15277,3.72111 -2.19309,9.48125 -2.3125,12.78125 -0.20834,5.75737 -1.46489,10.75715 -4.65625,18.6875 -1.16967,2.90656 -1.22887,4.33592 -0.34375,6.875 0.61677,1.76926 1.125,4.75476 1.125,6.625 0,1.87024 0.59256,4.60856 1.34375,6.09375 4.34591,8.59229 5.24087,30.69758 1.78125,43.875 -1.01632,3.87109 -1.62524,8.45126 -1.375,10.15625 0.31325,2.13435 -0.17831,3.91931 -1.59375,5.71875 -1.62155,2.06147 -1.87334,3.12548 -1.125,5.09375 0.52181,1.37247 0.96875,3.73911 0.96875,5.25 0,1.51089 0.89616,4.62155 2,6.90625 1.66597,3.44816 1.88989,5.3913 1.40625,11.4375 -0.75527,9.44252 -0.72596,16.14131 0.0937,21.90625 0.44612,3.13751 0.25047,5.40769 -0.65625,7 -1.30077,2.28429 -1.97457,6.26398 -1.71875,10.375 0.0684,1.1 0.1881,7.4 0.25,14 0.10933,11.65075 -0.2296,13.8469 -4.4375,28.5 -0.5528,1.925 -1.40517,8.225 -1.875,14 -0.66609,8.18728 -0.55168,11.07179 0.5,13.125 0.99035,1.93349 1.28308,6.71654 1.125,18 -0.22212,15.85517 0.77158,31.53338 2.3125,36.90625 1.07272,3.74035 0.90581,34.8868 -0.1875,35.5625 -0.42935,0.26533 -0.57273,3.45782 -0.34375,7.09375 0.33045,5.24696 -0.0671,7.76952 -1.875,12.21875 -1.25279,3.08313 -2.07169,6.15995 -1.84375,6.84375 0.5412,1.62334 4.242,1.62448 4.25,0 0.003,-0.6875 0.71421,-2.6 1.59375,-4.25 3.18347,-5.97216 5.23193,-46.63853 3,-59.5 -0.8094,-4.66417 -1.26303,-8.67447 -1.03125,-8.90625 0.23177,-0.23177 1.64065,-0.51289 3.15625,-0.625 12.53472,-0.92715 26.80049,-2.67285 31.78125,-3.90625 12.31265,-3.04901 28.28528,-1.50181 55,5.375 17.28051,4.44828 44.11585,6.30397 59.40625,4.09375 3.52431,-0.50944 6.76397,-1.53299 7.21875,-2.25 0.66911,-1.0549 0.83135,-1.04088 0.84375,0.0625 0.0108,0.95728 0.85055,1.21273 2.78125,0.8125 1.5125,-0.31353 5.675,-1.0874 9.25,-1.71875 3.575,-0.63136 6.81467,-1.68247 7.21875,-2.3125 0.48875,-0.76204 0.7398,-0.78203 0.75,-0.0625 0.0102,0.71855 4.47881,1.1025 13.28125,1.125 4.33271,0.0111 7.61576,0.10747 10.59375,0.34375 1.97644,-1.89714 3.91876,-3.83206 5.84375,-5.78125 -0.0149,-0.01 -0.0489,-0.0213 -0.0625,-0.0313 -2.0609,-1.50596 -33.55034,-0.4622 -40.625,1.34375 -14.53305,3.70987 -57.30342,3.8937 -66.90625,0.28125 -1.31378,-0.4942 -2.57238,-0.70887 -2.8125,-0.46875 -0.24012,0.24012 -1.8789,-10e-4 -3.625,-0.53125 -1.7461,-0.52989 -4.05625,-1.14356 -5.15625,-1.375 -6.79913,-1.43053 -12.21137,-2.83722 -13.5625,-3.53125 -1.72097,-0.884 -6.5392,-1.57795 -18.15625,-2.5625 -7.57246,-0.64176 -21.10954,0.72374 -27.28125,2.75 -1.65,0.54172 -7.95,1.43201 -14,1.96875 -6.05,0.53674 -12.19532,1.11972 -13.65625,1.28125 -2.29782,0.25407 -2.55837,0.0129 -1.90625,-1.75 0.83998,-2.27069 3.24231,-3.10365 11.71875,-4.09375 3.16964,-0.37023 6.11442,-0.89863 6.53125,-1.15625 1.28325,-0.79309 15.65296,-4.40128 22.65625,-5.6875 6.29305,-1.15577 14.23653,-0.91597 25.15625,0.75 2.475,0.3776 6.3,0.86001 8.5,1.09375 5.55516,0.59019 18.86225,3.27112 25.65625,5.15625 3.12137,0.86609 6.35691,1.31873 7.1875,1 0.8306,-0.31873 1.63947,-0.15825 1.8125,0.34375 0.2968,0.86105 5.94232,2.1544 10.34375,2.375 1.1,0.0551 2.225,0.36964 2.5,0.71875 0.275,0.34911 5.55923,0.93577 11.75,1.3125 10.21203,0.6214 19.11821,-0.17267 24.25,-2.15625 1.61269,-0.62335 1.52837,-0.58993 10.5,-1.75 3.30001,-0.4267 7.125,-0.95806 8.5,-1.15625 1.375,-0.1982 5.06559,-0.59148 8.21875,-0.90625 3.15315,-0.31478 6.75316,-0.82192 8,-1.09375 5.87716,-1.28131 16.28633,-1.15641 21.875,0.0937 1.5266,-1.65789 3.0099,-3.33983 4.5,-5.03125 -1.02826,-0.25726 -1.97112,-0.4904 -3.09375,-0.78125 -5.88276,-1.52411 -11.52497,-1.62757 -18.5,-0.34375 -1.925,0.35431 -5.75,0.89198 -8.5,1.1875 -20.09768,2.15972 -26.70548,3.11083 -34.375,5.03125 -13.17785,3.29969 -27.42122,2.0861 -52.875,-4.53125 -4.5326,-1.17836 -8.76637,-1.80172 -9.40625,-1.40625 -0.67231,0.41551 -0.89793,0.28081 -0.53125,-0.3125 0.37885,-0.61299 -1.06825,-1.27701 -3.59375,-1.625 -2.32652,-0.32056 -9.16875,-1.28 -15.21875,-2.15625 -18.7591,-2.71698 -25.23847,-3.159 -30.5,-2.09375 -7.73333,1.56569 -20.02625,4.9375 -20.03125,5.5 -0.003,0.3292 -1.99262,0.70305 -4.4375,0.84375 -2.44488,0.14069 -5.62429,0.70319 -7.0625,1.25 -1.43821,0.5468 -4.7459,1 -7.34375,1 l -4.71875,1e-4 -0.0625,-12.75 c -0.0417,-7.0125 -0.51293,-15.66705 -1.03125,-19.21875 -0.89365,-6.12351 0.45276,-21.23177 2.125,-23.9375 3.34812,-5.41739 5.93427,-28.51247 4.125,-36.75 -0.40254,-1.83275 -0.10719,-3.59748 0.78125,-4.8125 1.30392,-1.78322 1.7323,-1.84078 5.78125,-0.5625 2.40412,0.759 4.6,1.44965 4.875,1.53125 0.275,0.0816 1.85,0.76535 3.5,1.5 3.72306,1.65765 10.33775,1.91205 22,0.84375 4.95,-0.45344 19.8,-1.07368 33,-1.375 20.39933,-0.46567 24.91888,-0.8674 30.25,-2.59375 5.28367,-1.71097 7.80514,-1.92824 16,-1.40625 19.75273,1.2582 27.23034,1.14493 28.25,-0.46875 0.5213,-0.825 0.96075,-1.00129 0.96875,-0.375 0.008,0.62629 1.66429,1.46419 3.6875,1.84375 2.02321,0.37956 5.6178,1.58242 7.96875,2.6875 2.35096,1.10508 4.80793,1.68965 5.46875,1.28125 0.74154,-0.4583 0.95236,-0.33762 0.53125,0.34375 -1.10052,1.78067 5.79112,2.56094 14.71875,1.65625 4.46964,-0.45295 14.34337,-0.8415 21.90625,-0.875 8.44947,-0.0374 13.741,-0.44802 13.75,-1.0625 0.008,-0.55 0.34592,-0.47854 0.75,0.15625 0.4693,0.73726 5.20793,1.2791 13.09375,1.5 6.78986,0.19021 12.48427,0.60893 12.6875,0.9375 0.65836,1.06439 13.82624,0.9989 18.96875,-0.0937 6.02617,-1.28041 9.87575,-2.11747 12.40625,-2.75 0.5257,-1.38 1.0563,-2.76675 1.5625,-4.15625 -0.80699,0.0518 -1.65982,0.10527 -2.875,0.21875 -3.62862,0.33885 -7.42663,1.05275 -8.4375,1.59375 -3.23591,1.73181 -13.83988,1.99317 -23.90625,0.59375 -5.37813,-0.74766 -19.425,-1.43495 -31.25,-1.53125 -20.84496,-0.16974 -24.45952,-0.0149 -26.53125,1.1875 -2.27362,1.31955 -13.15747,0.16966 -17.46875,-1.84375 -11.5777,-5.40692 -16.95266,-6.34706 -25.3125,-4.40625 -2.59318,0.60203 -5.6711,0.43488 -9.8125,-0.53125 -3.3257,-0.77583 -6.43988,-1.16324 -6.90625,-0.875 -0.46637,0.28823 -1.11082,0.0911 -1.4375,-0.4375 -0.66422,-1.07477 -10.47221,-1.12508 -12.03125,-0.0625 -0.55,0.37485 -3.85296,1.46061 -7.3125,2.40625 -4.76742,1.30314 -11.78759,1.83595 -29,2.1875 -12.49046,0.2551 -24.7125,0.66513 -27.1875,0.9375 -2.475,0.27237 -7.425,0.77442 -11,1.09375 -3.575,0.31933 -6.84592,1.0877 -7.25,1.71875 -0.51489,0.80411 -0.7393,0.73902 -0.75,-0.21875 -0.01,-0.87202 -0.7239,-1.17746 -2,-0.84375 -1.1,0.28766 -2,0.15459 -2,-0.28125 0,-1.15971 -6.87959,-4.20439 -7.96875,-3.53125 -0.51011,0.31526 -1.27245,-0.0861 -1.71875,-0.875 -0.4463,-0.78885 -2.1625,-1.56478 -3.8125,-1.75 -2.6485,-0.2973 -3.04591,-0.7825 -3.3125,-3.96875 -0.288,-3.4423 -0.15871,-3.60407 2.75,-3.5 1.67733,0.06 3.03025,0.4921 3.03125,0.96875 0.001,0.47665 0.93125,0.63141 2.03125,0.34375 1.1,-0.28766 2,-0.21163 2,0.15625 0,0.36788 3.0375,1.54341 6.75,2.625 7.13466,2.07858 24.44714,2.71328 36.75,1.34375 10.59966,-1.17993 15.89638,-1.8088 20.5,-2.46875 2.475,-0.35483 6.17638,-0.52992 8.25,-0.40625 2.13279,0.12721 7.56157,-1.08565 12.5,-2.78125 9.41043,-3.23107 16.64924,-3.4543 22.75,-0.71875 4.93638,2.21344 7.5,2.77289 7.5,1.65625 0,-0.56976 0.57788,-0.81315 1.3125,-0.53125 0.73461,0.2819 3.45276,-0.18708 6.03125,-1.0625 5.78673,-1.96464 16.81088,-2.03385 22.15625,-0.125 2.54998,0.9106 4.20313,1.06954 4.59375,0.4375 0.3369,-0.54512 0.84758,-0.12334 1.125,0.9375 0.68649,2.62515 7.33913,4.19236 15.09375,3.5625 9.6434,-0.78328 35.77025,-0.45319 51.46875,0.625 7.85598,0.53953 14.83098,0.77644 15.5,0.5625 0.66902,-0.21395 5.26875,-0.64922 10.21875,-0.96875 4.95,-0.31952 11.1375,-1.10384 13.75,-1.75 4.01427,-0.99286 4.75,-1.54235 4.75,-3.5625 0,-2.08055 -0.35647,-2.31333 -2.75,-1.8125 -12.69684,2.65674 -44.82388,3.65729 -57.5,1.78125 -3.58034,-0.52988 -5.75,-0.50094 -5.75,0.0937 0,0.54241 -0.57293,0.48879 -1.3125,-0.125 -1.43432,-1.19038 -20.92612,-0.61434 -28.6875,0.84375 -3.23676,0.60808 -5.34216,0.45647 -7.5,-0.53125 -13.23424,-6.05784 -27.1357,-8.18955 -33.59375,-5.125 -4.63918,2.20143 -10.35219,2.27149 -16.71875,0.15625 -6.72552,-2.23449 -16.68801,-1.62311 -23.6875,1.46875 -3.06799,1.35522 -7.51161,2.3283 -11.5,2.5 -3.575,0.1539 -11.675,0.98497 -18,1.875 -6.325,0.89004 -17.3795,1.621 -24.53125,1.625 -13.42603,0.008 -17.5061,-0.73583 -31.9375,-5.96875 -3.2688,-1.18528 -6.7563,-2.2376 -7.75,-2.3125 -1.50035,-0.11302 -1.78125,-1.02356 -1.78125,-5.46875 0,-2.94411 0.44992,-6.19092 1,-7.21875 0.65433,-1.2227 0.6357,-2.76549 0,-4.4375 -0.5525,-1.45318 -0.59796,-3.53397 -0.125,-4.8125 0.57617,-1.55755 0.11705,-4.19806 -1.5,-8.65625 l -2.34375,-6.4375 2.21875,-1.59375 c 1.22321,-0.86677 4.52789,-1.7875 7.34375,-2.0625 6.55075,-0.63975 101.43054,-0.33756 107.40625,0.34375 2.475,0.28207 13.95,0.79089 25.5,1.125 11.55,0.33411 24.6,1.05842 29,1.625 4.4,0.56658 10.7,1.40327 14,1.84375 3.46241,0.46217 6.45979,0.40219 7.125,-0.125 0.70256,-0.55679 1.28837,-0.52348 1.5,0.0625 0.20283,0.56158 2.03865,0.66443 4.375,0.25 2.2,-0.39022 6.475,-0.6018 9.5,-0.46875 3.025,0.13305 11.35,0.517 18.5,0.84375 7.15,0.32675 14.125,0.60945 15.5,0.65625 3.03464,0.10319 15.50504,-0.7381 31,-2.125 7.60162,-0.68039 12.68131,-1.17113 16.25,-1.5625 0.20679,-1.33927 0.40441,-2.6863 0.59375,-4.03125 -7.25818,0.0379 -19.349,0.5693 -24.84375,1.25 -3.025,0.37474 -7.525,0.75195 -10,0.84375 -2.475,0.0918 -6.3,0.27964 -8.5,0.40625 -4.38632,0.25243 -30.79652,-0.76538 -34,-1.3125 -1.33924,-0.22872 -2.22078,0.3396 -2.65625,1.75 -0.61471,1.99091 -0.6558,1.99891 -0.75,-0.25 -0.10526,-2.51233 -0.97075,-2.57413 -16.125,-0.6875 -1.38666,0.17263 -4.98666,-0.0831 -8,-0.59375 -12.87216,-2.18133 -20.64869,-2.77731 -43.96875,-3.375 -11.825,-0.30308 -27.575,-0.82328 -35,-1.15625 -7.425,-0.33298 -21.825,-0.56845 -32,-0.53125 -38.84299,0.1421 -50.70996,0.0927 -56.21875,-0.15625 -3.13009,-0.14144 -8.20588,0.0365 -11.28125,0.375 -4.55098,0.50093 -5.46825,0.35754 -5.03125,-0.78125 0.29531,-0.76956 0.80828,-2.55108 1.15625,-3.9375 0.6073,-2.41965 0.86212,-2.50187 6.25,-1.90625 3.08718,0.34129 11.475,0.60865 18.625,0.59375 42.59865,-0.0889 58.41831,0.14833 61.03125,0.875 1.61769,0.44988 7.46875,0.69146 12.96875,0.53125 5.5,-0.16021 15.175,-0.25615 21.5,-0.21875 6.325,0.0374 22.8625,0.1103 36.75,0.1875 13.8875,0.0772 25.25,0.50565 25.25,0.9375 0,0.43185 0.9,0.30745 2,-0.28125 1.1,-0.5887 2,-0.70764 2,-0.25 0,1.28067 22.62985,1.90511 49.5,1.375 6.6,-0.13021 13.575,-0.16135 15.5,-0.0937 6.07943,0.21336 35.07645,-0.94767 36.8125,-1.46875 0.006,-0.002 0.0246,0.002 0.0313,0 0.16827,-1.47119 0.3527,-2.92879 0.5,-4.40625 -3.87807,0.39341 -11.2392,0.71252 -17.84375,0.78125 -7.69766,0.0801 -14.38683,0.51183 -14.84375,0.96875 -0.45691,0.45691 -2.70458,0.40703 -5,-0.125 -2.53252,-0.58697 -10.84046,-0.68028 -21.15625,-0.21875 -9.35,0.41833 -18.575,0.6946 -20.5,0.59375 -3.8069,-0.19944 -33.92305,-1.10607 -46,-1.375 -4.125,-0.0921 -9.3,-0.0909 -11.5,0 -2.2,0.0909 -7.15,-0.0395 -11,-0.28125 -3.85,-0.24177 -20.725,-0.59873 -37.5,-0.8125 -16.775,-0.21377 -31.24938,-0.7281 -32.15625,-1.125 -0.90687,-0.39689 -1.94386,-0.22147 -2.3125,0.375 -0.36863,0.59647 -1.12006,0.80013 -1.65625,0.46875 -0.53618,-0.3314 -7.82418,-0.48214 -16.1875,-0.34375 -16.71743,0.27663 -20.41746,0.26692 -38.5,-0.125 -6.75852,-0.14648 -12.44587,-0.53459 -12.65625,-0.875 -0.21039,-0.34041 0.25844,-3.30818 1.03125,-6.59375 0.77281,-3.28556 1.39725,-8.73585 1.40625,-12.125 l 0.0313,-6.1875 3.84375,-0.65625 c 2.12457,-0.35891 6.28707,-0.3733 9.25,-0.0625 2.96293,0.3108 9.17126,0.77536 13.78125,1.0625 4.61,0.28715 8.74017,0.75479 9.1875,1.03125 1.50699,0.93138 57.57708,2.37345 66.9375,1.71875 8.06816,-0.5643 70.22204,0.84159 78.5,1.78125 4.95,0.56188 11.30424,1.30072 14.125,1.625 3.12654,0.35944 8.00626,-0.04 12.5,-1 4.05424,-0.86608 13.225,-1.82319 20.375,-2.15625 28.72019,-1.33788 45.59066,-2.95745 54.5,-5.1875 1.26931,-0.31771 2.85666,-0.56915 4.875,-0.78125 10e-4,-0.3632 0,-0.73025 0,-1.09375 0,-1.03643 -0.021,-2.05975 -0.0313,-3.09375 -4.85493,1.30306 -12.6317,2.81964 -16.34375,3.125 -2.2,0.18097 -4,0.39445 -4,0.46875 0,0.28014 -12.3887,1.10014 -22.5,1.5 -20.62121,0.81548 -31.22568,1.59603 -35.34375,2.59375 -7.74777,1.87712 -12.55109,1.99006 -21.875,0.5 -7.16769,-1.14547 -23.86499,-1.61057 -73.28125,-2.0625 -70.3881,-0.64372 -81.19809,-1.02352 -87.25,-3 -0.6875,-0.22453 -1.27325,0.14227 -1.28125,0.8125 -0.01,0.76067 -0.2914,0.84295 -0.75,0.21875 -0.40408,-0.55 -2.06875,-1.07875 -3.71875,-1.15625 -8.82252,-0.41435 -17.02522,-1.53539 -18.1875,-2.5 -1.91851,-1.59222 -1.74442,-5.22209 0.21875,-4.46875 5.66566,2.17412 43.92408,3.58327 70.46875,2.59375 4.125,-0.15377 18.975,-0.31295 33,-0.34375 16.46843,-0.0361 25.74427,-0.42149 26.21875,-1.09375 0.49449,-0.70063 0.7397,-0.66423 0.75,0.0937 0.01,0.71907 2.70503,1.1584 7.4375,1.25 4.07635,0.0789 13.63885,1.29842 21.25,2.6875 16.71795,3.05111 24.07715,3.91625 31.34375,3.75 15.95732,-0.3651 18.73989,-0.53423 21.65625,-1.4375 1.74657,-0.54096 9.84657,-1.14214 18,-1.34375 8.15342,-0.20161 17.06323,-0.87978 19.78125,-1.5 2.71802,-0.62022 8.56802,-1.36882 13,-1.65625 4.43198,-0.28742 9.84692,-1.13632 12.0625,-1.875 1.71949,-0.57328 5.49975,-1.37534 9.28125,-2.03125 -0.0332,-1.29533 -0.10698,-2.58373 -0.15625,-3.875 -1.57223,0.2642 -3.11126,0.55184 -4.625,0.875 -1.375,0.29355 -3.52158,0.73637 -4.75,0.96875 -1.22843,0.23237 -2.64926,0.68666 -3.15625,1 -0.50698,0.31333 -3.76042,0.74284 -7.25,0.96875 -11.90204,0.7705 -18.84375,1.83413 -18.84375,2.90625 0,0.74381 -0.33751,0.75624 -1.0625,0.0313 -0.67738,-0.67738 -2.8712,-0.75628 -6.25,-0.21875 -2.86343,0.45553 -9.0125,0.8271 -13.6875,0.8125 -4.67501,-0.0146 -10.075,0.33037 -12,0.78125 -1.92501,0.45087 -5.1875,0.7611 -7.25,0.6875 -2.82669,-0.10089 -3.76975,0.25812 -3.78125,1.46875 -0.0103,1.07714 -0.25393,1.24843 -0.75,0.46875 -0.45842,-0.72054 -3.98483,-1.22145 -9.25,-1.28125 -11.61399,-0.13199 -15.78325,-0.64704 -37.96875,-4.625 -4.67501,-0.83825 -11.2,-1.48955 -14.5,-1.46875 -3.3,0.0208 -18.37079,-0.16436 -33.46875,-0.40625 -15.09796,-0.24188 -27.88551,-0.16558 -28.40625,0.15625 -0.86172,0.53257 -25.2964,0.41625 -54.625,-0.25 -6.32501,-0.14368 -13.94368,-0.76666 -16.90625,-1.375 -2.96257,-0.60834 -5.54024,-1.09375 -5.71875,-1.09375 -1.40752,0 -4.62693,-5.28679 -5.90625,-9.6875 -3.00482,-10.33622 -3.39691,-14.32068 -1.78125,-18.1875 1.49673,-3.58218 2.5849,-9.77758 3.8125,-22.125 0.35544,-3.575 1.50265,-8.32636 2.5625,-10.5625 2.26038,-4.7691 2.45251,-10.9126 0.4375,-14.4375 -0.911,-1.59362 -1.44615,-5.49104 -1.46875,-10.75 l -0.0313,-8.25 3.375,0 c 1.86424,0 6.92669,0.65683 11.25,1.46875 7.38413,1.38684 35.05309,4.62336 42,4.90625 1.73498,0.0707 2.98899,0.38262 2.78125,0.71875 -0.65097,1.05329 37.41795,8.39456 38.40625,7.40625 0.26954,-0.26954 1.04214,-0.0303 1.71875,0.53125 0.6766,0.56153 7.51273,1.45512 15.1875,2 16.62238,1.18012 65.72665,1.62479 69.28125,0.625 3.94651,-1.11003 18.88435,-3.50753 25.6875,-4.125 3.40928,-0.30943 6.78428,-0.74072 7.5,-0.96875 0.71572,-0.22802 4.6875,-0.68055 8.8125,-1 4.125,-0.31946 8.625,-0.82693 10,-1.125 1.375,-0.29806 10.375,-0.96762 20,-1.46875 5.99457,-0.31211 10.88987,-0.58027 15.0625,-0.84375 -0.47116,-1.40391 -0.97785,-2.79277 -1.46875,-4.1875 -3.79712,0.20258 -8.17119,0.39479 -13.59375,0.59375 -7.425,0.27244 -14.625,0.77905 -16,1.125 -4.38034,1.1021 -6.36702,1.3055 -12.25,1.3125 -3.1625,0.004 -5.74989,0.36605 -5.75,0.78125 -1.2e-4,0.41521 -1.91262,0.79015 -4.25,0.84375 -4.80945,0.1103 -12.42934,0.98323 -21.25,2.46875 -13.71545,2.30987 -19.08146,3.1127 -20.5,3.0625 -1.85069,-0.0655 -15.0726,0.0654 -20.5,0.1875 -2.2,0.0495 -13,-0.27032 -24,-0.6875 -23.40955,-0.88783 -37.43535,-2.96609 -71,-10.53125 -7.6851,-1.73215 -17.70164,-3.20854 -24.5,-3.59375 -11.27223,-0.63872 -16.74698,-1.23297 -17.9375,-1.96875 -0.32828,-0.20289 -3.52575,-0.65182 -7.09375,-1 -3.56801,-0.34818 -7.25625,-0.86917 -8.21875,-1.15625 -3.40761,-1.01637 -1.68044,-2.04985 3.5,-2.09375 2.8875,-0.0245 10.49557,-0.33912 16.9375,-0.71875 9.77364,-0.57597 13.27745,-0.36459 21.1875,1.3125 5.21362,1.10538 10.79839,2.69979 12.40625,3.53125 3.59126,1.85711 6.70605,2.4527 15.71875,3.125 9.60566,0.71653 10.77683,1.0027 32.09375,7.53125 1.70188,0.52122 7.63562,1.13864 13.21875,1.375 5.58314,0.23637 10.62073,0.71221 11.1875,1.0625 1.25265,0.77422 28.3473,0.85178 33.09375,0.0937 1.86592,-0.29799 6.06304,-0.82402 9.34375,-1.15625 3.28071,-0.33224 6.20571,-0.75677 6.5,-0.9375 0.29429,-0.18073 2.9665,-0.62367 5.9375,-1 2.971,-0.37633 6.22075,-0.84507 7.1875,-1.03125 0.96675,-0.18618 3.9315,-0.64444 6.59375,-1.03125 2.66225,-0.38682 5.74375,-0.89378 6.84375,-1.125 1.1,-0.23123 12.125,-0.60333 24.5,-0.8125 12.54375,-0.21203 23.74489,-0.84121 25.3125,-1.4375 1.54652,-0.58826 6.04652,-1.33458 10,-1.65625 1.3579,-0.11048 2.65066,-0.23842 3.875,-0.375 -0.53717,-1.46205 -1.09748,-2.92353 -1.65625,-4.375 -3.98156,0.3446 -7.38978,0.75587 -7.75,0.96875 -0.38986,0.2304 -3.53986,0.65711 -7,0.9375 -3.46014,0.28039 -7.85625,0.77105 -9.78125,1.09375 -1.925,0.3227 -10.925,0.68535 -20,0.78125 -9.075,0.0959 -18.3,0.48155 -20.5,0.875 -5.78662,1.03488 -12.76544,2.1019 -14.5,2.21875 -1.74978,0.11789 -16.82574,2.1329 -25.5,3.40625 -8.08978,1.18752 -26.70006,1.24244 -31.8125,0.0937 -2.99862,-0.67374 -4.35636,-0.5837 -4.90625,0.28125 -0.57115,0.89835 -0.76975,0.87547 -0.78125,-0.0937 -0.011,-0.92235 -1.634,-1.25995 -5.75,-1.125 -3.1625,0.1037 -6.49456,-0.11513 -7.375,-0.5 -0.88044,-0.38484 -2.00544,-0.604 -2.5,-0.46875 -0.88001,0.24066 -11.40801,-2.59622 -14.375,-3.875 -0.825,-0.35557 -1.95,-0.7256 -2.5,-0.8125 -0.55,-0.0869 -2.575,-0.83263 -4.5,-1.65625 -1.925,-0.82363 -6.80029,-1.57005 -10.8125,-1.65625 -4.01222,-0.0862 -9.15432,-0.5495 -11.4375,-1.0625 -2.28318,-0.51299 -4.59791,-0.66951 -5.125,-0.34375 -0.52708,0.32576 -0.64244,0.0725 -0.25,-0.5625 0.44161,-0.71454 0.0256,-1.15625 -1.125,-1.15625 -1.02246,0 -2.29,-0.38078 -2.8125,-0.84375 -0.94476,-0.83711 -9.1601,-2.81984 -16.25,-3.90625 -4.39365,-0.67326 -18.25209,-0.48778 -30.3125,0.375 -6.71615,0.48046 -8.81245,0.31649 -9.5,-0.75 -1.40806,-2.18409 -2.22773,-29.47395 -1.125,-37.375 0.23028,-1.65 -0.10936,-4.35 -0.75,-6 -1.2572,-3.23733 -1.25528,-27.22405 0,-33.75 l 0.71875,-3.71875 15.125,0.625 c 16.27706,0.69675 20.83567,0.68955 41.65625,-0.21875 17.75036,-0.77436 30.14538,-0.92793 49,-0.5625 8.525,0.16523 17.6568,-0.14877 20.3125,-0.6875 6.51324,-1.32125 38.07895,-0.45446 48.9375,1.34375 5.78703,0.95836 20.04397,1.63892 42.5625,2 -1.38101,-1.65222 -2.77252,-3.31516 -4.1875,-4.9375 -2.79526,-0.19448 -4.625,-0.45482 -4.625,-0.71875 0,-0.22721 1.25998,-0.41105 3.4375,-0.59375 -1.5547,-1.76193 -3.12443,-3.49329 -4.71875,-5.21875 -6.37787,-0.11374 -12.00921,-0.4177 -16.71875,-0.90625 -6.325,-0.65614 -15.46459,-1.38769 -20.28125,-1.625 -4.81667,-0.23731 -9.09167,-0.6103 -9.5,-0.84375 -2.08237,-1.19051 -16.80667,-3.7958 -21.90625,-3.875 -12.31486,-0.19116 -22.03937,0.4246 -27.375,1.75 -3.05005,0.75765 -8.00005,1.45924 -11,1.5625 -2.99996,0.10326 -7.54391,0.73674 -10.09375,1.40625 -2.54983,0.66951 -5.15506,0.887 -5.78125,0.5 -0.62619,-0.38701 -5.86627,-0.78512 -11.65625,-0.90625 -5.78999,-0.12114 -11.64895,-0.66195 -13.03125,-1.1875 -5.39861,-2.05254 -18.28759,-0.73995 -23.09375,2.34375 -1.69977,1.0906 -15.6738,1.21772 -17.375,0.15625 -2.26754,-1.41483 -4.02546,-1.74868 -10.71875,-2 -3.47255,-0.13038 -6.5938,-0.50004 -6.90625,-0.8125 -0.31245,-0.31245 -0.74477,-8.05906 -0.96875,-17.21875 -0.37532,-15.34959 -0.6068,-17.02044 -2.875,-21.28125 -1.35353,-2.54259 -2.4375,-5.00026 -2.4375,-5.46875 0,-0.46849 2.1375,-0.54548 4.75,-0.1875 2.6125,0.35798 6.775,0.78978 9.25,0.96875 11.38124,0.82299 21.71728,1.77525 24,2.21875 5.61396,1.0907 24.47269,3.15315 25.125,2.75 0.38581,-0.23844 0.84677,0.0255 1.03125,0.5625 0.5094,1.48287 31.1952,1.46008 48.34375,-0.0313 11.22199,-0.97593 41.7199,-1.31578 50.3125,-0.71875 -1.98796,-1.39817 -3.9776,-2.7734 -6,-4.125 -12.45557,-0.66794 -28.1014,-0.76077 -34.5,-0.0937 -12.85942,1.34052 -27.51135,1.8416 -32.3125,1.09375 -13.21059,-2.05772 16.58971,-3.53479 63.40625,-3.21875 -2.71134,-1.76037 -5.44902,-3.48041 -8.21875,-5.15625 -5.8082,-0.15865 -10.76735,-0.31851 -13.28125,-0.4375 -9.00267,-0.42613 -10.82084,-0.24166 -12.25,1.1875 -0.92304,0.92303 -1.65625,1.20643 -1.65625,0.65625 0,-0.55019 -1.57746,-0.9109 -3.5,-0.8125 -1.92253,0.0984 -3.498,0.58266 -3.5,1.0625 -0.002,0.47985 -0.60528,0.36819 -1.3125,-0.21875 -0.70721,-0.58695 -3.06971,-0.81021 -5.25,-0.53125 -5.41842,0.69329 -52.21144,0.42709 -55.9375,-0.3125 -1.65,-0.32751 -8.09291,-0.74131 -14.28125,-0.9375 -7.01844,-0.2225 -12.58531,-0.93136 -14.84375,-1.875 -1.99133,-0.83203 -4.67861,-1.5 -5.9375,-1.5 -1.25889,0 -4.7216,-0.94681 -7.71875,-2.09375 l -5.46875,-2.09375 0.5,-6.78125 c 0.33551,-4.68926 0.11952,-7.01317 -0.71875,-7.53125 -0.31383,-0.19396 -0.63834,-0.26641 -0.9375,-0.25 z m 2.6875,21.375 c 1.77105,-0.0663 4.45694,0.40265 6.09375,1.3125 0.82323,0.45761 0.96562,1.00998 0.375,1.375 -0.54392,0.33616 -1.19447,0.43052 -1.4375,0.1875 -0.24303,-0.24303 -1.86632,-0.55349 -3.625,-0.6875 -1.75869,-0.134 -3.1875,-0.77747 -3.1875,-1.4375 0,-0.4733 0.71862,-0.71024 1.78125,-0.75 z m 70.75,7.0625 c 0.99029,-0.061 2.25165,0.0253 3.46875,0.375 1.43367,0.41188 1.76916,0.78655 0.8125,0.84375 -0.91752,0.0548 -2.26752,0.29327 -3,0.5625 -0.73249,0.26922 -1.92226,0.12417 -2.65625,-0.34375 -1.19649,-0.76275 -0.27549,-1.33586 1.375,-1.4375 z m 11.84375,0.65625 c 0.35859,-0.0603 0.625,0.1569 0.625,0.59375 0,0.58246 -0.45,1.0625 -1,1.0625 -0.55,0 -1,-0.19496 -1,-0.4375 0,-0.24254 0.45,-0.72258 1,-1.0625 0.1375,-0.085 0.25547,-0.13615 0.375,-0.15625 z m 47.53125,45.40625 c 10.40525,-0.10824 22.46901,0.88279 29.09375,2.75 1.375,0.38755 4.75,0.82152 7.5,0.96875 2.75,0.14724 5.675,0.52438 6.5,0.84375 0.825,0.31937 6.68907,0.77546 13.0625,1 6.37343,0.22454 12.44843,0.90341 13.5,1.53125 1.51727,0.90588 0.0308,1.13594 -7.28125,1.03125 -5.06772,-0.0725 -9.34272,-0.26314 -9.5,-0.40625 -1.33818,-1.21774 -30.31974,-3.16572 -42.78125,-2.875 -4.125,0.0962 -10.65,0.558 -14.5,1.03125 -7.10719,0.87362 -31.43473,0.78402 -32.34375,-0.125 -1.12614,-1.12613 1.15756,-1.78314 9.03125,-2.53125 4.56792,-0.43402 10.1125,-1.25125 12.3125,-1.8125 3.51833,-0.89757 9.1631,-1.3413 15.40625,-1.40625 z m -80.34375,2.09375 c 3.52637,-0.11844 10.90755,0.98929 13.8125,2.09375 1.57805,0.59998 4.36575,0.81637 6.21875,0.46875 1.85299,-0.34766 4.14252,-0.33377 5.09375,0.0313 4.0239,1.54411 -1.57611,2.36998 -13.46875,2 -8.23585,-0.25623 -13.63069,0.0486 -16.0625,0.875 -2.01473,0.68465 -4.41507,1.09388 -5.34375,0.90625 -1.57372,-0.31796 -1.58246,-0.48004 0.0313,-2.09375 2.02419,-2.02419 6.96709,-4.18885 9.71875,-4.28125 z m -41.84375,1.4375 c 0.60122,0.0134 1.28994,0.036 2.03125,0.0937 7.30595,0.56948 12.12468,1.61777 12.84375,2.78125 0.76061,1.2307 -13.48192,0.82111 -16.34375,-0.46875 -3.45003,-1.55496 -2.73978,-2.50012 1.46875,-2.40625 z m 25.96875,2.8125 c 1.20504,-0.0548 2.47258,0.35625 2.8125,0.90625 0.33992,0.55 0.45121,0.96105 0.28125,0.90625 -0.16996,-0.0548 -1.40625,-0.4659 -2.78125,-0.90625 -2.32726,-0.74532 -2.35209,-0.81345 -0.3125,-0.90625 z"
         style="fill:#214478" />
    </g>
  </g>
</svg>
