<?xml version="1.0" encoding="UTF-8" standalone="no"?>
<!-- Created with Inkscape (http://www.inkscape.org/) -->

<svg
   xmlns:dc="http://purl.org/dc/elements/1.1/"
   xmlns:cc="http://creativecommons.org/ns#"
   xmlns:rdf="http://www.w3.org/1999/02/22-rdf-syntax-ns#"
   xmlns:svg="http://www.w3.org/2000/svg"
   xmlns="http://www.w3.org/2000/svg"
   xmlns:xlink="http://www.w3.org/1999/xlink"
   xmlns:sodipodi="http://sodipodi.sourceforge.net/DTD/sodipodi-0.dtd"
   xmlns:inkscape="http://www.inkscape.org/namespaces/inkscape"
   width="990"
   height="765"
   id="svg10016"
   version="1.1"
   inkscape:version="0.47 r22583"
   sodipodi:docname="New document 38">
  <defs
     id="defs10018">
    <inkscape:perspective
       sodipodi:type="inkscape:persp3d"
       inkscape:vp_x="0 : 526.18109 : 1"
       inkscape:vp_y="0 : 1000 : 0"
       inkscape:vp_z="744.09448 : 526.18109 : 1"
       inkscape:persp3d-origin="372.04724 : 350.78739 : 1"
       id="perspective10024" />
    <inkscape:perspective
       id="perspective10494"
       inkscape:persp3d-origin="0.5 : 0.33333333 : 1"
       inkscape:vp_z="1 : 0.5 : 1"
       inkscape:vp_y="0 : 1000 : 0"
       inkscape:vp_x="0 : 0.5 : 1"
       sodipodi:type="inkscape:persp3d" />
    <marker
       inkscape:stockid="Arrow1Mstart"
       orient="auto"
       refY="0"
       refX="0"
       id="Arrow1Mstart"
       style="overflow:visible">
      <path
         id="path4330"
         d="M 0,0 5,-5 -12.5,0 5,5 0,0 z"
         style="fill-rule:evenodd;stroke:#000000;stroke-width:1pt;marker-start:none"
         transform="matrix(0.4,0,0,0.4,4,0)" />
    </marker>
    <marker
       inkscape:stockid="Arrow1Mend"
       orient="auto"
       refY="0"
       refX="0"
       id="Arrow1Mend"
       style="overflow:visible">
      <path
         id="path4333"
         d="M 0,0 5,-5 -12.5,0 5,5 0,0 z"
         style="fill-rule:evenodd;stroke:#000000;stroke-width:1pt;marker-start:none"
         transform="matrix(-0.4,0,0,-0.4,-4,0)" />
    </marker>
    <marker
       inkscape:stockid="DotS"
       orient="auto"
       refY="0"
       refX="0"
       id="DotS"
       style="overflow:visible">
      <path
         id="path4392"
         d="m -2.5,-1 c 0,2.76 -2.24,5 -5,5 -2.76,0 -5,-2.24 -5,-5 0,-2.76 2.24,-5 5,-5 2.76,0 5,2.24 5,5 z"
         style="fill-rule:evenodd;stroke:#000000;stroke-width:1pt;marker-start:none;marker-end:none"
         transform="matrix(0.2,0,0,0.2,1.48,0.2)" />
    </marker>
    <marker
       inkscape:stockid="DotS"
       orient="auto"
       refY="0"
       refX="0"
       id="marker10504"
       style="overflow:visible">
      <path
         id="path10506"
         d="m -2.5,-1 c 0,2.76 -2.24,5 -5,5 -2.76,0 -5,-2.24 -5,-5 0,-2.76 2.24,-5 5,-5 2.76,0 5,2.24 5,5 z"
         style="fill-rule:evenodd;stroke:#000000;stroke-width:1pt;marker-start:none;marker-end:none"
         transform="matrix(0.2,0,0,0.2,1.48,0.2)" />
    </marker>
    <inkscape:perspective
       id="perspective10686"
       inkscape:persp3d-origin="0.5 : 0.33333333 : 1"
       inkscape:vp_z="1 : 0.5 : 1"
       inkscape:vp_y="0 : 1000 : 0"
       inkscape:vp_x="0 : 0.5 : 1"
       sodipodi:type="inkscape:persp3d" />
    <radialGradient
       inkscape:collect="always"
       xlink:href="#linearGradient8090"
       id="radialGradient8096"
       cx="385.35715"
       cy="346.42053"
       fx="385.35715"
       fy="346.42053"
       r="265.87698"
       gradientTransform="matrix(0.61541905,-0.02917613,0.01445276,0.25186508,140.33297,289.44009)"
       gradientUnits="userSpaceOnUse" />
    <linearGradient
       id="linearGradient8090">
      <stop
         style="stop-color:#afffb2;stop-opacity:1;"
         offset="0"
         id="stop8092" />
      <stop
         style="stop-color:#eaedd8;stop-opacity:1;"
         offset="1"
         id="stop8094" />
    </linearGradient>
    <marker
       inkscape:stockid="Arrow1Mstart"
       orient="auto"
       refY="0"
       refX="0"
       id="Arrow1Mstart-4"
       style="overflow:visible">
      <path
         id="path4330-1"
         d="M 0,0 5,-5 -12.5,0 5,5 0,0 z"
         style="fill-rule:evenodd;stroke:#000000;stroke-width:1pt;marker-start:none"
         transform="matrix(0.4,0,0,0.4,4,0)" />
    </marker>
    <marker
       inkscape:stockid="Arrow1Mend"
       orient="auto"
       refY="0"
       refX="0"
       id="Arrow1Mend-7"
       style="overflow:visible">
      <path
         id="path4333-1"
         d="M 0,0 5,-5 -12.5,0 5,5 0,0 z"
         style="fill-rule:evenodd;stroke:#000000;stroke-width:1pt;marker-start:none"
         transform="matrix(-0.4,0,0,-0.4,-4,0)" />
    </marker>
    <marker
       inkscape:stockid="Arrow1Mend"
       orient="auto"
       refY="0"
       refX="0"
       id="marker10698"
       style="overflow:visible">
      <path
         id="path10700"
         d="M 0,0 5,-5 -12.5,0 5,5 0,0 z"
         style="fill-rule:evenodd;stroke:#000000;stroke-width:1pt;marker-start:none"
         transform="matrix(-0.4,0,0,-0.4,-4,0)" />
    </marker>
    <inkscape:perspective
       id="perspective11354"
       inkscape:persp3d-origin="0.5 : 0.33333333 : 1"
       inkscape:vp_z="1 : 0.5 : 1"
       inkscape:vp_y="0 : 1000 : 0"
       inkscape:vp_x="0 : 0.5 : 1"
       sodipodi:type="inkscape:persp3d" />
  </defs>
  <sodipodi:namedview
     id="base"
     pagecolor="#ffffff"
     bordercolor="#666666"
     borderopacity="1.0"
     inkscape:pageopacity="0.0"
     inkscape:pageshadow="2"
     inkscape:zoom="0.35"
     inkscape:cx="279.84999"
     inkscape:cy="807.67704"
     inkscape:document-units="px"
     inkscape:current-layer="layer1"
     showgrid="false"
     inkscape:window-width="965"
     inkscape:window-height="848"
     inkscape:window-x="0"
     inkscape:window-y="49"
     inkscape:window-maximized="0" />
  <metadata
     id="metadata10021">
    <rdf:RDF>
      <cc:Work
         rdf:about="">
        <dc:format>image/svg+xml</dc:format>
        <dc:type
           rdf:resource="http://purl.org/dc/dcmitype/StillImage" />
        <dc:title></dc:title>
      </cc:Work>
    </rdf:RDF>
  </metadata>
  <g
     inkscape:label="Layer 1"
     inkscape:groupmode="layer"
     id="layer1"
     transform="translate(0,-287.36218)">
    <g
       id="g11384"
       transform="translate(22.857143,328.57143)">
      <flowRoot
         transform="translate(0,-72.730983)"
         style="font-size:36px;font-style:normal;font-weight:normal;fill:#000000;fill-opacity:1;stroke:none;font-family:DejaVu Serif;-inkscape-font-specification:DejaVu Serif"
         id="flowRoot10026"
         xml:space="preserve"><flowRegion
           id="flowRegion10028"><rect
             y="246.26045"
             x="52.527931"
             height="642.39752"
             width="968.57733"
             id="rect10030" /></flowRegion><flowPara
           style="font-size:72px;font-style:normal;font-variant:normal;font-weight:normal;font-stretch:normal;font-family:Monospace;-inkscape-font-specification:Monospace"
           id="flowPara10040"><flowSpan
   id="flowSpan10048"
   style="font-size:72px;fill:#008000">In [7]:</flowSpan> eig(       )</flowPara><flowPara
           id="flowPara10780"
           style="font-size:72px;font-style:normal;font-variant:normal;font-weight:normal;font-stretch:normal;font-family:Monospace;-inkscape-font-specification:Monospace" /><flowPara
           id="flowPara10786"
           style="font-size:72px;font-style:normal;font-variant:normal;font-weight:normal;font-stretch:normal;fill:#800000;font-family:Monospace;-inkscape-font-specification:Monospace">Out[7]:</flowPara></flowRoot>      <g
         id="g9951"
         transform="translate(154.44026,-12.050827)">
        <path
           d="m 520.45444,438.07648 c 0,48.91665 -64.16278,88.57143 -143.31159,88.57143 -79.1488,0 -143.31158,-39.65478 -143.31158,-88.57143 0,-48.91666 64.16278,-88.57144 143.31158,-88.57144 79.14881,0 143.31159,39.65478 143.31159,88.57144 z"
           sodipodi:ry="88.571434"
           sodipodi:rx="143.31158"
           sodipodi:cy="438.07648"
           sodipodi:cx="377.14285"
           id="path8137"
           style="fill:#e3f4d7;stroke:#666666;stroke-width:1;stroke-linecap:round;stroke-linejoin:round;stroke-miterlimit:4;stroke-opacity:1;stroke-dasharray:none;stroke-dashoffset:0"
           sodipodi:type="arc"
           transform="matrix(0.86244578,-0.50614946,0.50614946,0.86244578,-169.67897,251.12469)" />
        <path
           id="path8139"
           d="m 333.57997,363.5777 43.73971,74.52963 121.64629,-71.39139"
           style="fill:none;stroke:#000000;stroke-width:1.48299539;stroke-linecap:butt;stroke-linejoin:miter;stroke-miterlimit:4;stroke-opacity:1;stroke-dasharray:none;marker-start:url(#Arrow1Mstart);marker-end:url(#Arrow1Mend)" />
        <g
           id="g9922"
           style="stroke:#666666">
          <g
             id="g9098"
             style="stroke:#666666;stroke-width:1.5;stroke-miterlimit:4;stroke-dasharray:none"
             transform="matrix(0.86244578,-0.50614946,0.50614946,0.86244578,-173.68318,253.47467)">
            <path
               id="path9025-5"
               d="m 366.6367,438.14077 8.5863,0"
               style="fill:none;stroke:#666666;stroke-width:1.5;stroke-linecap:butt;stroke-linejoin:miter;stroke-miterlimit:4;stroke-opacity:1;stroke-dasharray:none" />
            <path
               id="path9040-5"
               d="m 370.92985,437.89057 0,-88.72432"
               style="fill:none;stroke:#666666;stroke-width:1.5;stroke-linecap:butt;stroke-linejoin:miter;stroke-miterlimit:4;stroke-opacity:1;stroke-dasharray:none" />
            <path
               id="path9025-9-7"
               d="m 366.56274,349.08363 8.5863,0"
               style="fill:none;stroke:#666666;stroke-width:1.5;stroke-linecap:butt;stroke-linejoin:miter;stroke-miterlimit:4;stroke-opacity:1;stroke-dasharray:none" />
          </g>
          <path
             style="fill:none;stroke:#666666;stroke-width:1.5;stroke-linecap:butt;stroke-linejoin:miter;stroke-miterlimit:4;stroke-opacity:1;stroke-dasharray:none"
             d="m 345.01415,403.84649 -15.39685,9.03606"
             id="path9117" />
          <path
             id="path9167"
             d="m 329.94341,412.66273 -45.60111,0 0,-31.85111"
             style="fill:none;stroke:#666666;stroke-width:1.5;stroke-linecap:butt;stroke-linejoin:miter;stroke-miterlimit:4;stroke-opacity:1;stroke-dasharray:none;marker-end:url(#DotS)" />
        </g>
        <g
           id="g9914"
           style="stroke:#666666">
          <g
             id="g9059"
             style="stroke:#666666;stroke-width:1.5;stroke-miterlimit:4;stroke-dasharray:none"
             transform="matrix(0.86244578,-0.50614946,0.50614946,0.86244578,-166.96746,255.74494)">
            <path
               id="path9025"
               d="m 377.32143,440.2605 0,8.5863"
               style="fill:none;stroke:#666666;stroke-width:1.5;stroke-linecap:butt;stroke-linejoin:miter;stroke-miterlimit:4;stroke-opacity:1;stroke-dasharray:none" />
            <path
               id="path9040"
               d="m 377.72308,444.55365 142.43151,0"
               style="fill:none;stroke:#666666;stroke-width:1.5;stroke-linecap:butt;stroke-linejoin:miter;stroke-miterlimit:4;stroke-opacity:1;stroke-dasharray:none" />
            <path
               id="path9025-9"
               d="m 520.28721,440.18654 0,8.5863"
               style="fill:none;stroke:#666666;stroke-width:1.5;stroke-linecap:butt;stroke-linejoin:miter;stroke-miterlimit:4;stroke-opacity:1;stroke-dasharray:none" />
          </g>
          <path
             style="fill:none;stroke:#666666;stroke-width:1.5;stroke-linecap:butt;stroke-linejoin:miter;stroke-miterlimit:4;stroke-opacity:1;stroke-dasharray:none"
             d="m 445.73196,410.952 10.31921,17.58326"
             id="path9115" />
          <path
             id="path9171"
             d="m 455.70859,428.26074 77.6742,0 0,-19.80835"
             style="fill:none;stroke:#666666;stroke-width:1.5;stroke-linecap:butt;stroke-linejoin:miter;stroke-miterlimit:4;stroke-opacity:1;stroke-dasharray:none;marker-end:url(#DotS)" />
        </g>
        <g
           transform="matrix(0.87545685,0,0,0.87545685,235.25086,38.292594)"
           id="g9212">
          <g
             style="font-style:normal;font-variant:normal;font-weight:normal;font-stretch:normal;letter-spacing:normal;word-spacing:normal;text-anchor:start;fill:none;stroke:#000000;stroke-linecap:butt;stroke-linejoin:miter;stroke-miterlimit:10.43299961;stroke-opacity:1;stroke-dasharray:none;stroke-dashoffset:0"
             id="content"
             transform="matrix(1.0629921,0,0,-1.0629921,-186.02362,789.27165)"
             xml:space="preserve"
             stroke-miterlimit="10.433"
             fill-rule="even-odd"
             font-style="normal"
             font-variant="normal"
             font-weight="normal"
             font-stretch="normal"
             font-size-adjust="none"
             letter-spacing="normal"
             word-spacing="normal"><path
               style="fill:#000000;stroke-width:0"
               d="m 480.75,435.64 -0.07,-0.06 -0.07,-0.07 -0.08,-0.07 -0.08,-0.07 -0.09,-0.08 -0.09,-0.08 -0.09,-0.09 -0.09,-0.09 -0.1,-0.09 -0.09,-0.09 -0.2,-0.19 -0.19,-0.19 -0.19,-0.21 -0.09,-0.1 -0.09,-0.1 -0.09,-0.1 -0.08,-0.11 -0.08,-0.1 -0.08,-0.1 -0.07,-0.1 -0.06,-0.1 -0.06,-0.1 -0.05,-0.1 -0.05,-0.1 -0.04,-0.09 -0.03,-0.1 -0.02,-0.09 -0.02,-0.09 0,-0.08 c 0,-0.5 0.5,-1 1,-1 0.44,0 0.69,0.35 0.94,0.65 0.6,0.75 1.74,2.14 3.94,3.24 0.35,0.2 0.84,0.45 0.84,1.05 0,0.49 -0.34,0.74 -0.69,0.99 -1.1,0.75 -1.65,1.64 -2.05,2.84 -0.1,0.45 -0.3,1.1 -0.99,1.1 -0.7,0 -1,-0.65 -1,-1.05 0,-0.25 0.4,-1.84 1.2,-2.89 h -16.79 c -0.85,0 -1.74,0 -1.74,-0.99 0,-1 0.89,-1 1.74,-1 z"
               id="path9215" /><path
               style="fill:#000000;stroke-width:0"
               d="m 479.31,424.53 0,0.13 0,0.12 -0.01,0.12 0,0.11 -0.01,0.12 -0.01,0.11 -0.01,0.11 -0.02,0.1 -0.03,0.21 -0.03,0.19 -0.05,0.18 -0.04,0.18 -0.06,0.16 -0.06,0.16 -0.06,0.15 -0.07,0.13 -0.07,0.13 -0.07,0.12 -0.08,0.12 -0.08,0.1 -0.08,0.1 -0.09,0.09 -0.08,0.08 -0.09,0.07 -0.09,0.07 -0.09,0.06 -0.1,0.05 -0.09,0.05 -0.09,0.04 -0.09,0.03 -0.1,0.03 -0.09,0.03 -0.09,0.01 -0.09,0.02 -0.08,0 -0.09,0.01 c -1.24,0 -2.44,-1.3 -2.44,-2.4 0,-0.64 0.25,-0.94 0.8,-1.49 1.04,-0.99 1.69,-2.29 1.69,-4.08 0,-2.09 -3.04,-13.5 -8.87,-13.5 -2.54,0 -3.68,1.74 -3.68,4.33 0,2.79 1.34,6.43 2.89,10.56 0.35,0.85 0.6,1.54 0.6,2.49 0,2.25 -1.6,4.09 -4.09,4.09 -4.68,0 -6.57,-7.23 -6.57,-7.67 0,-0.5 0.49,-0.5 0.59,-0.5 0.5,0 0.55,0.1 0.8,0.9 1.45,5.03 3.59,6.17 5.03,6.17 0.4,0 1.25,0 1.25,-1.59 0,-1.25 -0.5,-2.59 -0.85,-3.49 -2.19,-5.78 -2.84,-8.07 -2.84,-10.21 0,-5.38 4.38,-6.18 6.68,-6.18 8.36,0 11.2,16.49 11.2,19.08 z"
               id="path9217" /><path
               style="fill:#000000;stroke-width:0"
               d="m 491.68,421.18 0,0.04 0,0.04 0,0.04 0,0.04 0,0.04 0,0.04 0,0.03 0,0.04 -0.01,0.03 0,0.03 0,0.04 0,0.03 -0.01,0.02 0,0.03 0,0.03 -0.01,0.03 0,0.02 0,0.02 -0.02,0.05 -0.01,0.04 -0.01,0.04 -0.02,0.03 -0.02,0.03 -0.02,0.03 -0.03,0.03 -0.02,0.02 -0.03,0.02 -0.04,0.02 -0.03,0.01 -0.04,0.01 -0.05,0.02 -0.05,0 -0.02,0.01 -0.03,0 -0.03,0.01 -0.02,0 -0.03,0 -0.03,0 -0.04,0 -0.03,0.01 -0.03,0 -0.04,0 -0.03,0 -0.04,0 -0.04,0 -0.04,0 -0.04,0 -0.04,0 -0.05,0 -0.04,0 c -2.24,-2.19 -5.41,-2.23 -6.84,-2.23 v -1.25 c 0.84,0 3.14,0 5.06,0.97 v -17.78 c 0,-1.15 0,-1.61 -3.49,-1.61 h -1.33 V 399 h 12.45 v 1.25 h -1.32 c -3.49,0 -3.49,0.46 -3.49,1.61 z"
               id="path9219" /></g>        </g>
        <g
           id="g9283"
           transform="matrix(0.88126112,0,0,0.88126112,225.38594,38.801477)">
          <g
             word-spacing="normal"
             letter-spacing="normal"
             font-size-adjust="none"
             font-stretch="normal"
             font-weight="normal"
             font-variant="normal"
             font-style="normal"
             fill-rule="even-odd"
             stroke-miterlimit="10.433"
             xml:space="preserve"
             transform="matrix(1.0629921,0,0,-1.0629921,-393.51847,778.7348)"
             id="g9285"
             style="font-style:normal;font-variant:normal;font-weight:normal;font-stretch:normal;letter-spacing:normal;word-spacing:normal;text-anchor:start;fill:none;stroke:#000000;stroke-linecap:butt;stroke-linejoin:miter;stroke-miterlimit:10.43299961;stroke-opacity:1;stroke-dasharray:none;stroke-dashoffset:0"><path
               id="path9287"
               d="m 480.75,435.64 -0.07,-0.06 -0.07,-0.07 -0.08,-0.07 -0.08,-0.07 -0.09,-0.08 -0.09,-0.08 -0.09,-0.09 -0.09,-0.09 -0.1,-0.09 -0.09,-0.09 -0.2,-0.19 -0.19,-0.19 -0.19,-0.21 -0.09,-0.1 -0.09,-0.1 -0.09,-0.1 -0.08,-0.11 -0.08,-0.1 -0.08,-0.1 -0.07,-0.1 -0.06,-0.1 -0.06,-0.1 -0.05,-0.1 -0.05,-0.1 -0.04,-0.09 -0.03,-0.1 -0.02,-0.09 -0.02,-0.09 0,-0.08 c 0,-0.5 0.5,-1 1,-1 0.44,0 0.69,0.35 0.94,0.65 0.6,0.75 1.74,2.14 3.94,3.24 0.35,0.2 0.84,0.45 0.84,1.05 0,0.49 -0.34,0.74 -0.69,0.99 -1.1,0.75 -1.65,1.64 -2.05,2.84 -0.1,0.45 -0.3,1.1 -0.99,1.1 -0.7,0 -1,-0.65 -1,-1.05 0,-0.25 0.4,-1.84 1.2,-2.89 h -16.79 c -0.85,0 -1.74,0 -1.74,-0.99 0,-1 0.89,-1 1.74,-1 z"
               style="fill:#000000;stroke-width:0" /><path
               id="path9289"
               d="m 479.31,424.53 0,0.13 0,0.12 -0.01,0.12 0,0.11 -0.01,0.12 -0.01,0.11 -0.01,0.11 -0.02,0.1 -0.03,0.21 -0.03,0.19 -0.05,0.18 -0.04,0.18 -0.06,0.16 -0.06,0.16 -0.06,0.15 -0.07,0.13 -0.07,0.13 -0.07,0.12 -0.08,0.12 -0.08,0.1 -0.08,0.1 -0.09,0.09 -0.08,0.08 -0.09,0.07 -0.09,0.07 -0.09,0.06 -0.1,0.05 -0.09,0.05 -0.09,0.04 -0.09,0.03 -0.1,0.03 -0.09,0.03 -0.09,0.01 -0.09,0.02 -0.08,0 -0.09,0.01 c -1.24,0 -2.44,-1.3 -2.44,-2.4 0,-0.64 0.25,-0.94 0.8,-1.49 1.04,-0.99 1.69,-2.29 1.69,-4.08 0,-2.09 -3.04,-13.5 -8.87,-13.5 -2.54,0 -3.68,1.74 -3.68,4.33 0,2.79 1.34,6.43 2.89,10.56 0.35,0.85 0.6,1.54 0.6,2.49 0,2.25 -1.6,4.09 -4.09,4.09 -4.68,0 -6.57,-7.23 -6.57,-7.67 0,-0.5 0.49,-0.5 0.59,-0.5 0.5,0 0.55,0.1 0.8,0.9 1.45,5.03 3.59,6.17 5.03,6.17 0.4,0 1.25,0 1.25,-1.59 0,-1.25 -0.5,-2.59 -0.85,-3.49 -2.19,-5.78 -2.84,-8.07 -2.84,-10.21 0,-5.38 4.38,-6.18 6.68,-6.18 8.36,0 11.2,16.49 11.2,19.08 z"
               style="fill:#000000;stroke-width:0" /><path
               id="path9291"
               d="m 497.61,405.35 h -1.19 c -0.1,-0.77 -0.45,-2.83 -0.9,-3.18 -0.28,-0.21 -2.97,-0.21 -3.45,-0.21 h -6.42 c 3.66,3.25 4.88,4.22 6.97,5.86 2.58,2.06 4.99,4.22 4.99,7.54 0,4.21 -3.7,6.79 -8.16,6.79 -4.33,0 -7.25,-3.03 -7.25,-6.24 0,-1.78 1.5,-1.95 1.84,-1.95 0.84,0 1.85,0.59 1.85,1.85 0,0.62 -0.24,1.85 -2.05,1.85 1.08,2.47 3.45,3.24 5.09,3.24 3.48,0 5.3,-2.72 5.3,-5.54 0,-3.04 -2.16,-5.45 -3.28,-6.7 l -8.4,-8.3 c -0.35,-0.31 -0.35,-0.38 -0.35,-1.36 h 14.36 z"
               style="fill:#000000;stroke-width:0" /></g>        </g>
        <g
           transform="matrix(0.51259679,0,0,0.51259679,361.31455,206.57072)"
           id="g9365">
          <g
             style="font-style:normal;font-variant:normal;font-weight:normal;font-stretch:normal;letter-spacing:normal;word-spacing:normal;text-anchor:start;fill:none;stroke:#000000;stroke-linecap:butt;stroke-linejoin:miter;stroke-miterlimit:10.43299961;stroke-opacity:1;stroke-dasharray:none;stroke-dashoffset:0"
             id="g9367"
             transform="matrix(1.0629921,0,0,-1.0629921,-186.02362,789.27165)"
             xml:space="preserve"
             stroke-miterlimit="10.433"
             fill-rule="even-odd"
             font-style="normal"
             font-variant="normal"
             font-weight="normal"
             font-stretch="normal"
             font-size-adjust="none"
             letter-spacing="normal"
             word-spacing="normal"><path
               style="fill:#000000;stroke-width:0"
               d="m 500.68,448.18 0,0.04 0,0.04 0,0.04 0,0.04 0,0.04 0,0.04 0,0.03 0,0.04 -0.01,0.03 0,0.03 0,0.04 0,0.03 -0.01,0.02 0,0.03 0,0.03 -0.01,0.03 0,0.02 0,0.02 -0.02,0.05 -0.01,0.04 -0.01,0.04 -0.02,0.03 -0.02,0.03 -0.02,0.03 -0.03,0.03 -0.02,0.02 -0.03,0.02 -0.04,0.02 -0.03,0.01 -0.04,0.01 -0.05,0.02 -0.05,0 -0.02,0.01 -0.03,0 -0.03,0.01 -0.02,0 -0.03,0 -0.03,0 -0.04,0 -0.03,0.01 -0.03,0 -0.04,0 -0.03,0 -0.04,0 -0.04,0 -0.04,0 -0.04,0 -0.04,0 -0.05,0 -0.04,0 c -2.24,-2.19 -5.41,-2.23 -6.84,-2.23 v -1.25 c 0.84,0 3.14,0 5.06,0.97 v -17.78 c 0,-1.15 0,-1.61 -3.49,-1.61 h -1.33 V 426 h 12.45 v 1.25 h -1.32 c -3.49,0 -3.49,0.46 -3.49,1.61 z"
               id="path9369" /><polyline
               style="fill:#000000;fill-rule:nonzero;stroke-width:0"
               points="462,418 537.84,418 537.84,420.04 462,420.04 "
               id="polyline9371" /><path
               style="fill:#000000;stroke-width:0"
               d="m 477.45,382.68 -6.84,13.52 c -0.21,0.39 -0.28,0.56 -0.56,0.56 -0.17,0 -0.24,-0.03 -0.52,-0.24 l -3.76,-2.55 c -0.39,-0.27 -0.49,-0.31 -0.49,-0.56 0,-0.48 0.49,-0.48 0.66,-0.48 l 2.34,1.57 7.6,-15.1 c 0.24,-0.49 0.35,-0.56 0.8,-0.56 0.31,0 0.7,0 1.05,0.66 l 17.57,32.64 c 0.24,0.45 0.24,0.66 0.24,0.7 0,0.59 -0.49,0.87 -0.83,0.87 -0.53,0 -0.73,-0.35 -0.87,-0.63 z"
               id="path9373" /><polyline
               style="fill:#000000;fill-rule:nonzero;stroke-width:0"
               points="494,412 537.08,412 537.08,413.8 494,413.8 "
               id="polyline9375" /><path
               style="fill:#000000;stroke-width:0"
               d="m 508.09,394.97 0.33,-0.75 0.33,-0.78 0.33,-0.78 0.33,-0.78 0.33,-0.78 0.31,-0.76 0.16,-0.37 0.15,-0.36 0.15,-0.36 0.14,-0.34 0.15,-0.34 0.13,-0.32 0.13,-0.31 0.13,-0.3 0.12,-0.28 0.12,-0.27 0.11,-0.25 0.1,-0.24 0.1,-0.21 0.09,-0.2 0.08,-0.17 0.08,-0.16 0.06,-0.13 0.06,-0.1 0.05,-0.09 0.04,-0.05 c 0.66,-0.84 1.29,-0.84 1.85,-0.84 h 0.7 c 0.66,0 1.01,0 1.01,0.42 0,0.17 -0.11,0.28 -0.17,0.35 -0.43,0.38 -0.77,1.19 -0.91,1.5 L 506.17,407 c -0.24,0.63 -0.94,2.2 -4.64,2.2 -0.42,0 -0.91,0 -0.91,-0.49 0,-0.42 0.35,-0.45 0.53,-0.49 0.73,-0.1 1.39,-0.21 2.26,-2.19 1.43,-3.24 2.76,-6.53 4.15,-9.77 l -10.28,-9.27 c -0.42,-0.35 -0.7,-0.63 -0.7,-1.22 0,-0.84 0.7,-1.19 1.19,-1.19 0.66,0 1.08,0.46 1.18,0.56 z"
               id="path9377" /><path
               style="fill:#000000;stroke-width:0"
               d="m 527.91,395.84 0,0.03 0,0.04 0,0.03 0,0.03 0,0.03 0,0.03 0,0.03 0,0.03 0,0.02 0,0.03 -0.01,0.02 0,0.03 0,0.02 0,0.02 -0.01,0.02 0,0.02 0,0.02 -0.01,0.02 -0.01,0.03 -0.01,0.04 -0.01,0.02 -0.02,0.03 -0.02,0.02 -0.01,0.02 -0.03,0.02 -0.02,0.02 -0.03,0.01 -0.03,0.02 -0.03,0.01 -0.03,0.01 -0.04,0 -0.02,0.01 -0.02,0 -0.02,0 -0.03,0 -0.02,0.01 -0.02,0 -0.03,0 -0.03,0 -0.02,0 -0.03,0 -0.03,0 -0.03,0 -0.03,0.01 -0.03,0 -0.03,0 -0.04,0 -0.03,0 -0.04,0 -0.04,0 -0.03,0 c -1.77,-1.6 -4.54,-1.6 -5.04,-1.6 h -0.42 v -1.09 h 0.42 c 0.58,0 2.2,0.07 3.64,0.69 v -12.45 c 0,-0.77 0,-1.04 -2.64,-1.04 h -1.25 V 380 c 1.37,0.1 3.59,0.1 5.04,0.1 1.44,0 3.66,0 5.03,-0.1 v 1.1 h -1.25 c -2.64,0 -2.64,0.27 -2.64,1.04 z"
               id="path9379" /></g>        </g>
        <g
           id="g9469"
           transform="matrix(0.50382871,0,0,0.50382871,102.44274,180.01809)">
          <g
             word-spacing="normal"
             letter-spacing="normal"
             font-size-adjust="none"
             font-stretch="normal"
             font-weight="normal"
             font-variant="normal"
             font-style="normal"
             fill-rule="even-odd"
             stroke-miterlimit="10.433"
             xml:space="preserve"
             transform="matrix(1.0629921,0,0,-1.0629921,-186.02362,789.27165)"
             id="g9471"
             style="font-style:normal;font-variant:normal;font-weight:normal;font-stretch:normal;letter-spacing:normal;word-spacing:normal;text-anchor:start;fill:none;stroke:#000000;stroke-linecap:butt;stroke-linejoin:miter;stroke-miterlimit:10.43299961;stroke-opacity:1;stroke-dasharray:none;stroke-dashoffset:0"><path
               id="path9473"
               d="m 500.68,448.18 0,0.04 0,0.04 0,0.04 0,0.04 0,0.04 0,0.04 0,0.03 0,0.04 -0.01,0.03 0,0.03 0,0.04 0,0.03 -0.01,0.02 0,0.03 0,0.03 -0.01,0.03 0,0.02 0,0.02 -0.02,0.05 -0.01,0.04 -0.01,0.04 -0.02,0.03 -0.02,0.03 -0.02,0.03 -0.03,0.03 -0.02,0.02 -0.03,0.02 -0.04,0.02 -0.03,0.01 -0.04,0.01 -0.05,0.02 -0.05,0 -0.02,0.01 -0.03,0 -0.03,0.01 -0.02,0 -0.03,0 -0.03,0 -0.04,0 -0.03,0.01 -0.03,0 -0.04,0 -0.03,0 -0.04,0 -0.04,0 -0.04,0 -0.04,0 -0.04,0 -0.05,0 -0.04,0 c -2.24,-2.19 -5.41,-2.23 -6.84,-2.23 v -1.25 c 0.84,0 3.14,0 5.06,0.97 v -17.78 c 0,-1.15 0,-1.61 -3.49,-1.61 h -1.33 V 426 h 12.45 v 1.25 h -1.32 c -3.49,0 -3.49,0.46 -3.49,1.61 z"
               style="fill:#000000;stroke-width:0" /><polyline
               id="polyline9475"
               points="462,418 537.84,418 537.84,420.04 462,420.04 "
               style="fill:#000000;fill-rule:nonzero;stroke-width:0" /><path
               id="path9477"
               d="m 477.45,382.68 -6.84,13.52 c -0.21,0.39 -0.28,0.56 -0.56,0.56 -0.17,0 -0.24,-0.03 -0.52,-0.24 l -3.76,-2.55 c -0.39,-0.27 -0.49,-0.31 -0.49,-0.56 0,-0.48 0.49,-0.48 0.66,-0.48 l 2.34,1.57 7.6,-15.1 c 0.24,-0.49 0.35,-0.56 0.8,-0.56 0.31,0 0.7,0 1.05,0.66 l 17.57,32.64 c 0.24,0.45 0.24,0.66 0.24,0.7 0,0.59 -0.49,0.87 -0.83,0.87 -0.53,0 -0.73,-0.35 -0.87,-0.63 z"
               style="fill:#000000;stroke-width:0" /><polyline
               id="polyline9479"
               points="494,412 537.08,412 537.08,413.8 494,413.8 "
               style="fill:#000000;fill-rule:nonzero;stroke-width:0" /><path
               id="path9481"
               d="m 508.09,394.97 0.33,-0.75 0.33,-0.78 0.33,-0.78 0.33,-0.78 0.33,-0.78 0.31,-0.76 0.16,-0.37 0.15,-0.36 0.15,-0.36 0.14,-0.34 0.15,-0.34 0.13,-0.32 0.13,-0.31 0.13,-0.3 0.12,-0.28 0.12,-0.27 0.11,-0.25 0.1,-0.24 0.1,-0.21 0.09,-0.2 0.08,-0.17 0.08,-0.16 0.06,-0.13 0.06,-0.1 0.05,-0.09 0.04,-0.05 c 0.66,-0.84 1.29,-0.84 1.85,-0.84 h 0.7 c 0.66,0 1.01,0 1.01,0.42 0,0.17 -0.11,0.28 -0.17,0.35 -0.43,0.38 -0.77,1.19 -0.91,1.5 L 506.17,407 c -0.24,0.63 -0.94,2.2 -4.64,2.2 -0.42,0 -0.91,0 -0.91,-0.49 0,-0.42 0.35,-0.45 0.53,-0.49 0.73,-0.1 1.39,-0.21 2.26,-2.19 1.43,-3.24 2.76,-6.53 4.15,-9.77 l -10.28,-9.27 c -0.42,-0.35 -0.7,-0.63 -0.7,-1.22 0,-0.84 0.7,-1.19 1.19,-1.19 0.66,0 1.08,0.46 1.18,0.56 z"
               style="fill:#000000;stroke-width:0" /><path
               id="path9483"
               d="m 532.67,384.81 h -1.05 c -0.07,-0.48 -0.32,-2.02 -0.72,-2.27 -0.2,-0.15 -2.29,-0.15 -2.66,-0.15 h -4.89 c 1.65,1.22 3.49,2.62 4.99,3.61 2.24,1.55 4.33,2.99 4.33,5.63 0,3.19 -3.01,4.96 -6.58,4.96 -3.36,0 -5.82,-1.95 -5.82,-4.39 0,-1.29 1.09,-1.52 1.44,-1.52 0.67,0 1.47,0.45 1.47,1.48 0,0.89 -0.65,1.39 -1.42,1.46 0.7,1.13 2.14,1.87 3.81,1.87 2.42,0 4.43,-1.44 4.43,-3.88 0,-2.09 -1.44,-3.69 -3.35,-5.31 l -6.08,-5.16 c -0.25,-0.22 -0.28,-0.22 -0.3,-0.39 V 380 h 11.58 z"
               style="fill:#000000;stroke-width:0" /></g>        </g>
      </g>
      <g
         id="g10660"
         transform="matrix(0.59314503,0,0,0.59314503,466.39015,-3.1031587)">
        <path
           style="fill:url(#radialGradient8096);fill-opacity:1;stroke:#000000;stroke-width:0.95346898;stroke-linecap:butt;stroke-linejoin:miter;stroke-miterlimit:4;stroke-opacity:1;stroke-dasharray:none"
           d="M 177.81403,293.63207 274.97592,486.69103 684.68598,468.1196 475.72259,284.46193 177.81403,293.63207 z"
           id="path6587"
           sodipodi:nodetypes="ccccc" />
        <g
           id="g6568"
           style="fill:none;stroke:#ff5555">
          <path
             id="path6560"
             d="M 389.91888,373.0346 262.13459,428.08791"
             style="fill:none;stroke:#ff5555;stroke-width:1;stroke-linecap:round;stroke-linejoin:miter;stroke-miterlimit:4;stroke-opacity:1;stroke-dasharray:2, 2;stroke-dashoffset:0" />
          <path
             id="path6562"
             d="m 262.13459,354.85185 0,73.23606"
             style="fill:none;stroke:#ff5555;stroke-width:1;stroke-linecap:round;stroke-linejoin:miter;stroke-miterlimit:4;stroke-opacity:1;stroke-dasharray:2, 2;stroke-dashoffset:0" />
          <path
             id="path6564"
             d="m 345.97725,192.72237 0,117.17769 44.44671,62.62946"
             style="fill:none;stroke:#ff5555;stroke-width:1;stroke-linecap:round;stroke-linejoin:miter;stroke-miterlimit:4;stroke-opacity:1;stroke-dasharray:2, 2;stroke-dashoffset:0" />
          <path
             id="path6566"
             d="m 567.70573,353.8417 0,48.48732 -177.78685,-29.29442"
             style="fill:none;stroke:#ff5555;stroke-width:1;stroke-linecap:round;stroke-linejoin:miter;stroke-miterlimit:4;stroke-opacity:1;stroke-dasharray:2, 2;stroke-dashoffset:0" />
        </g>
        <g
           id="g6574">
          <path
             id="path5372"
             d="m 346.48232,193.73252 43.43656,178.797 179.80716,-19.1929"
             style="fill:none;stroke:#000000;stroke-width:1px;stroke-linecap:butt;stroke-linejoin:miter;stroke-opacity:1;marker-start:url(#Arrow1Mstart);marker-end:url(#Arrow1Mend)" />
          <path
             id="path5374"
             d="M 389.91888,372.27698 260,353.79075"
             style="fill:none;stroke:#000000;stroke-width:1px;stroke-linecap:butt;stroke-linejoin:miter;stroke-opacity:1;marker-end:url(#Arrow1Mend)" />
          <g
             transform="matrix(0.64276057,0,0,0.64276057,139.07762,133.19084)"
             id="g6552"
             style="stroke-width:1.55578923;stroke-miterlimit:4;stroke-dasharray:none">
            <path
               style="fill:none;stroke:#000000;stroke-width:1.55578923;stroke-linecap:round;stroke-linejoin:miter;stroke-miterlimit:4;stroke-opacity:1;stroke-dasharray:none"
               d="m 404.29998,370.96867 -15.3777,-2.56296"
               id="path6448" />
            <path
               style="fill:none;stroke:#000000;stroke-width:1.55578923;stroke-linecap:round;stroke-linejoin:miter;stroke-miterlimit:4;stroke-opacity:1;stroke-dasharray:none"
               d="m 376.8409,370.16449 13.02399,-1.83593"
               id="path6450" />
            <path
               style="fill:none;stroke:#000000;stroke-width:1.55578923;stroke-linecap:round;stroke-linejoin:miter;stroke-miterlimit:4;stroke-opacity:1;stroke-dasharray:none"
               d="m 403.55594,370.76175 -2.77792,-12.62691"
               id="path6452"
               sodipodi:nodetypes="cc" />
            <path
               style="fill:none;stroke:#000000;stroke-width:1.55578923;stroke-linecap:round;stroke-linejoin:miter;stroke-miterlimit:4;stroke-opacity:1;stroke-dasharray:none"
               d="m 376.44586,370.15419 -2.59591,-11.79957"
               id="path6452-5"
               sodipodi:nodetypes="cc" />
            <path
               style="fill:none;stroke:#000000;stroke-width:1.55578923;stroke-linecap:round;stroke-linejoin:miter;stroke-miterlimit:4;stroke-opacity:1;stroke-dasharray:none"
               d="m 387.49176,360.28846 13.19198,-1.85961"
               id="path6450-7" />
            <path
               style="fill:none;stroke:#000000;stroke-width:1.55578923;stroke-linecap:round;stroke-linejoin:miter;stroke-miterlimit:4;stroke-opacity:1;stroke-dasharray:none"
               d="m 386.55318,360.33559 -13.0002,-2.16671"
               id="path6448-3" />
          </g>
        </g>
      </g>
    </g>
  </g>
</svg>
