<?xml version="1.0" encoding="UTF-8" standalone="no"?>
<!-- Created with Inkscape (http://www.inkscape.org/) -->

<svg
   xmlns:dc="http://purl.org/dc/elements/1.1/"
   xmlns:cc="http://creativecommons.org/ns#"
   xmlns:rdf="http://www.w3.org/1999/02/22-rdf-syntax-ns#"
   xmlns:svg="http://www.w3.org/2000/svg"
   xmlns="http://www.w3.org/2000/svg"
   xmlns:sodipodi="http://sodipodi.sourceforge.net/DTD/sodipodi-0.dtd"
   xmlns:inkscape="http://www.inkscape.org/namespaces/inkscape"
   width="523.93518"
   height="660"
   id="svg2923"
   version="1.1"
   inkscape:version="0.47 r22583"
   sodipodi:docname="climate.svg">
  <defs
     id="defs2925">
    <inkscape:perspective
       sodipodi:type="inkscape:persp3d"
       inkscape:vp_x="0 : 526.18109 : 1"
       inkscape:vp_y="0 : 1000 : 0"
       inkscape:vp_z="744.09448 : 526.18109 : 1"
       inkscape:persp3d-origin="372.04724 : 350.78739 : 1"
       id="perspective2931" />
    <inkscape:perspective
       id="perspective2941"
       inkscape:persp3d-origin="0.5 : 0.33333333 : 1"
       inkscape:vp_z="1 : 0.5 : 1"
       inkscape:vp_y="0 : 1000 : 0"
       inkscape:vp_x="0 : 0.5 : 1"
       sodipodi:type="inkscape:persp3d" />
    <inkscape:perspective
       id="perspective3912"
       inkscape:persp3d-origin="0.5 : 0.33333333 : 1"
       inkscape:vp_z="1 : 0.5 : 1"
       inkscape:vp_y="0 : 1000 : 0"
       inkscape:vp_x="0 : 0.5 : 1"
       sodipodi:type="inkscape:persp3d" />
  </defs>
  <sodipodi:namedview
     id="base"
     pagecolor="#ffffff"
     bordercolor="#666666"
     borderopacity="1.0"
     inkscape:pageopacity="0.0"
     inkscape:pageshadow="2"
     inkscape:zoom="1.28"
     inkscape:cx="255.55281"
     inkscape:cy="259.58201"
     inkscape:document-units="px"
     inkscape:current-layer="layer1"
     showgrid="false"
     inkscape:window-width="1280"
     inkscape:window-height="999"
     inkscape:window-x="1280"
     inkscape:window-y="0"
     inkscape:window-maximized="1" />
  <metadata
     id="metadata2928">
    <rdf:RDF>
      <cc:Work
         rdf:about="">
        <dc:format>image/svg+xml</dc:format>
        <dc:type
           rdf:resource="http://purl.org/dc/dcmitype/StillImage" />
      </cc:Work>
    </rdf:RDF>
  </metadata>
  <g
     inkscape:label="Layer 1"
     inkscape:groupmode="layer"
     id="layer1"
     transform="translate(-119.2319,-138.61215)">
    <g
       id="g4051">
      <path
         id="path4045"
         d="m 369.6868,653.38165 c -2.23598,-1.35247 -8.93617,-3.28165 -16.43433,-4.73193 -11.11324,-2.14949 -15.63736,-3.94233 -22.64394,-8.97341 -4.89498,-3.51485 -11.33533,-6.85887 -16.76908,-8.70701 -7.14602,-2.43051 -18.57284,-4.06654 -25.37806,-3.63349 l -4.65691,0.29634 2.02031,-1.26664 c 1.11117,-0.69665 5.65685,-3.05305 10.10152,-5.23644 13.40845,-6.58674 33.28812,-13.03475 45.70941,-14.82593 2.91681,-0.42062 6.89429,-1.10745 8.83883,-1.52631 8.8093,-1.89753 28.60871,-3.24735 56.31601,-3.83933 22.35693,-0.47766 28.67346,-0.87561 40.91117,-2.57743 15.49496,-2.15478 22.21961,-4.20554 29.74177,-9.07007 6.54645,-4.23355 9.39585,-7.5362 9.05315,-10.49323 -0.27198,-2.34687 -1.65829,-1.91284 -3.32541,1.04114 -0.83917,1.48691 -2.32972,3.31669 -3.31236,4.06618 -4.12224,3.14419 -10.41051,6.51724 -14.69957,7.88491 -4.76162,1.51835 -16.89523,3.64949 -26.04387,4.57431 -2.91682,0.29486 -6.32608,0.65592 -7.57615,0.80236 -1.25006,0.14643 -11.93242,0.47608 -23.73858,0.73255 -29.13989,0.63303 -48.0518,1.93747 -58.58885,4.04115 -2.63902,0.52687 -7.18463,1.31174 -10.10136,1.74414 -14.27943,2.11696 -38.52747,10.73451 -52.1989,18.55105 -5.09265,2.91168 -10.93512,6.85972 -10.937,7.39065 -5.1e-4,0.18686 -1.22141,0.9773 -2.71279,1.75653 -1.49137,0.77923 -3.92323,2.502 -5.40414,3.82839 l -2.69254,2.41161 -2.04454,-1.34287 c -1.1245,-0.73858 -3.23722,-1.84239 -4.69494,-2.45293 -3.38515,-1.4178 -15.02992,-4.61859 -16.80285,-4.61859 -1.6073,0 -2.46911,-0.89272 -4.20293,-4.35363 -2.14274,-4.27719 -4.63406,-5.9303 -13.94017,-9.24998 -5.63572,-2.01037 -9.6974,-4.33603 -10.63616,-6.09012 -0.28487,-0.53228 -1.78977,-2.73973 -3.34424,-4.90543 -3.95898,-5.51573 -7.42636,-12.93242 -13.29315,-28.43385 -6.26072,-16.54229 -7.96348,-20.01278 -11.68516,-23.81624 -3.8121,-3.89586 -7.17784,-5.46671 -11.72714,-5.47325 -5.48749,-0.008 -8.36457,1.7492 -24.85488,15.17948 -11.83257,9.63684 -14.34147,11.07955 -19.26758,11.07955 l -2.70187,0 7.13555,-8.71257 c 9.23633,-11.27763 8.58093,-10.60706 24.17781,-24.73784 12.64409,-11.45557 31.59187,-29.87778 43.4889,-42.28263 5.23764,-5.4612 5.40457,-5.584 7.57614,-5.57315 3.36331,0.0168 6.23072,1.61554 10.7478,5.99248 3.89185,3.77111 13.7797,12.10221 17.94335,15.11835 l 1.92912,1.39744 -3.22065,4.01888 c -3.309,4.12913 -3.73627,5.42069 -1.88129,5.68671 0.8002,0.11475 1.8845,-0.83898 4.37146,-3.84501 5.84355,-7.06323 16.37702,-18.04598 21.70237,-22.62804 2.84712,-2.44973 7.79035,-6.85184 10.98496,-9.78247 13.85689,-12.71187 22.80455,-19.70802 25.20541,-19.70802 1.86955,0 4.56429,1.90819 11.05566,7.82869 6.62338,6.04091 9.14613,7.38881 19.80239,10.58039 7.62998,2.28519 15.00273,5.82222 14.79391,7.09728 -0.0455,0.27779 -3.10863,2.25935 -6.80697,4.40347 -5.50629,3.19229 -6.72424,4.10588 -6.72424,5.04385 0,0.68077 0.35166,1.21317 0.86686,1.31239 1.67126,0.32185 18.30171,-9.89678 27.66994,-17.0019 2.36124,-1.79082 5.42957,-3.7873 6.81853,-4.43663 2.81407,-1.31556 6.393,-1.53073 8.25794,-0.49646 2.05857,1.14164 6.08438,6.31532 12.62602,16.22604 5.45853,8.26978 7.16325,10.41814 12.33113,15.54013 10.25983,10.16874 13.30773,12.07067 26.55449,16.57039 8.67469,2.94665 9.65822,3.56724 18.47706,11.65879 3.0755,2.82186 6.54683,5.49171 8.2344,6.3332 2.89096,1.44155 2.99089,1.45363 10.99868,1.32921 4.44468,-0.0691 8.64944,-0.26664 9.34392,-0.43906 0.69448,-0.17243 2.77797,-1.77574 4.62999,-3.5629 5.8823,-5.67632 12.31537,-7.70621 22.48332,-7.09439 2.82838,0.17019 7.77961,0.86798 11.00275,1.55066 8.01477,1.69757 26.39218,2.73575 33.33146,1.88296 6.03436,-0.74158 20.78881,-5.36828 38.91164,-12.20192 24.74094,-9.32914 33.50332,-11.30162 42.33035,-9.5289 2.60023,0.5222 3.52043,1.44088 1.45521,1.45281 -1.8397,0.0106 -6.59027,2.75491 -12.42464,7.17741 -15.75,11.93862 -22.15812,17.75886 -44.56769,40.47902 -20.75749,21.04518 -20.95406,21.19969 -38.81608,30.51201 -10.929,5.6978 -14.65867,7.79224 -18.16989,10.20351 -3.01654,2.07156 -36.84562,17.08071 -49.76287,22.07858 -11.70913,4.53044 -29.82942,9.85921 -44.20975,13.00112 -4.45325,0.97297 -9.11257,2.13511 -10.35407,2.58254 -4.26461,1.53694 -14.89294,3.68971 -22.20778,4.49818 -4.02798,0.4452 -8.58524,0.98437 -10.12724,1.19816 -2.25423,0.31255 -3.08668,0.21751 -4.24808,-0.48499 z m -85.70018,-48.58567 c 0.88572,-1.06723 -0.2776,-2.02222 -4.36113,-3.58016 -4.00135,-1.5266 -5.32746,-1.44165 -5.07407,0.32502 0.1258,0.87716 0.94636,1.4337 3.69722,2.50764 4.03036,1.57346 4.95277,1.69362 5.73798,0.7475 z m 8.50104,-3.9129 c 3.27281,-2.86203 3.90431,-3.72688 3.49677,-4.78891 -0.51046,-1.33025 -1.93526,-0.75427 -5.17914,2.09369 -3.27881,2.87865 -3.67502,3.58613 -2.60664,4.6545 0.90965,0.90966 1.11617,0.81532 4.28901,-1.95928 z m -22.15884,-2.61166 c -0.20556,-1.44734 -6.96569,-5.15739 -8.50636,-4.6684 -2.05873,0.65342 -1.13749,2.18425 2.41032,4.00525 4.12798,2.11879 6.3369,2.35909 6.09604,0.66315 z m 33.74897,-7.74512 c 1.84702,-1.6216 3.21274,-3.23188 3.21274,-3.78807 0,-0.53209 -0.0951,-0.96744 -0.21123,-0.96744 -0.11618,0 -0.54223,-0.12702 -0.94679,-0.28227 -0.7216,-0.2769 -6.21962,4.10641 -7.08937,5.652 -0.44182,0.78515 0.401,2.20641 1.30842,2.20641 0.28242,0 1.95922,-1.26928 3.72623,-2.82063 l 0,0 z m -47.04235,0.49437 c 0,-1.21115 -5.54863,-6.24829 -6.89076,-6.25555 -0.45642,-0.003 -0.98457,0.39326 -1.17368,0.8794 -0.48184,1.2387 5.4157,6.81709 6.97262,6.59527 0.72414,-0.10316 1.09182,-0.51372 1.09182,-1.21912 z m 58.74943,-10.69625 c 2.38482,-2.15789 3.10492,-3.11071 2.85015,-3.77128 -0.52753,-1.36782 -1.67038,-1.06664 -4.63687,1.22199 -3.12794,2.41319 -4.22084,3.77182 -3.83756,4.77064 0.53221,1.38692 2.49198,0.6129 5.62428,-2.22135 l 0,0 z m -69.10349,0.3907 c 0,-1.18844 -3.97147,-7.41151 -4.98851,-7.8167 -0.75366,-0.30027 -2.08256,0.57088 -2.08256,1.36521 0,0.27004 1.05302,2.06049 2.34005,3.97877 1.79285,2.6722 2.61959,3.48778 3.53553,3.48778 0.86069,0 1.19549,-0.28427 1.19549,-1.01506 z m 79.83427,-9.31525 c 3.37372,-3.4812 4.20804,-5.83213 2.06975,-5.83213 -1.20556,0 -7.17936,6.41397 -6.8276,7.33067 0.54719,1.42593 2.52843,0.80192 4.75785,-1.49854 z m -87.7401,-3.03532 c 0.15591,-0.40628 -0.39928,-2.24448 -1.23376,-4.08488 -1.71019,-3.77175 -1.61883,-4.09546 1.56054,-5.52916 1.52745,-0.68878 2.02321,-1.20294 2.02321,-2.09832 0,-1.65989 -2.28973,-1.59299 -4.84577,0.14158 -4.09751,2.78064 -4.13608,4.24447 -0.29447,11.17308 0.71067,1.28174 2.36076,1.51694 2.79025,0.3977 l 0,0 z m 94.52641,-7.3425 c 0,-1.2078 -0.17977,-1.28205 -4.13483,-1.70784 -4.65034,-0.50064 -5.71416,-0.28393 -5.71416,1.16402 0,0.74055 0.42967,1.07261 1.6415,1.2686 0.90282,0.14602 2.20971,0.35779 2.90419,0.47062 0.69448,0.11282 2.17183,0.17412 3.28299,0.13621 1.7999,-0.0614 2.02031,-0.20668 2.02031,-1.33161 z m -14.69465,-1.65766 c 0.78131,-1.23863 0.005,-1.76043 -4.40628,-2.95938 -4.19554,-1.14048 -5.39527,-1.01905 -5.39527,0.54604 0,0.82061 0.69095,1.21315 3.6618,2.08031 2.01399,0.58785 3.88909,1.14367 4.16688,1.23514 0.81243,0.26749 1.40643,-0.004 1.97287,-0.90211 z m -64.47213,-5.70481 c 1.49152,-0.97728 1.39984,-3.03057 -0.1302,-2.91587 -1.65814,0.12429 -8.00396,2.97548 -8.2473,3.70553 -0.124,0.37199 0.16491,0.96178 0.64201,1.31065 0.70999,0.51915 1.38243,0.45713 3.70428,-0.34171 1.56026,-0.5368 3.3743,-1.32818 4.03121,-1.7586 l 0,0 z m 50.07176,1.61811 c 0.98515,-1.18704 0.16926,-2.02871 -3.61462,-3.72886 -4.01682,-1.80481 -5.17758,-1.998 -5.58743,-0.92994 -0.44069,1.14842 0.71351,2.18588 4.20442,3.77916 3.81189,1.73978 4.22363,1.81225 4.99763,0.87964 z m -40.2267,-8.95184 c 2.02846,-1.78811 2.90419,-2.92821 2.90419,-3.78093 0,-2.10918 -1.96543,-1.49798 -5.17703,1.60993 -5.03503,4.87247 -2.9985,6.81775 2.27284,2.171 z m 26.89531,1.31871 c 0,-1.22864 -6.85686,-5.59751 -8.06035,-5.13569 -1.68046,0.64485 -0.79572,2.24744 2.37824,4.30791 3.4504,2.23992 5.68211,2.56504 5.68211,0.82778 z m -12.37606,-7.96198 c -10e-4,-0.82458 -0.8598,-1.7243 -3.12873,-3.27872 l -3.12703,-2.1423 -1.16442,1.09392 c -0.64043,0.60165 -1.16442,1.63964 -1.16442,2.30663 0,1.02772 0.21641,1.19001 1.41865,1.06391 0.81996,-0.086 2.15216,0.32063 3.15673,0.96357 2.33613,1.49516 4.01145,1.49222 4.00922,-0.007 l 0,10e-6 z"
         style="fill:#e5f4f8;fill-opacity:1;stroke:#e5f4f8;stroke-width:1.01015258;stroke-linecap:square;stroke-linejoin:miter;stroke-miterlimit:4;stroke-opacity:1;stroke-dasharray:none;stroke-dashoffset:0" />
      <path
         id="path4047"
         d="m 359.31339,663.31372 c -9.66195,-1.76442 -14.59558,-3.04918 -24.4962,-6.37906 -9.62901,-3.23851 -13.68212,-5.18723 -22.91036,-11.0152 -9.20526,-5.81346 -15.20119,-8.53806 -21.1722,-9.6208 -2.8862,-0.52337 -3.27064,-0.47706 -5.52125,0.66516 -1.33048,0.67523 -4.8309,2.81826 -7.77872,4.76228 -2.94782,1.94402 -6.46243,4.02238 -7.81023,4.61857 -1.3478,0.59621 -2.79979,1.39967 -3.22662,1.78547 -0.66799,0.60378 -1.30362,0.4937 -4.56414,-0.79046 -2.08344,-0.82055 -7.42463,-2.63061 -11.8693,-4.02235 -4.44467,-1.39173 -10.03043,-3.22088 -12.4128,-4.06476 -4.02153,-1.4245 -4.37934,-1.66636 -4.9986,-3.3789 -0.95112,-2.63031 -5.76129,-7.19815 -9.35726,-8.88587 -1.66654,-0.78216 -5.41673,-2.27362 -8.33375,-3.31435 -2.91703,-1.04072 -6.26193,-2.38123 -7.43311,-2.9789 -4.74411,-2.421 -13.38504,-15.17306 -17.16205,-25.32731 -0.67164,-1.80565 -2.44748,-5.78313 -3.94632,-8.83884 -1.49884,-3.05571 -3.6144,-7.94232 -4.70125,-10.85914 -3.108,-8.34109 -3.58874,-9.15336 -5.90107,-9.97066 -2.3836,-0.8425 -7.10585,-0.5306 -9.32265,0.61576 -0.80775,0.4177 -5.85913,3.62573 -11.22528,7.12895 -5.36616,3.50323 -11.00671,6.9323 -12.53457,7.62017 -6.01263,2.707 -12.57985,3.01881 -17.09431,0.81163 -1.68287,-0.82277 -1.85944,-1.10947 -1.99761,-3.24344 l -0.15157,-2.34089 5.20233,-0.21184 c 4.046,-0.16475 5.66373,-0.45261 7.27818,-1.29509 2.48079,-1.29458 9.376,-6.47342 19.45612,-14.61307 4.06441,-3.28199 9.01083,-6.93322 10.99205,-8.11384 3.12237,-1.86062 3.98821,-2.14594 6.49977,-2.14183 6.86023,0.0112 12.33798,5.74847 16.73961,17.53262 8.51637,22.80026 12.23281,31.42929 15.83142,36.75834 6.66066,9.8635 7.59444,10.71291 14.72155,13.39129 2.25076,0.84585 5.42085,2.04266 7.04465,2.6596 3.85069,1.46301 6.65246,3.90241 7.95217,6.92366 1.48828,3.4596 2.83613,4.53366 6.33208,5.04581 3.58068,0.52457 14.70975,3.70736 16.98816,4.85844 0.8996,0.45449 2.84076,1.72535 4.31368,2.82415 l 2.67803,1.9978 3.58136,-3.37846 c 4.26022,-4.01889 9.02941,-6.46477 14.73365,-7.55617 5.2407,-1.00271 9.325,-0.94853 17.33508,0.22996 11.03338,1.62329 19.00393,4.82843 27.95949,11.24314 6.38013,4.56998 13.21339,7.36373 21.40406,8.75099 6.54075,1.10779 12.74895,2.70002 15.82257,4.05803 l 2.65166,1.17157 0,4.0684 0,4.0684 -1.6415,-0.048 c -0.90283,-0.0264 -4.48255,-0.56684 -7.95495,-1.20095 l 0,2e-5 z"
         style="fill:#afe9dd;fill-opacity:1;stroke:#afe9dd;stroke-width:1.01015258;stroke-linecap:square;stroke-linejoin:miter;stroke-miterlimit:4;stroke-opacity:1;stroke-dasharray:none;stroke-dashoffset:0" />
      <path
         id="path4049"
         d="m 372.57164,665.23834 c -0.42977,-0.17342 -0.63135,-1.51978 -0.63135,-4.21694 l 0,-3.96217 2.65165,-0.28327 c 16.80742,-1.79545 25.43143,-3.26729 31.50324,-5.37659 1.63252,-0.56712 6.60477,-1.82788 11.04944,-2.80169 14.93146,-3.2714 33.4025,-8.72106 45.7094,-13.48599 5.00524,-1.93791 31.65413,-13.43833 39.79142,-17.17212 3.96769,-1.82058 9.19523,-4.55803 11.61675,-6.08323 2.42152,-1.5252 8.8348,-5.08581 14.25175,-7.91247 20.21728,-10.54975 22.45881,-12.24647 38.44989,-29.10463 18.08676,-19.06746 30.21641,-30.20568 45.97114,-42.21366 8.93459,-6.80978 11.41466,-7.9694 17.1917,-8.0384 3.31205,-0.0396 5.88841,1.0331 8.31884,3.46352 1.61122,1.61123 1.69028,1.86442 1.69028,5.41295 l 0,3.72265 -2.77462,-1.5028 c -3.28552,-1.77951 -7.26313,-2.32591 -10.676,-1.46654 -2.91274,0.73344 -11.25305,5.62302 -17.24644,10.11087 -5.91613,4.43 -20.85084,19.43923 -24.61556,24.73837 -5.91639,8.32778 -14.56397,16.54629 -28.0898,26.69603 -2.32557,1.74509 -5.59202,4.32074 -7.25877,5.72366 -4.89447,4.11969 -13.74357,9.80207 -21.27277,13.66014 -3.85633,1.97603 -10.19348,5.25021 -14.08257,7.27595 -3.88908,2.02573 -10.25304,5.0883 -14.14213,6.80569 -6.41351,2.83215 -31.16173,12.41824 -39.90103,15.45544 -11.86977,4.12514 -29.92391,9.88119 -33.58757,10.70844 -2.36123,0.53316 -8.81914,2.12721 -14.35091,3.54233 -17.3308,4.4335 -36.59537,7.50312 -39.56598,6.30446 z"
         style="fill:#afe9dd;fill-opacity:1;stroke:#afe9dd;stroke-width:1.01015258;stroke-linecap:square;stroke-linejoin:miter;stroke-miterlimit:4;stroke-opacity:1;stroke-dasharray:none;stroke-dashoffset:0" />
    </g>
    <path
       style="fill:#0044aa;fill-opacity:1;stroke:#0044aa;stroke-width:1.01015258;stroke-linecap:square;stroke-linejoin:miter;stroke-miterlimit:4;stroke-opacity:1;stroke-dasharray:none;stroke-dashoffset:0"
       d="m 245.92376,656.04247 c -3.02316,-1.37951 -6.06005,-4.83886 -8.65947,-9.8641 -1.87629,-3.62725 -2.14232,-4.43778 -1.37845,-4.19971 15.20203,4.73775 25.18112,8.15596 26.0842,8.93481 0.48158,0.41533 -4.13717,3.63413 -7.20744,5.02285 -2.81853,1.27486 -6.18893,1.31533 -8.83884,0.10615 z"
       id="path4056" />
    <g
       id="g3982">
      <path
         id="path3955"
         d="m 375.47056,298.67217 c -0.24453,-0.29465 -0.81394,-0.53572 -1.26534,-0.53572 -2.21036,0 -11.71611,-1.91734 -15.07033,-3.03973 -6.93372,-2.32016 -10.80443,-5.09293 -16.6622,-11.9359 -10.3024,-12.03513 -12.34617,-17.13944 -11.62875,-29.04271 0.63635,-10.55828 2.56814,-16.5825 7.88152,-24.5783 2.95999,-4.45431 9.07233,-10.56092 13.53082,-13.51813 1.86607,-1.23773 4.14437,-2.8 5.06289,-3.47172 4.59083,-3.35731 10.46895,-5.08754 18.29032,-5.38378 7.2982,-0.27642 14.12454,0.77731 18.99793,2.93255 9.16952,4.05519 17.59845,14.47469 22.78995,28.17199 2.65049,6.99306 2.88375,8.20088 2.87099,14.86573 -0.009,4.88002 -0.14853,6.44381 -0.80983,9.09839 -1.53588,6.1654 -3.54865,10.70283 -7.31611,16.4929 -4.25405,6.5379 -9.25834,10.13442 -20.36406,14.63538 -2.1925,0.88859 -5.59351,2.30913 -7.5578,3.15676 -3.65401,1.57678 -6.87489,2.688 -7.79123,2.688 -0.28279,0 -0.71423,-0.24107 -0.95877,-0.53571 z"
         style="fill:#ffff00;fill-opacity:1;stroke:#ffff00;stroke-width:0.71428573;stroke-linecap:round;stroke-linejoin:miter;stroke-miterlimit:4;stroke-opacity:1;stroke-dasharray:none;stroke-dashoffset:0" />
      <path
         id="path3957"
         d="m 378.15625,142.5625 c -0.31603,0.0776 -1.32451,0.77773 -2.40625,1.71875 -1.23626,1.07546 -3.52232,2.89272 -5.09375,4.03125 -1.57142,1.13853 -2.98942,2.19621 -3.15625,2.34375 -0.16684,0.14753 0.66576,0.70732 1.875,1.25 3.59436,1.61305 4.22033,3.46717 1.9375,5.75 -1.49803,1.49804 -2.619,3.77902 -2.625,5.3125 -0.007,1.61068 1.4748,4.45999 4.59375,8.875 2.87851,4.07466 4.34375,6.82947 4.34375,8.25 0,1.80944 -1.30014,4.5725 -3.59375,7.65625 -1.33448,1.79422 -2.58034,3.70491 -2.78125,4.28125 -0.32596,0.93505 -0.28756,1.08368 0.40625,1.21875 0.42764,0.0832 1.20982,0.1607 1.75,0.1875 0.86258,0.0427 1,-0.0654 1,-1 0,-1.5886 0.95376,-3.77556 3.25,-7.28125 2.09092,-3.19223 2.70826,-4.89189 2.3125,-6.46875 -0.12068,-0.4808 -1.09722,-1.88576 -2.1875,-3.125 -3.47917,-3.95451 -5.53125,-8.47798 -5.53125,-12.28125 0,-3.21633 2.32084,-8.31999 4.15625,-9.15625 0.68598,-0.31256 1.41878,-0.30826 3.0625,0.0313 1.18759,0.2453 2.2005,0.40485 2.25,0.34375 0.13786,-0.1702 -3.23561,-11.67311 -3.5,-11.9375 -0.016,-0.016 -0.0174,-0.0111 -0.0625,0 z m 43.25,3.15625 c -1.09042,0.0666 -2.53099,0.30629 -4.25,0.6875 -0.93303,0.20691 -1.6875,0.41945 -1.6875,0.46875 0,0.73693 1.05391,2.58516 2,3.53125 1.10366,1.10367 1.18689,1.32816 0.84375,2.3125 -0.28968,0.83098 -0.99487,1.37307 -2.96875,2.40625 -2.67527,1.40029 -5.7022,3.51233 -6.75,4.6875 -1.00661,1.12899 -2.02797,3.78245 -2.28125,5.9375 -0.13088,1.11354 -0.0278,4.01927 0.21875,6.4375 0.4379,4.29486 0.43715,4.40681 -0.34375,5.9375 -0.43969,0.86185 -2.26088,3.59666 -4.03125,6.0625 -3.68353,5.13057 -4.54104,6.8729 -4.8125,9.75 l -0.1875,2.0625 1.21875,0.5 c 2.31263,1.00382 2.68852,0.80772 2.90625,-1.5 0.31795,-3.37005 1.36676,-5.21351 4.875,-8.625 2.75409,-2.67813 3.21069,-3.31547 3.6875,-5.03125 0.95381,-3.43227 1.04795,-5.03213 0.59375,-11.65625 l -0.46875,-6.46875 1.1875,-1.84375 c 2.94769,-4.59356 8.0217,-7.12746 11.5625,-5.78125 l 0.84375,0.34375 0.0625,-4.3125 c 0.0249,-2.36581 0.13874,-4.58695 0.25,-4.9375 0.23786,-0.74943 -0.65138,-1.07977 -2.46875,-0.96875 z m -99.25,5.71875 c -0.0708,0.022 -0.13231,0.0577 -0.15625,0.125 -0.0784,0.22044 -1.08432,1.82299 -2.25,3.53125 l -2.125,3.09375 1.96875,-0.25 c 1.54343,-0.19284 2.13699,-0.10857 2.875,0.375 0.8781,0.57535 0.93933,0.71012 0.6875,2.4375 -0.94827,6.50429 -0.47445,7.40552 6.78125,12.21875 7.79827,5.17315 8.81029,6.89276 8.03125,13.65625 -0.37915,3.29174 -0.35267,4.27993 0.125,6.8125 0.77377,4.10254 2.55699,7.65826 5,9.96875 1.08019,1.02161 2.09327,1.875 2.21875,1.875 0.12548,0 1.17915,-0.83082 2.34375,-1.84375 l 2.09375,-1.84375 -1.34375,-0.625 c -1.77768,-0.81557 -3.80379,-2.99944 -4.65625,-5 -1.51365,-3.55224 -1.81264,-7.12428 -1.0625,-12.3125 0.77315,-5.34737 -0.40357,-7.2744 -7.875,-12.96875 -6.22639,-4.74543 -7.51521,-6.43654 -7.8125,-10.21875 -0.14425,-1.83511 -0.0678,-2.2902 0.59375,-3.125 0.42809,-0.54018 1.13876,-1 1.5625,-1 0.55722,0 0.0258,-0.52614 -1.90625,-1.9375 -2.94501,-2.15129 -4.59801,-3.12249 -5.09375,-2.96875 z M 454.1875,176.375 c -0.70425,0.10326 -1.74839,0.84462 -3.75,2.15625 l -4.03125,2.625 2.375,0.40625 c 1.32222,0.21688 2.72503,0.66928 3.125,1.03125 0.75704,0.68511 0.98084,2.64415 0.375,3.25 -0.18711,0.1871 -0.52203,1.52729 -0.75,3 -0.6729,4.34694 -2.8784,7.97917 -6.125,10.0625 -2.24747,1.4422 -4.03476,2.01834 -7.96875,2.65625 -5.91917,0.95982 -10.49999,3.11705 -12.6875,5.9375 -0.94095,1.21321 -2.84375,5.33171 -2.84375,6.15625 0,0.25786 0.43922,0.64272 1,0.875 0.56078,0.23229 2.05631,1.12415 3.3125,1.96875 l 2.28125,1.53125 0.40625,-1.71875 c 1.07234,-4.70939 4.9472,-7.14929 13.84375,-8.75 4.20282,-0.75619 5.92021,-1.60706 7.875,-3.78125 1.85266,-2.0606 2.91736,-4.66655 3.4375,-8.40625 0.20533,-1.47627 0.53041,-3.01873 0.6875,-3.4375 0.15707,-0.41877 0.19275,-2.41972 0.0937,-4.4375 -0.15624,-3.18354 -0.0859,-3.76209 0.46875,-4.375 0.35156,-0.38847 1.00812,-0.6875 1.46875,-0.6875 1.09795,0 1.04483,-0.55181 -0.25,-3.09375 -1.10983,-2.17876 -1.43829,-3.10151 -2.34375,-2.96875 z M 281.09375,187 280.375,188.1875 c -0.39887,0.65606 -1.38846,2.01785 -2.21875,3 -1.46269,1.73019 -2.52338,3.34854 -2.28125,3.53125 0.065,0.0491 1.53125,0.8547 3.25,1.78125 l 3.125,1.6875 0,-1.09375 c 0,-1.37277 0.59059,-2.63908 1.46875,-3.1875 0.88261,-0.5512 5.71146,-1.3201 7.875,-1.25 4.22984,0.137 6.1323,3.03883 7.8125,11.90625 0.42802,2.25893 1.09748,5.07172 1.5,6.25 2.11168,6.18135 7.64077,11.35258 14.90625,13.9375 2.84975,1.01389 3.9375,1.08987 3.9375,0.28125 0,-0.32787 0.47321,-1.45585 1.0625,-2.5 1.17321,-2.07882 1.30187,-2.615 0.625,-2.625 -0.24554,-0.004 -1.70982,-0.74525 -3.28125,-1.65625 -4.08034,-2.36551 -8.25027,-6.59477 -10.03125,-10.21875 -1.25662,-2.55701 -1.37723,-3.12837 -1.5625,-6.625 -0.17426,-3.28898 -0.32686,-4.02669 -1.15625,-5.4375 -1.13699,-1.93403 -3.25298,-3.94994 -5.25,-4.96875 -3.66045,-1.86742 -9.83452,-2.29335 -14.96875,-1.0625 -1.63298,0.39148 -3.11569,0.6875 -3.28125,0.6875 -0.16555,0 -0.42499,-0.81269 -0.5625,-1.8125 l -0.25,-1.8125 z m 194.8125,52.375 c -0.091,0.091 0.11791,0.96186 0.46875,1.9375 1.24738,3.46886 -0.0899,5.03325 -4.84375,5.6875 -3.64875,0.50217 -6.04125,-0.29515 -11.40625,-3.875 -3.19982,-2.13511 -4.85026,-2.84375 -6.625,-2.84375 -1.93857,0 -2.37617,0.21122 -4.375,2.0625 -2.44108,2.26088 -5.12932,3.37918 -8.46875,3.5625 l -2.875,0.15625 -0.84375,2.375 c -0.46165,1.30349 -0.89858,2.74554 -1,3.1875 -0.17543,0.76448 -0.0992,0.8125 1.9375,0.8125 2.52894,0 3.81662,-0.516 7.71875,-2.96875 4.13455,-2.59884 5.98653,-3.24275 8.6875,-3.03125 1.71585,0.13435 2.54445,0.42364 3.75,1.28125 4.39677,3.12778 7.59455,4.02371 12.1875,3.375 2.27137,-0.32081 3.65359,-0.81266 6.09375,-2.0625 1.73885,-0.89063 3.26461,-1.525 3.40625,-1.4375 0.14164,0.0875 0.48744,0.79818 0.75,1.59375 0.53786,1.62974 0.90774,1.83564 1.21875,0.65625 0.11655,-0.44196 0.93009,-1.76877 1.8125,-2.9375 l 1.59375,-2.125 -1.03125,-0.4375 c -0.57421,-0.24144 -2.62421,-1.48815 -4.53125,-2.78125 -1.90705,-1.2931 -3.534,-2.2785 -3.625,-2.1875 z M 284,239.59375 c -3.57595,0.11581 -7.00113,1.45856 -9.8125,4 -3.1216,2.82189 -5.48115,3.20635 -7.5,1.1875 -0.66786,-0.66786 -1.21875,-1.48739 -1.21875,-1.8125 0,-0.39178 -0.94673,0.23256 -2.78125,1.84375 -1.52233,1.33699 -3.23077,2.79648 -3.8125,3.25 -0.59881,0.46685 -0.88708,0.92304 -0.6875,1.0625 0.19388,0.13548 2.00502,1.42909 4.0625,2.84375 2.05748,1.41465 4.16518,2.8889 4.65625,3.28125 l 0.875,0.71875 0.28125,-2.03125 c 0.27959,-2.13746 0.98294,-3.20894 2.28125,-3.40625 0.42506,-0.0646 2.05452,-1.11787 3.59375,-2.34375 1.53923,-1.22589 3.81855,-2.74431 5.09375,-3.375 2.07775,-1.02762 2.6629,-1.132 5.4375,-1.125 2.98018,0.008 3.15503,0.0418 5,1.3125 6.71223,4.62289 13.92741,5.97216 21.96875,4.125 1.87453,-0.43059 3.4719,-0.95149 3.5625,-1.1875 0.26736,-0.69671 -2.32656,-5.5 -2.96875,-5.5 -0.31361,0 -2.58172,0.4799 -5.0625,1.09375 -5.32693,1.31809 -8.3678,1.29722 -11.125,-0.125 -0.89997,-0.46423 -2.43174,-1.28839 -3.4375,-1.8125 -2.74801,-1.43201 -5.62496,-2.09007 -8.40625,-2 z m 33.125,27.71875 -2.71875,0.25 c -5.45875,0.44634 -10.06101,2.5912 -12.75,5.96875 -1.12813,1.41701 -1.78375,2.90801 -2.625,6.03125 -0.64088,2.37931 -3.14086,4.7455 -5.84375,5.53125 -2.67005,0.7762 -5.13277,0.54198 -9.375,-0.9375 -2.46486,-0.85962 -3.49456,-1.06234 -4.8125,-0.90625 -4.76802,0.5647 -9.53521,5.38826 -12.125,12.25 -0.62331,1.65149 -1.26937,3 -1.40625,3 -0.13687,0 -1.21747,-0.89296 -2.40625,-1.96875 l -2.15625,-1.9375 -0.25,4.0625 c -0.14028,2.24523 -0.13429,4.73641 0,5.53125 l 0.21875,1.4375 4.84375,0 4.8125,0 -1.28125,-1.5 c -2.5114,-2.93401 -2.45095,-5.26748 0.25,-8.375 2.12993,-2.45053 2.69615,-2.88813 4.90625,-3.96875 1.84278,-0.90101 2.25808,-0.9507 6.78125,-0.9375 2.65178,0.008 6.91518,0.0659 9.46875,0.15625 l 4.625,0.1875 2.59375,-1.21875 c 3.31998,-1.55601 4.80367,-3.1782 7.21875,-7.90625 3.47058,-6.79442 5.37678,-8.375 10.09375,-8.375 3.19382,0 3.1121,0.13869 2.34375,-4.03125 L 317.125,267.3125 z m 110.75,6.84375 -0.84375,1.25 c -0.97138,1.42951 -1.07814,2.21819 -0.34375,2.5 0.27964,0.10731 1.13374,1.04804 1.90625,2.09375 2.74052,3.70969 6.18958,4.79276 14.0625,4.4375 l 5.25,-0.25 1.1875,1 c 1.90453,1.58257 2.61194,2.53011 5.09375,6.71875 3.62085,6.11102 4.93306,7.03815 9.71875,6.90625 3.85212,-0.10616 4.48748,0.36528 4.71875,3.5625 l 0.15625,2.125 1.59375,-1.03125 c 0.88944,-0.56406 2.61261,-1.34736 3.8125,-1.75 1.1999,-0.40263 2.39768,-0.86729 2.65625,-1.03125 0.36295,-0.23015 -0.0736,-1.4162 -1.90625,-5.21875 l -2.375,-4.9375 L 471,292.3125 c -0.86075,0.98396 -2.13699,2.05445 -2.8125,2.375 -1.81991,0.8636 -5.05822,0.7631 -7,-0.21875 -1.50339,-0.76019 -1.77977,-1.10704 -4.71875,-6.8125 -3.23841,-6.28674 -4.51189,-8.03271 -6.875,-9.25 -1.61855,-0.83374 -2.68777,-0.83859 -8.34375,-0.125 -6.47454,0.81686 -10.55443,-0.16728 -12.59375,-3.03125 l -0.78125,-1.09375 z m -94.125,25 -1.71875,0.90625 c -2.27531,1.19314 -2.75058,1.60808 -3.65625,3.09375 -1.09436,1.79519 -0.95405,3.6965 0.6875,10.1875 1.65806,6.55626 1.83593,9.42489 0.78125,11.46875 -0.9568,1.85418 -2.44663,2.79721 -6.65625,4.09375 -4.89585,1.5079 -5.9794,2.10334 -7.90625,4.46875 -2.18574,2.68322 -2.65695,3.7008 -4.46875,9.40625 -0.84209,2.65178 -1.64094,4.96097 -1.78125,5.125 -0.1403,0.16404 -0.91436,-0.11721 -1.71875,-0.625 -1.41203,-0.89137 -2.1875,-1.14762 -2.1875,-0.71875 0,0.11308 0.96208,2.12647 2.15625,4.46875 1.19416,2.34228 2.31197,4.25 2.46875,4.25 0.15678,0 0.49276,-0.25253 0.75,-0.5625 0.68013,-0.8195 3.42638,-2.13156 5.875,-2.8125 1.17019,-0.32542 2.36937,-0.68675 2.65625,-0.78125 0.32053,-0.10555 -0.31686,-0.622 -1.625,-1.34375 -2.6176,-1.44424 -3.84877,-3.08317 -3.625,-4.84375 0.60632,-4.77055 1.67149,-7.43091 3.75,-9.40625 1.69562,-1.61148 6.23959,-3.68704 10.5,-4.78125 4.7289,-1.21454 6.53785,-2.4861 7.09375,-5 0.32831,-1.48469 0.28605,-2.01444 -1.25,-10.125 -0.98042,-5.17671 -0.48762,-7.3852 2.1875,-9.53125 L 337.4375,305 336.375,302.8125 c -0.57265,-1.19813 -1.37866,-2.49869 -1.8125,-2.90625 l -0.8125,-0.75 z m 75.46875,5.09375 c -0.42806,-0.0584 -1.17651,0.18397 -2.5,0.65625 -1.67855,0.599 -1.7756,0.70607 -1.6875,1.78125 0.12958,1.58066 1.26344,3.69312 2.59375,4.8125 0.61329,0.51605 2.9886,1.88936 5.28125,3.0625 2.29264,1.17314 5.0862,2.84889 6.1875,3.71875 2.45803,1.94146 2.73304,2.84159 3.1875,10.21875 0.17546,2.84822 0.49002,5.73481 0.6875,6.40625 0.52193,1.77462 1.99407,3.83867 2.9375,4.125 0.44953,0.13642 1.17268,0.58386 1.59375,0.96875 1.18994,1.0877 0.63271,2.35321 -1.65625,3.84375 l -1.90625,1.25 1.5625,0.46875 c 0.86505,0.25637 2.45089,0.58518 3.53125,0.75 1.08036,0.16482 2.56752,0.31975 3.28125,0.34375 l 1.28125,0.0625 0.25,-2.40625 c 0.13659,-1.3259 0.57676,-3.91493 0.96875,-5.75 0.39199,-1.83508 0.63025,-3.43225 0.53125,-3.53125 -0.099,-0.099 -0.87012,0.29369 -1.71875,0.875 -2.57545,1.76419 -2.7858,1.76717 -5.1875,-0.40625 -3.08833,-2.79477 -3.87797,-4.78989 -4.96875,-12.40625 -1.31389,-9.17425 -2.42492,-11.07492 -7.15625,-12.25 -4.8556,-1.20595 -6.5625,-2.64458 -6.5625,-5.53125 0,-0.65285 -0.10319,-1.0041 -0.53125,-1.0625 z m -42.8125,9.71875 c -0.25823,0.0991 -0.74611,1.20919 -1.0625,2.46875 -0.88695,3.53098 -0.783,3.75991 4.78125,10.8125 2.20287,2.79209 2.65625,3.96497 2.65625,6.8125 0,2.52102 0.0195,2.53586 -1.71875,4.46875 -5.34282,5.94106 -7.09258,11.85453 -4.78125,16.28125 1.1475,2.19772 1.13559,2.20108 0.28125,3.3125 -0.52638,0.68477 -1.18091,0.94348 -3.21875,1.25 l -2.59375,0.375 3.15625,2.375 c 1.73857,1.30038 3.46955,2.70853 3.84375,3.125 0.37419,0.41647 0.84443,0.75 1.03125,0.75 0.18682,0 1.56101,-1.25211 3.0625,-2.78125 1.50148,-1.52915 3.28125,-3.21883 3.96875,-3.75 l 1.25,-0.96875 -2.03125,0 c -1.97251,-0.004 -2.06728,-0.0541 -2.90625,-1.34375 -2.66906,-4.10263 -1.72075,-9.37915 3,-16.375 3.0815,-4.56658 2.91826,-6.48262 -1,-12 -5.06829,-7.13676 -5.47205,-8.37777 -3.84375,-11.15625 l 0.84375,-1.5 -2.125,-1.15625 c -1.173,-0.64486 -2.33552,-1.0991 -2.59375,-1 z"
         style="fill:#ff6600;fill-opacity:1;stroke:#ff6600;stroke-width:0.71428573;stroke-linecap:square;stroke-linejoin:miter;stroke-miterlimit:4;stroke-opacity:1;stroke-dasharray:none;stroke-dashoffset:0" />
    </g>
    <path
       style="fill:#999999;fill-opacity:1;stroke:#999999;stroke-width:2;stroke-linecap:round;stroke-linejoin:miter;stroke-miterlimit:4;stroke-opacity:1;stroke-dasharray:none;stroke-dashoffset:0"
       d="m 383.15625,375.28125 c -1.03445,-0.0342 -2.27285,0.43242 -4.25,1.34375 -4.22747,1.94856 -6.3094,2.04486 -9.4375,0.40625 -4.24196,-2.22208 -14.3416,-1.18064 -23.53125,2.4375 l -2.5,0.96875 -3.0625,-1.125 c -9.84398,-3.69639 -21.37019,-2.71715 -32.34375,2.78125 L 303,384.625 l -3.53125,-1.71875 c -4.7141,-2.33101 -9.22067,-2.87011 -20.21875,-2.40625 -8.24313,0.34766 -8.70839,0.41885 -12,1.96875 -1.88575,0.88794 -4.43654,2.34282 -5.65625,3.21875 l -2.21875,1.59375 -1.59375,-1.15625 c -2.07333,-1.47634 -8.19898,-2.17412 -16.65625,-1.90625 -5.91856,0.18746 -6.52258,0.32292 -9.8125,1.90625 l -3.53125,1.6875 -3.5625,-0.90625 c -8.23041,-2.03108 -16.82354,-1.49124 -23,1.40625 l -3.28125,1.53125 -10.09375,0.0313 c -9.81142,0.0392 -10.17989,0.0893 -12.625,1.34375 -1.54506,0.79266 -3.0607,2.08529 -3.90625,3.34375 l -1.375,2.0625 -3.09375,-0.71875 c -2.35375,-0.54377 -3.72361,-0.5852 -5.875,-0.1875 -3.10149,0.57335 -7.57061,2.43985 -9.59375,4.03125 l -1.3125,1.03125 2.25,0 c 1.83895,0 2.6341,0.31336 4.3125,1.75 1.95813,1.67609 2.12067,1.74955 3.5,1.0625 0.79562,-0.3963 3.51881,-0.98678 6.0625,-1.3125 7.25993,-0.92964 14.06897,0.62975 17.625,4.0625 l 1.5,1.46875 3.03125,-1.46875 c 4.78278,-2.28655 8.99329,-3.2034 14.65625,-3.1875 6.37717,0.0179 9.85141,1.19915 12.75,4.34375 l 1.96875,2.15625 2.46875,-1.09375 c 9.20829,-4.0283 20.78959,-2.3367 24.59375,3.59375 0.8496,1.32448 1.40922,1.71751 2.1875,1.53125 2.98732,-0.71494 7.13872,1.8419 7.59375,4.6875 0.26457,1.65456 0.60581,2.0239 2.90625,3.125 3.47994,1.66565 4.83022,4.03789 4.03125,7.03125 -0.52939,1.98337 -0.47755,2.12007 0.90625,2.9375 2.09806,1.23935 3.12331,3.71133 2.5,5.96875 l -0.46875,1.8125 1.59375,-0.34375 c 4.9666,-1.05091 10.77505,-4.58286 14.6875,-8.90625 l 2.71875,-3 3.125,0.5 c 6.99116,1.12589 14.11754,-2.00805 16.25,-7.15625 0.38736,-0.93519 0.83148,-1.3182 1.375,-1.15625 8.68209,2.58696 21.96557,1.01335 28.625,-3.375 3.51357,-2.31533 6.8125,-5.77297 6.8125,-7.1875 0,-1.40463 2.42258,-3.58588 4.40625,-3.96875 0.77058,-0.14874 2.68398,-0.53257 4.28125,-0.84375 2.16561,-0.4219 3.57994,-1.11348 5.5,-2.6875 1.41615,-1.16093 3.13028,-2.5735 3.8125,-3.125 1.07665,-0.87033 2.02867,-0.9884 7.15625,-1 7.08611,-0.016 10.21862,-1.02539 14.1875,-4.59375 2.13267,-1.91746 2.69052,-2.19994 3.53125,-1.75 1.43943,0.77037 5.17858,0.6598 7.28125,-0.21875 5.32035,-2.22299 9.03859,-8.7327 6.5625,-11.46875 -0.67315,-0.74381 -1.59034,-0.90625 -4.75,-0.90625 -3.38508,0 -4.11199,-0.15773 -5.34375,-1.1875 -1.21648,-1.01698 -2.0593,-1.55953 -3.09375,-1.59375 z M 144.3125,401 c -3.43581,0 -8.8385,0.87663 -11.8125,1.90625 l -1.4375,0.46875 1.0625,0.5625 c 0.58801,0.30576 1.46283,0.96065 1.9375,1.46875 l 0.875,0.9375 1.1875,-0.90625 c 1.99898,-1.5247 5.52223,-2.9817 8.34375,-3.4375 3.90297,-0.63052 3.83357,-1 -0.15625,-1 z m 7.96875,2.65625 c -0.23337,8.4e-4 -0.45565,0.0634 -0.6875,0.1875 -0.39998,0.21406 -2.20835,0.58122 -4,0.78125 -5.38535,0.60126 -8.87354,2.23226 -11.5,5.4375 -0.73717,0.89962 -1.5149,1.65625 -1.75,1.65625 -0.23511,0 -0.85845,-0.95625 -1.375,-2.125 -1.28865,-2.91566 -2.53286,-3.69125 -5.75,-3.53125 -1.7345,0.0863 -2.65674,0.33945 -3.375,0.875 l -1,0.75 -0.28125,8.34375 c -0.33709,9.87126 -0.12067,18.38392 0.53125,20.84375 l 0.46875,1.75 2.5,0.65625 c 1.375,0.35079 3.78108,0.79953 5.34375,1 2.23159,0.2863 3.09945,0.55896 4.09375,1.34375 5.22521,4.12413 13.24071,6.05634 21.09375,5.09375 2.7561,-0.33783 3.71983,-0.5983 5.125,-1.5 2.14056,-1.37358 4.34252,-1.66419 7,-0.875 2.28893,0.67974 4.25719,0.45051 9.71875,-1.21875 1.88785,-0.57699 3.62127,-1.0625 3.875,-1.0625 0.25374,0 1.36516,0.93304 2.46875,2.0625 2.26605,2.31919 5.37571,4.12189 8.46875,4.90625 2.6977,0.6841 10.46639,0.4627 13.53125,-0.375 1.17857,-0.32213 4.44378,-1.53386 7.28125,-2.71875 4.63483,-1.93544 5.36194,-2.15536 6.9375,-1.96875 0.96457,0.11424 1.97213,0.39439 2.25,0.625 0.36359,0.30175 2.14111,0.36156 6.3125,0.21875 6.09729,-0.20875 9.39663,-0.83989 12.96875,-2.46875 1.48389,-0.67664 2.60836,-0.80233 7.625,-1 6.40911,-0.25254 8.35461,-0.7088 10.09375,-2.375 0.53842,-0.51584 1.13224,-1.48412 1.34375,-2.125 0.507,-1.53623 0.0283,-2.32248 -2.25,-3.5625 -2.28262,-1.24236 -3.09375,-2.06728 -3.09375,-3.1875 0,-0.63652 0.31421,-1.10545 1.0625,-1.53125 1.47185,-0.83752 1.46214,-2.29246 -0.0313,-3.6875 -1.32693,-1.23954 -2.24066,-1.2675 -5.03125,-0.25 -1.15434,0.4209 -2.17629,0.66746 -2.28125,0.5625 -0.10496,-0.10496 0.23159,-1.20581 0.75,-2.4375 1.14617,-2.72318 0.98885,-4.23009 -0.53125,-5.3125 -1.20207,-0.85595 -2.67305,-0.92987 -4.375,-0.21875 -0.67273,0.28106 -1.38432,0.41501 -1.59375,0.28125 -0.20943,-0.13376 -0.80352,-1.08453 -1.3125,-2.09375 -1.14772,-2.27574 -3.32943,-4.18121 -5.9375,-5.1875 -1.54904,-0.59768 -2.78612,-0.77045 -5.5625,-0.78125 -4.95325,-0.0193 -9.42487,1.31875 -12.6875,3.78125 -0.97595,0.7366 -1.9772,1.34675 -2.21875,1.34375 -0.24155,-0.003 -0.83226,-0.92252 -1.3125,-2.03125 -1.0918,-2.52065 -2.76794,-4.24132 -5.3125,-5.40625 -5.31947,-2.43534 -16.19934,-0.71778 -22.6875,3.5625 -1.15185,0.75988 -2.27685,1.384 -2.5,1.375 -0.22315,-0.009 -0.96875,-0.83489 -1.65625,-1.8125 -1.40065,-1.99172 -3.58753,-3.54735 -6.25,-4.4375 -4.33345,-1.4488 -13.14731,-0.83971 -15.125,1.03125 -1.74641,1.65218 -3.4722,1.42008 -5.9375,-0.8125 -1.91062,-1.73027 -2.73738,-2.37753 -3.4375,-2.375 z m 24.125,7.8125 c 0.18793,4.6e-4 0.34914,0.0184 0.46875,0.0937 1.26964,0.79983 0.74031,1.99571 -1.40625,3.25 -4.99694,2.91984 -8.65216,9.5155 -7.9375,14.28125 0.31871,2.12528 2.15495,5.05181 4,6.34375 1.35923,0.95176 1.85166,1.0769 3.9375,1.0625 2.90751,-0.0201 4.73333,-0.8652 6.75,-3.15625 1.39422,-1.58392 2.25,-3.59521 2.25,-5.28125 0,-1.27803 -1.70348,-4.43039 -2.9375,-5.46875 -1.76278,-1.48328 -4.77408,-1.00458 -6.15625,0.96875 -0.75944,1.08425 -0.69946,1.47307 0.375,2.75 0.63275,0.75197 1.24346,1.125 1.9375,1.125 0.96691,0 2.125,0.76143 2.125,1.40625 0,1.10307 -0.5098,1.4375 -2.21875,1.4375 -1.44374,0 -2.03471,-0.19898 -3.125,-1.0625 -1.4982,-1.18661 -2.5,-3.00039 -2.5,-4.5 0,-0.54234 0.36738,-1.65589 0.84375,-2.46875 1.68485,-2.87502 6.06644,-4.24948 9.28125,-2.90625 1.51665,0.6337 3.91295,3.81765 4.71875,6.28125 1.58185,4.83622 -1.23711,10.34476 -6.5625,12.875 -2.14705,1.02013 -6.11033,1.28889 -8.09375,0.53125 -3.47171,-1.32614 -6.20046,-4.54684 -7.1875,-8.40625 -1.22229,-4.77925 0.78361,-10.85844 5,-15.125 2.27883,-2.30595 5.122,-4.03444 6.4375,-4.03125 z m -29.8125,0.40625 c 3.28358,0 3.97467,0.13301 5.375,0.875 2.77189,1.46872 4.88358,3.49452 5.90625,5.65625 0.84603,1.78832 0.91652,2.32908 0.78125,4.90625 -0.11937,2.2743 -0.36007,3.38378 -1.21875,5.21875 -1.15238,2.46258 -3.42225,4.96302 -5.28125,5.8125 -3.22932,1.47565 -6.54192,0.65087 -8.75,-2.15625 -1.37838,-1.75233 -0.81694,-5.9801 1.09375,-8.15625 1.93346,-2.20209 5.12634,-2.38951 4.875,-0.28125 -0.0838,0.70302 -0.39731,1.03351 -1.34375,1.34375 -2.27398,0.7454 -3.30249,4.29964 -1.6875,5.8125 1.31528,1.23209 2.43767,1.50794 4.03125,0.96875 3.96328,-1.34099 6.78021,-8.30428 4.9375,-12.1875 -0.72562,-1.52913 -3.03724,-3.5698 -5.09375,-4.5 -2.28869,-1.03522 -5.94438,-0.77984 -8.75,0.59375 -3.96218,1.93983 -7.59253,6.52764 -8.25,10.40625 -0.41041,2.42116 -0.57331,2.65625 -1.4375,2.65625 -1.46502,0 -1.77621,-0.819 -1.3125,-3.3125 0.95391,-5.1294 4.6312,-9.84443 9.625,-12.3125 2.62885,-1.29921 2.86186,-1.34375 6.5,-1.34375 z m 58.1875,4.875 c 0.0973,-0.005 0.17988,0.0196 0.28125,0.0313 1.75423,0.20157 1.51411,1.46411 -0.6875,3.59375 -2.52576,2.44318 -3.55272,4.69531 -3.75,8.125 -0.13298,2.31191 -0.0401,2.89532 0.6875,4.25 1.15525,2.15091 2.74438,2.98386 5.375,2.8125 2.28202,-0.14864 3.27673,-0.83103 4.0625,-2.6875 1.00055,-2.36397 0.27347,-6.05527 -1.375,-6.9375 -0.92382,-0.49441 -3.00206,-0.0713 -3.28125,0.65625 -0.28682,0.74744 0.34054,1.47872 1.8125,2.09375 0.88462,0.36961 1.1875,0.69853 1.1875,1.34375 0,1.36022 -0.79614,1.81295 -2.3125,1.3125 -4.72706,-1.56007 -5.03527,-7.02864 -0.46875,-8.25 2.28538,-0.61125 4.10988,-0.17136 5.6875,1.40625 2.26107,2.26107 2.79899,6.57717 1.25,9.875 -0.99009,2.1079 -1.83676,2.93369 -3.6875,3.59375 -3.01817,1.07641 -7.11586,0.40813 -9.125,-1.5 -2.08092,-1.9763 -2.5765,-3.48395 -2.5625,-7.4375 0.0171,-4.84058 0.84197,-7.02699 3.9375,-10.125 1.61504,-1.61634 2.28755,-2.11901 2.96875,-2.15625 z m 25.8125,1.40625 c 2.07049,-0.0187 4.07544,0.6748 5.375,2.03125 1.07904,1.12627 3.47175,6.82435 3.46875,8.25 -0.006,2.91066 -2.17933,6.10527 -5.125,7.53125 -1.65911,0.80316 -4.57658,0.9599 -5.75,0.3125 -1.60073,-0.88314 -2.6875,-2.21322 -2.6875,-3.3125 0,-2.4969 2.74351,-5.29392 4.34375,-4.4375 0.95529,0.51125 0.81611,1.47091 -0.40625,2.75 -1.25382,1.312 -1.31304,1.68548 -0.375,2.1875 1.83688,0.98307 4.54606,-0.10092 6.09375,-2.4375 1.24207,-1.87519 1.29476,-2.41849 0.375,-4.4375 -0.3785,-0.83086 -0.80416,-1.93751 -0.9375,-2.46875 -0.13333,-0.53125 -0.79518,-1.47109 -1.46875,-2.0625 -2.46193,-2.16159 -6.2313,-1.02298 -8.09375,2.4375 -0.87847,1.63224 -1.14844,1.87615 -1.96875,1.78125 -0.8639,-0.1 -0.93295,-0.2298 -0.90625,-1.59375 0.0377,-1.92684 1.23176,-3.72861 3.4375,-5.15625 1.3804,-0.89346 3.01462,-1.36047 4.625,-1.375 z"
       id="path3929" />
    <path
       style="fill:none;stroke:#000000;stroke-width:2.5;stroke-linecap:round;stroke-linejoin:miter;stroke-miterlimit:4;stroke-opacity:1;stroke-dasharray:none"
       d="m 122.14286,575.21932 c 0,45.2381 0,90.47619 0,135.71429 82.85714,28.80952 165.71429,57.61905 248.57143,86.42857 90.23809,-32.14286 180.47619,-64.28571 270.71428,-96.42857 0,-56.90476 0,-113.80953 0,-170.71429"
       id="path2952" />
    <path
       style="fill:none;stroke:#000000;stroke-width:2.5;stroke-linecap:round;stroke-linejoin:miter;stroke-miterlimit:4;stroke-opacity:1;stroke-dasharray:none"
       d="m 370.625,796.73718 c 0,-46.66667 0,-93.33333 0,-140"
       id="path2954" />
    <g
       id="g4032">
      <path
         id="path2962"
         d="m 347.36621,649.05878 c 7.8405,1.62357 16.38312,2.32837 23.35977,6.69226 0.32063,0.47363 -0.22774,0.7176 -0.12626,1.13642"
         style="fill:none;stroke:#000000;stroke-width:2.5;stroke-linecap:round;stroke-linejoin:miter;stroke-miterlimit:4;stroke-opacity:1;stroke-dasharray:none" />
      <path
         id="path2964"
         d="m 232.58762,639.08352 c 9.92374,4.09197 21.5403,6.39098 31.56727,10.85914 0.37164,-0.0357 1.25819,0.61004 1.26269,0.37881"
         style="fill:none;stroke:#000000;stroke-width:2.5;stroke-linecap:round;stroke-linejoin:miter;stroke-miterlimit:4;stroke-opacity:1;stroke-dasharray:none" />
      <path
         id="path2956"
         d="m 122.34835,581.94005 c 12.01876,7.68239 24.49322,-0.56138 33.36594,-7.07787 6.66985,-3.43055 12.93862,-11.39829 21.07142,-7.14286 3.5832,7.4691 5.2564,15.89236 10,22.85715 3.6287,11.1598 9.47997,22.07431 18.21429,30.71428 9.02309,5.21309 22.43582,4.93993 26.78571,16.78572 3.9302,8.53567 8.03097,22.03319 20.71429,20.35714 7.95697,-1.69621 12.90021,-9.7103 20.35714,-11.78571 5.26319,-3.32934 10.70048,-7.53142 15,-9.28572 17.15192,1.58745 28.58733,17.12156 45,20.35714 13.34082,5.61289 28.40256,7.75461 43.03572,9.46433 16.6522,-1.66607 33.11974,-5.36497 49.10714,-10 12.05706,-2.07449 23.37076,-7.94278 35.17857,-10.71429 15.08317,-6.32818 30.4153,-10.74045 45,-17.85714 8.56406,-3.41688 16.21581,-9.02362 24.82143,-12.50004 10.02372,-5.29031 18.76764,-11.30509 26.78572,-18.75 12.61512,-8.13746 24.62251,-19.46073 33.03571,-32.5 9.79857,-10.24936 19.84574,-20.46864 32.14286,-26.78571 5.70584,-4.79094 15.61044,-3.29852 19.10714,3.03571"
         style="fill:none;stroke:#000000;stroke-width:2.5;stroke-linecap:round;stroke-linejoin:miter;stroke-miterlimit:4;stroke-opacity:1;stroke-dasharray:none" />
      <path
         id="path2958"
         d="m 122.481,574.56003 c 5.07302,0.57334 10.49081,0.99767 14.77348,-2.39911 11.04933,-7.02715 20.20489,-17.75127 31.8198,-23.48605 11.07681,-3.13801 19.17749,8.51277 21.71828,17.93021 6.23139,14.37295 10.00178,30.89297 20.20305,42.67894"
         style="fill:none;stroke:#000000;stroke-width:2.5;stroke-linecap:round;stroke-linejoin:miter;stroke-miterlimit:4;stroke-opacity:1;stroke-dasharray:none" />
      <path
         id="path2960"
         d="m 210.36427,608.77895 c 4.47897,8.51276 16.19532,7.35784 23.23351,13.25825 3.74028,2.74501 2.60516,9.50901 8.71256,8.58629 7.84167,2.23544 17.18788,3.55308 23.10724,9.34392 8.07039,-10.42935 21.63014,-12.81703 34.47146,-10.48034 12.67101,1.16926 24.08965,6.39755 33.71384,14.39468 4.46984,2.29248 9.44694,4.37219 14.39467,5.42957"
         style="fill:none;stroke:#000000;stroke-width:2.5;stroke-linecap:round;stroke-linejoin:miter;stroke-miterlimit:4;stroke-opacity:1;stroke-dasharray:none" />
      <path
         id="path2976"
         d="m 372.32143,655.3979 c 12.79203,-0.99493 25.15422,-2.19005 36.78571,-6.60715 21.81206,-4.28006 43.13087,-10.38478 63.21429,-19.28571 12.28636,-5.20722 24.99487,-10.56458 36.96429,-16.25 15.39267,-11.1612 35.6313,-16.18608 48.75,-31.25 17.36333,-18.62558 36.48946,-38.46858 56.60714,-52.5 6.53103,-6.53911 18.88094,-10.15169 25.71428,-1.78572 0.31519,0.28068 2.52029,3.07585 1.07143,2.32143"
         style="fill:none;stroke:#000000;stroke-width:2.5;stroke-linecap:round;stroke-linejoin:miter;stroke-miterlimit:4;stroke-opacity:1;stroke-dasharray:none" />
      <path
         id="path2980"
         d="m 277.5,630.04075 c 8.3247,-6.25443 17.60041,-10.50226 26.96429,-14.64285 12.95502,-4.5402 25.69545,-9.78612 40,-10.89286 14.49702,-3.80399 30.8091,-3.60968 46.32754,-4.82143 16.5887,-0.0575 33.97255,-0.13595 49.20817,-1.78571 12.56037,-1.87969 26.36479,-2.43967 36.78572,-10 3.59539,-2.06627 7.83137,-5.0942 8.57142,-9.28572"
         style="fill:none;stroke:#000000;stroke-width:2.5;stroke-linecap:round;stroke-linejoin:miter;stroke-miterlimit:4;stroke-opacity:1;stroke-dasharray:none" />
      <path
         id="path2982"
         d="m 631.60714,522.18361 c -13.12931,-7.57663 -28.82665,-1.57576 -41.96428,3.03571 -12.45751,4.9259 -25.37805,9.67493 -38.03572,13.39286 -11.40153,4.70682 -25.43545,1.97766 -37.5,1.60714 -13.75536,-3.61979 -32.24427,-6.20061 -41.78571,6.42858 -3.49101,4.43108 -12.28104,-0.0459 -17.5,2.14285"
         style="fill:none;stroke:#000000;stroke-width:2.5;stroke-linecap:round;stroke-linejoin:miter;stroke-miterlimit:4;stroke-opacity:1;stroke-dasharray:none" />
      <path
         id="path2984"
         d="m 455.35714,549.1479 c -10.22244,-2.00927 -15.26379,-13.2264 -24.46428,-17.5 -9.6859,-3.25861 -20.65339,-5.54988 -28.03572,-14.10715 -13.5909,-9.1183 -18.12187,-25.37933 -29.28571,-36.07143 -9.58632,-5.43472 -17.17939,5.59638 -25,9.82143 -5.83526,4.61469 -13.02667,8.00878 -19.28572,11.78572"
         style="fill:none;stroke:#000000;stroke-width:2.5;stroke-linecap:round;stroke-linejoin:miter;stroke-miterlimit:4;stroke-opacity:1;stroke-dasharray:none" />
      <path
         id="path2986"
         d="m 343.75,493.07647 c -9.38149,-9.89514 -25.14654,-6.43821 -34.28571,-17.32143 -5.44761,-3.66677 -10.6985,-13.41394 -17.67858,-7.5 -13.03046,8.98332 -24.45554,21.55366 -37.14285,31.78571 -7.19345,7.40982 -14.61929,14.93231 -20.53572,22.85715"
         style="fill:none;stroke:#000000;stroke-width:2.5;stroke-linecap:round;stroke-linejoin:miter;stroke-miterlimit:4;stroke-opacity:1;stroke-dasharray:none" />
      <path
         id="path2988"
         d="m 122.14286,574.68361 c 8.84421,-8.54513 15.58476,-20.56678 26.07143,-28.92857 14.05262,-12.48907 27.53206,-24.66747 40.53571,-38.39286 6.71761,-5.4233 11.01008,-12.53539 17.14286,-17.14286 10.81341,-1.48299 15.09416,9.28951 23.21428,14.28572 4.15426,3.33023 7.7065,6.88705 12.14286,9.46428"
         style="fill:none;stroke:#000000;stroke-width:2.5;stroke-linecap:round;stroke-linejoin:miter;stroke-miterlimit:4;stroke-opacity:1;stroke-dasharray:none" />
    </g>
    <path
       style="fill:none;stroke:#000000;stroke-width:2.5;stroke-linecap:round;stroke-linejoin:miter;stroke-miterlimit:4;stroke-opacity:1;stroke-dasharray:7.5, 7.5;stroke-dashoffset:0"
       d="m 234.28571,560.93361 c 5.90469,13.45853 14.85536,28.43438 29.64286,34.82143 7.02886,3.39817 15.10683,7.65221 21.78572,9.10714 12.64271,-11.13422 25.7303,-23.6263 39.46428,-34.10714 2.75644,-3.14043 6.25663,-7.20873 7.32143,-9.64286 -13.63374,-0.91111 -27.2321,-4.90873 -39.10714,-11.25 -7.57149,-4.21405 -15.02078,-9.0236 -20.89286,-13.57143 -7.96483,6.52255 -14.72028,16.08794 -25,18.39286 -4.5284,1.66114 -10.8669,1.49132 -13.21429,6.25 z"
       id="path2990" />
    <path
       style="fill:none;stroke:#000000;stroke-width:2.5;stroke-linecap:round;stroke-linejoin:miter;stroke-miterlimit:4;stroke-opacity:1;stroke-dasharray:none"
       d="m 121.07143,407.18361 c 0.85025,10.65478 -1.69034,23.16415 1.25,32.67857 3.60685,1.01879 7.84564,1.99458 11.25,2.14286 6.60173,6.10298 18.80444,7.93045 27.85714,5.53571 2.9056,-2.28669 4.52573,-2.9635 7.67857,-1.42857 4.69231,0.90756 9.8992,-1.52576 13.21429,-2.5 6.96036,9.42752 21.29396,9.0603 31.07143,4.46429 3.61624,-1.19338 6.67862,-4.28895 10.17857,-1.60715 7.84072,0.54512 16.64619,-0.41315 22.14286,-3.75 6.03098,0.59604 17.2282,1.07793 18.03571,-6.78571 0.013,-4.45615 -9.64169,-4.78451 -3.92857,-6.78571 2.32795,-4.06257 -3.47069,-8.60103 -7.14286,-6.25 2.96157,-5.68823 -3.35679,-9.40297 -7.5,-6.96429 -4.14655,-11.32004 -21.81325,-9.06151 -28.03571,-3.39286 -4.13293,-12.41193 -24.38535,-8.27165 -31.96429,-2.32143 -4.76507,-8.0681 -16.37901,-7.45447 -23.92857,-5.35714 -3.21691,5.85758 -5.50633,-5.75589 -11.07143,-1.96428 -5.80742,0.30287 -11.74362,1.4034 -15.35714,6.42857 -1.85703,-6.20735 -10.06206,-6.18454 -13.75,-2.14286 z"
       id="path2994" />
    <path
       style="fill:#999999;fill-opacity:1;stroke:#000000;stroke-width:2.5;stroke-linecap:round;stroke-linejoin:miter;stroke-miterlimit:4;stroke-opacity:1;stroke-dasharray:none"
       d="m 511.96429,371.29075 c 7.05662,-6.47746 20.49626,-4.94022 23.75,4.82143 5.83668,-6.69411 16.70861,-7.69329 24.82143,-5.17857 3.67273,2.12937 7.55589,5.54831 8.21428,9.64286 9.17358,-5.67436 24.63297,0.17663 21.96429,12.32143 0.15404,2.21041 6.28147,1.16126 6.78571,5 2.95845,4.55216 5.03303,12.56188 -0.53571,15.71428 7.05478,4.31815 0.20155,14.34836 -6.42857,10 -1.38503,-2.26825 2.05248,6.56849 -3.57143,6.25 -6.39487,2.4158 -11.61012,-1.65659 -16.42857,-3.92857 -4.92867,1.59011 -9.27754,-2.96116 -12.5,-3.57143 -4.67362,2.97963 -10.91626,2.23683 -15.17858,-0.35714 -5.58901,4.111 -12.28864,-2.14761 -17.14285,2.67857 -7.8967,4.22532 -17.74182,0.59545 -25.35715,2.85714 -5.43663,0.46388 -10.89912,0.15083 -15.71428,-1.25 -8.99682,4.72272 -20.17234,0.20638 -29.64286,2.5 -3.25989,-3.11106 -5.94194,-1.05308 -9.64286,0.71429 -8.88424,1.63066 -20.92141,-0.838 -25.89285,-6.78572 3.2811,-4.75457 10.22409,-7.12577 15.35714,-5.89285 2.39061,-0.8434 6.76316,-7.23678 10.17857,-9.46429 4.29713,-2.91423 10.94452,-6.62801 15,-5.89286 4.14326,-8.99579 15.05474,-13.80626 23.92857,-13.39285 2.12786,-8.05072 13.45736,-7.89209 17.67857,-11.78572 1.37532,-3.86364 6.48105,-5.205 10.35715,-5 z"
       id="path3008" />
    <g
       id="g3986">
      <path
         id="path3010"
         d="m 374.46429,299.68361 c -11.12693,-1.38931 -22.50962,-3.35028 -30.35715,-12.32143 -8.09633,-9.30369 -16.6824,-18.64616 -14.64285,-32.14286 -0.49373,-17.67638 9.98827,-33.69443 25.17857,-42.5 9.89667,-8.52801 26.09236,-8.52238 38.03571,-5 13.72136,4.90144 22.2948,18.82031 26.60715,31.42858 5.54555,13.28213 2.07058,29.18257 -5.89286,40.35714 -7.05371,11.99451 -20.72958,14.30912 -31.78572,19.82143 -1.96523,0.0676 -6.41068,2.97877 -7.14285,0.35714 z"
         style="fill:none;stroke:#000000;stroke-width:2.5;stroke-linecap:round;stroke-linejoin:miter;stroke-miterlimit:4;stroke-opacity:1;stroke-dasharray:none" />
      <path
         id="path3012"
         d="m 302.67857,345.04075 c 1.97535,3.87405 4.87511,10.93482 7.32143,13.03572 1.40448,-5.37312 11.32835,-4.76667 12.5,-7.14286 -2.85094,-2.49908 -9.38735,-2.78886 -6.78571,-8.03571 0.28804,-8.53983 10.10797,-10.01037 16.60714,-11.78572 8.21432,-3.9888 2.60926,-12.58038 2.5,-18.75 -0.91521,-3.64397 2.78546,-5.87339 4.82143,-6.78571 -2.68041,-3.46161 -3.39057,-10.51049 -8.75,-6.60715 -9.21702,4.32289 -2.28549,14.03022 -1.78572,21.25 1.44028,9.32046 -10.71597,5.51499 -14.46428,11.60715 -3.83391,3.75521 -5.20394,10.51778 -6.42857,14.28571 -1.16725,-0.9829 -4.83814,-2.60205 -5.53572,-1.07143 z"
         style="fill:none;stroke:#000000;stroke-width:2.5;stroke-linecap:round;stroke-linejoin:miter;stroke-miterlimit:4;stroke-opacity:1;stroke-dasharray:none" />
      <path
         id="path3016"
         d="m 365.71429,356.82647 c -4.94315,-7.32242 0.29522,-15.40036 5.53571,-20.71429 2.65034,-8.59702 -10.91168,-11.55431 -7.14286,-20.53571 0.8007,-5.25454 4.12739,-2.81539 7.32143,-0.89286 5.46653,0.97287 -2.96139,3.1999 0,7.32143 2.90663,5.99677 10.76549,11.2471 5.89286,18.21428 -3.42438,4.35653 -7.82747,12.0326 -3.57143,16.78572 4.98342,-0.23901 7.0945,0.8262 2.32143,4.10714 -3.69727,2.66993 -6.61602,9.86829 -10.53571,3.92857 -2.16834,-1.38756 -8.45118,-5.86259 -7.14286,-6.60714 2.24574,-1.11914 6.07873,0.61004 7.32143,-1.60714 z"
         style="fill:none;stroke:#000000;stroke-width:2.5;stroke-linecap:round;stroke-linejoin:miter;stroke-miterlimit:4;stroke-opacity:1;stroke-dasharray:none" />
      <path
         id="path3018"
         d="m 402.32143,304.86218 c 2.75215,-0.80314 8.34917,-3.5158 9.46429,-1.78571 -3.05127,7.32792 6.5141,5.12832 9.46428,8.39285 6.16972,6.87451 0.67687,19.11336 9.82143,24.28572 0.69074,0.26027 7.99921,-7.07076 5.89286,-0.35714 -0.90225,3.1714 -3.01159,13.08253 -0.71429,12.85714 -4.91524,0.0292 -11.49714,-0.61913 -14.82143,-2.85714 1.8307,-2.93089 8.66027,-3.60724 3.03572,-5.35715 -5.63422,-4.94557 -2.32534,-13.23497 -4.64286,-19.10714 -5.15587,-6.06859 -15.661,-5.39941 -16.42857,-14.82143 -0.59579,-0.25274 -0.64884,-0.79942 -1.07143,-1.25 z"
         style="fill:none;stroke:#000000;stroke-width:2.5;stroke-linecap:round;stroke-linejoin:miter;stroke-miterlimit:4;stroke-opacity:1;stroke-dasharray:none" />
      <path
         id="path3020"
         d="m 259.64286,292.71932 c -0.013,4.41299 -1.68642,11.52286 0.53571,14.28572 4.6499,-0.0194 10.46715,0.2932 14.46429,-0.17857 -3.74249,-2.93025 -8.67538,-6.08564 -3.92857,-10.17857 6.97186,-10.05337 20.0271,-0.11729 28.75,-5.89286 8.2097,-2.63186 6.13948,-16.47528 16.60714,-15.89286 6.19322,2.21185 2.18909,-6.81184 2.14286,-8.92857 -8.64025,-0.53317 -19.0926,3.35133 -20.35715,12.85714 -2.0193,6.63658 -9.75833,6.25239 -14.82143,3.39286 -9.3317,-2.55884 -15.82994,6.84668 -18.03571,14.10714 -1.66529,-0.86322 -3.41251,-4.78971 -5.35714,-3.57143 z"
         style="fill:none;stroke:#000000;stroke-width:2.5;stroke-linecap:round;stroke-linejoin:miter;stroke-miterlimit:4;stroke-opacity:1;stroke-dasharray:none" />
      <path
         id="path3022"
         d="m 255.71429,248.61218 c 4.03187,-2.69346 8.49809,-7.3803 11.42857,-9.64286 -1.69968,4.84314 1.85202,7.48665 5.35714,4.28572 6.09784,-7.00943 16.29534,-6.38335 23.39286,-1.42857 5.58675,3.55007 12.81409,-1.1421 17.5,-1.07143 1.52433,3.88458 6.40603,8.99762 -0.35715,9.46428 -9.0025,2.80582 -18.40316,0.89518 -25.53571,-4.82142 -6.78731,-2.26893 -11.34017,3.00815 -15.89286,6.60714 -4.88434,-1.52696 0.73327,11.87125 -4.28571,5.53571 -3.70634,-3.59928 -9.44066,-5.84331 -11.60714,-8.92857 z"
         style="fill:none;stroke:#000000;stroke-width:2.5;stroke-linecap:round;stroke-linejoin:miter;stroke-miterlimit:4;stroke-opacity:1;stroke-dasharray:none" />
      <path
         id="path3024"
         d="m 274.46429,195.75504 c 3.22514,1.09399 9.05203,5.43763 10.17857,5.17857 -1.7749,-3.64378 -1.87646,-6.70349 3.39285,-6.42857 9.02219,-2.89641 8.66895,6.33696 10.35715,11.60714 0.58612,11.61766 12.11418,20.38719 22.85714,21.42857 -1.50404,-2.35099 3.11382,-7.32243 3.03571,-8.03571 -8.76523,-2.91279 -18.18692,-11.00015 -16.25,-21.42857 -3.62668,-10.70562 -16.12883,-11.96514 -25.17857,-9.10715 -0.11954,-2.88302 -1.71653,-7.35642 -3.39285,-2.14285 -1.15951,3.10295 -5.81515,5.39227 -5,8.92857 z"
         style="fill:none;stroke:#000000;stroke-width:2.5;stroke-linecap:round;stroke-linejoin:miter;stroke-miterlimit:4;stroke-opacity:1;stroke-dasharray:none" />
      <path
         id="path3026"
         d="m 321.42857,148.96932 c -0.71011,3.48711 -6.00831,8.45633 -5.71428,10.35715 3.17746,0.91228 8.18437,-1.95848 5.71428,2.67857 -3.06242,13.06192 18.29823,11.2406 15.17857,24.10714 -1.77583,8.23464 2.808,18.94343 9.46429,21.07143 0.85222,-2.36872 6.92828,-5.08764 6.07143,-6.60714 -8.72308,-0.84886 -9.52638,-11.59304 -7.67857,-18.57143 0.55597,-9.94286 -12.36069,-12.11051 -15.71429,-19.46429 -1.73221,-5.58407 1.02947,-5.41669 5.53571,-4.64285 -4.08618,-3.24538 -8.62249,-6.8768 -12.85714,-8.92858 z"
         style="fill:none;stroke:#000000;stroke-width:2.5;stroke-linecap:round;stroke-linejoin:miter;stroke-miterlimit:4;stroke-opacity:1;stroke-dasharray:none" />
      <path
         id="path3028"
         d="m 377.85714,140.21932 c -3.89835,4.35964 -9.5356,8.02219 -13.39285,10.71429 2.22733,2.23093 10.19196,2.90509 5.17857,6.25 -7.17208,8.31801 3.97623,14.82052 6.42857,22.14286 0.78589,6.1859 -8.04541,9.9493 -6.42857,15.35714 2.47492,-0.64004 9.39009,2.60565 6.07143,-1.42857 -0.24014,-6.31634 9.52228,-10.68489 4.46428,-17.32143 -5.08366,-4.65971 -9.10522,-12.29044 -4.46428,-18.92857 1.03301,-5.26416 11.65364,4.06982 7.32143,-3.39286 -1.4099,-4.46807 -2.2952,-9.72154 -4.35268,-13.72768 l -0.8259,0.33482 0,0 z"
         style="fill:none;stroke:#000000;stroke-width:2.5;stroke-linecap:round;stroke-linejoin:miter;stroke-miterlimit:4;stroke-opacity:1;stroke-dasharray:none" />
      <path
         id="path3030"
         d="m 395.71429,196.29075 c -0.82651,-8.33073 6.83544,-13.28705 9.82143,-20 -0.73738,-7.31574 -2.70352,-15.71957 5.35714,-20.17857 2.42074,-2.53166 9.54913,-3.22034 4.10714,-5.71429 0.0729,-2.81665 -4.67392,-6.57659 0.17857,-5 2.74315,-1.07693 9.94264,-1.90014 10.53572,0.17858 -1.7466,3.65103 0.0456,10.92919 -1.25,13.03571 -4.21974,-5.02337 -10.81353,0.38197 -13.03572,5.17857 0.15053,8.25091 3.25228,18.42958 -4.46428,23.92857 -3.99219,2.54216 -4.89674,7.5018 -4.10715,11.07143 -2.502,-0.39998 -5.6861,-0.21003 -7.14285,-2.5 z"
         style="fill:none;stroke:#000000;stroke-width:2.5;stroke-linecap:round;stroke-linejoin:miter;stroke-miterlimit:4;stroke-opacity:1;stroke-dasharray:none" />
      <path
         id="path3032"
         d="m 420.89286,215.04075 c 3.32828,1.50188 7.63646,5.32174 9.82143,5.71429 -3.23944,-10.0352 9.0137,-11.22072 16.07143,-12.5 6.29659,-2.24466 8.77597,-8.52927 8.92857,-14.82143 2.51623,-3.57009 -2.80149,-11.77198 3.57143,-9.28571 0.59768,-2.27498 -2.2527,-8.68638 -5,-10.17858 -3.10541,3.09033 -9.09458,5.06384 -10.53572,8.21429 2.64257,1.25507 10.07959,-0.33836 6.60714,3.92857 0.18295,6.85162 -4.18972,12.55793 -11.07142,13.75 -6.9368,0.6993 -15.30366,3.00183 -17.85715,10.53572 -0.17317,1.53224 -2.26708,3.33861 -0.53571,4.64285 z"
         style="fill:none;stroke:#000000;stroke-width:2.5;stroke-linecap:round;stroke-linejoin:miter;stroke-miterlimit:4;stroke-opacity:1;stroke-dasharray:none" />
      <path
         id="path3036"
         d="m 473.57143,237.36218 c 0.54221,3.67099 4.48358,7.57811 -1.07143,8.03572 -9.13632,3.05968 -14.29648,-10.82469 -23.03571,-5.53572 -2.82158,3.85758 -9.14145,6.19577 -12.85715,3.92857 0.4925,3.91125 -6.12275,10.89978 1.07143,10.17857 7.45047,0.75761 12.48389,-9.9342 19.82143,-5 5.39805,5.54501 15.80189,4.46064 21.42857,0.35715 0.70525,2.75864 3.62054,7.34118 3.75,1.96428 0.53378,-3.63509 7.66263,-7.3797 1.60715,-8.39285 -3.40301,-1.56815 -8.07002,-6.70253 -10.71429,-5.53572 z"
         style="fill:none;stroke:#000000;stroke-width:2.5;stroke-linecap:round;stroke-linejoin:miter;stroke-miterlimit:4;stroke-opacity:1;stroke-dasharray:none" />
      <path
         id="path3038"
         d="m 427.5,271.29075 c -0.81349,3.59173 -5.5621,5.64437 -0.89286,8.39286 4.27513,7.88056 13.47386,6.45672 20.53572,5.89286 6.64473,3.67377 6.09399,14.60162 15.35714,14.82143 4.05876,-0.44239 4.88309,-1.13381 4.64286,3.57142 0.30765,4.12361 0.84868,3.40012 3.21428,1.25 2.90884,-2.97876 11.73722,-2.00636 7.32143,-7.32142 -1.76303,-2.8774 -3.4699,-9.82178 -6.07143,-9.46429 -1.53317,4.7896 -6.21246,7.34916 -10.71428,4.28571 -3.90813,-5.70896 -5.34602,-15.42043 -13.75,-16.60714 -6.22746,0.3168 -13.81065,3.62624 -17.85714,-2.5 -0.7301,-0.67774 -0.77336,-2.06136 -1.78572,-2.32143 z"
         style="fill:none;stroke:#000000;stroke-width:2.5;stroke-linecap:round;stroke-linejoin:miter;stroke-miterlimit:4;stroke-opacity:1;stroke-dasharray:none" />
    </g>
    <g
       id="g3942">
      <path
         id="path2996"
         d="m 131.60714,427.54075 c 0.29033,-10.24263 14.21293,-19.65414 22.67857,-11.42857 8.6198,6.3095 -2.44192,24.26643 -10,15 -0.8071,-2.60674 0.41978,-7.54344 3.92858,-7.5"
         style="fill:none;stroke:#000000;stroke-width:2.5;stroke-linecap:round;stroke-linejoin:miter;stroke-miterlimit:4;stroke-opacity:1;stroke-dasharray:none" />
      <path
         id="path2998"
         d="m 176.25,412.71932 c -8.87151,3.85487 -14.72186,17.02704 -5.89286,23.75 8.14764,6.02837 20.54955,-5.27906 13.39286,-13.57142 -3.63121,-6.85792 -15.47569,0.7792 -7.85714,5.53571 0.50086,0.7229 1.77755,0.33078 2.5,0.53571"
         style="fill:none;stroke:#000000;stroke-width:2.5;stroke-linecap:round;stroke-linejoin:miter;stroke-miterlimit:4;stroke-opacity:1;stroke-dasharray:none" />
      <path
         id="path3000"
         d="m 205,418.07647 c -7.98753,4.26195 -8.76847,20.56608 2.5,18.92857 7.94882,-0.35407 6.50367,-16.28518 -1.96429,-12.14286 -2.4864,2.4895 -0.48077,4.58118 2.32143,5.35714"
         style="fill:none;stroke:#000000;stroke-width:2.5;stroke-linecap:round;stroke-linejoin:miter;stroke-miterlimit:4;stroke-opacity:1;stroke-dasharray:none" />
      <path
         id="path3002"
         d="m 223.57143,425.04075 c 1.73374,-6.83482 12.02494,-8.08739 13.21428,0.17857 4.69286,5.85814 -5.38122,13.92578 -9.46428,8.21429 -0.0943,-1.6883 0.6646,-2.97992 2.14286,-3.75"
         style="fill:none;stroke:#000000;stroke-width:2.5;stroke-linecap:round;stroke-linejoin:miter;stroke-miterlimit:4;stroke-opacity:1;stroke-dasharray:none" />
      <path
         id="path3004"
         d="m 122.5,405.75504 c 7.79292,-4.49376 17.52484,-7.24022 26.42857,-6.07143 5.50575,-4.69061 13.35866,-7.33228 20.35714,-4.82143 5.23866,-10.17657 19.05663,-6.02664 27.67858,-6.25 8.92163,-5.7583 21.05499,-5.49419 30.71428,-2.32143 7.68929,-5.83728 19.6863,-3.52058 28.57143,-2.85714 1.16566,0.80367 2.26392,1.29251 3.57143,1.96429"
         style="fill:none;stroke:#000000;stroke-width:2.5;stroke-linecap:round;stroke-linejoin:miter;stroke-miterlimit:4;stroke-opacity:1;stroke-dasharray:none" />
      <path
         id="path3006"
         d="m 260.53571,441.46932 c 9.26386,-1.00396 17.95343,-4.80771 23.39286,-12.85714 8.1679,2.27855 17.59182,-0.54767 20.35714,-7.85714 12.20669,3.19125 28.9783,0.87896 36.42858,-10.17857 0.13173,-6.91384 9.28863,-3.4449 13.21428,-7.32143 3.81324,-2.86683 4.3501,-6.26114 10.17857,-4.46429 6.72962,0.88277 14.49013,-2.87406 17.67858,-6.78571 7.9193,4.06767 19.44474,-5.88212 16.60714,-13.21429 -3.23122,-5.50093 -9.2024,1.04469 -12.5,-4.28571 -6.55937,-3.7601 -10.67666,6.19849 -15.89286,0.71428 -8.61293,-2.692 -19.29953,0.43565 -26.60714,3.57143 -12.75523,-5.94245 -29.08679,-3.36638 -40.35715,4.28572 -8.89528,-6.8485 -21.70439,-3.53095 -32.14285,-3.75 -4.33286,1.41591 -8.47828,3.33684 -11.60715,6.25"
         style="fill:none;stroke:#000000;stroke-width:2.5;stroke-linecap:round;stroke-linejoin:miter;stroke-miterlimit:4;stroke-opacity:1;stroke-dasharray:none" />
      <path
         id="path2994-0"
         d="m 120.69749,407.08748 c 0.85025,10.65478 -1.69034,23.16415 1.25,32.67857 3.60685,1.01879 7.84564,1.99458 11.25,2.14286 6.60173,6.10298 18.80444,7.93045 27.85714,5.53571 2.9056,-2.28669 4.52573,-2.9635 7.67857,-1.42857 4.69231,0.90756 9.8992,-1.52576 13.21429,-2.5 6.96036,9.42752 21.29396,9.0603 31.07143,4.46429 3.61624,-1.19338 6.67862,-4.28895 10.17857,-1.60715 7.84072,0.54512 16.64619,-0.41315 22.14286,-3.75 6.03098,0.59604 17.2282,1.07793 18.03571,-6.78571 0.013,-4.45615 -9.64169,-4.78451 -3.92857,-6.78571 2.32795,-4.06257 -3.47069,-8.60103 -7.14286,-6.25 2.96157,-5.68823 -3.35679,-9.40297 -7.5,-6.96429 -4.14655,-11.32004 -21.81325,-9.06151 -28.03571,-3.39286 -4.13293,-12.41193 -24.38535,-8.27165 -31.96429,-2.32143 -4.76507,-8.0681 -16.37901,-7.45447 -23.92857,-5.35714 -3.21691,5.85758 -5.50633,-5.75589 -11.07143,-1.96428 -5.80742,0.30287 -11.74362,1.4034 -15.35714,6.42857 -1.85703,-6.20735 -10.06206,-6.18454 -13.75,-2.14286 z"
         style="fill:none;stroke:#000000;stroke-width:2.5;stroke-linecap:round;stroke-linejoin:miter;stroke-miterlimit:4;stroke-opacity:1;stroke-dasharray:none" />
    </g>
    <path
       style="fill:#6c5d53;fill-opacity:1;stroke:#6c5d53;stroke-width:1.42857146;stroke-linecap:square;stroke-linejoin:miter;stroke-miterlimit:4;stroke-opacity:1;stroke-dasharray:none;stroke-dashoffset:0"
       d="m 245.73051,752.21774 -122.32143,-42.59969 0,-62.60757 0,-62.60757 3.03571,1.05878 c 2.0252,0.70634 4.72661,0.95412 8.11535,0.74436 6.49248,-0.40187 11.07202,-2.52047 24.08177,-11.14083 8.60849,-5.70404 10.26994,-6.54369 12.94825,-6.54369 1.68991,0 3.41933,0.41782 3.84315,0.92849 0.42382,0.51068 1.89505,3.87509 3.26939,7.47648 1.37435,3.60139 3.76107,9.21036 5.30383,12.46436 1.54276,3.25401 4.30579,9.11273 6.14006,13.01937 6.32907,13.47967 12.67802,20.57305 20.81721,23.25807 7.87928,2.59928 12.62384,4.89849 15.17673,7.35462 1.35694,1.30551 4.15365,5.95709 6.5269,10.85575 5.96572,12.31391 10.12501,16.09045 17.68299,16.05574 4.12335,-0.0189 7.68112,-1.57354 13.53667,-5.91498 2.42363,-1.79692 5.67958,-3.91657 7.23545,-4.71032 1.55588,-0.79374 5.84077,-3.40167 9.52199,-5.79539 6.3478,-4.12767 6.85896,-4.32846 9.90741,-3.89179 4.37135,0.62615 11.4986,4.01795 22.35201,10.63713 7.12038,4.34251 11.2807,6.29843 19.14097,8.99888 11.04625,3.79502 22.12267,6.59316 31.18559,7.87814 l 5.89286,0.8355 0,63.48926 c 0,34.91909 -0.24108,63.45941 -0.53572,63.42292 -0.29464,-0.0365 -55.58036,-19.23619 -122.85714,-42.66602 l 0,0 z"
       id="path4058" />
    <path
       style="fill:#6c5d53;fill-opacity:1;stroke:#6c5d53;stroke-width:1.42857146;stroke-linecap:square;stroke-linejoin:miter;stroke-miterlimit:4;stroke-opacity:1;stroke-dasharray:none;stroke-dashoffset:0"
       d="m 372.07414,731.81223 0,-63.2907 3.39285,-0.0131 c 12.68759,-0.0489 46.84296,-7.90423 74.46429,-17.12583 16.69948,-5.57525 41.42094,-14.83842 51.4257,-19.26928 11.55061,-5.11549 34.30951,-17.11008 41.43144,-21.83556 3.73214,-2.47631 8.71429,-6.15841 11.07143,-8.18243 2.35714,-2.02402 6.76209,-5.43577 9.78876,-7.58168 7.31535,-5.18655 17.47437,-15.34063 24.57551,-24.56357 10.689,-13.88282 32.03992,-31.35937 39.86222,-32.62875 3.77026,-0.61183 7.2209,0.31098 9.65092,2.58096 l 2.19402,2.04951 0,78.87504 0,78.87504 -133.03572,47.368 c -73.16964,26.05239 -133.4375,47.51762 -133.92857,47.70051 -0.71007,0.26444 -0.89285,-12.62446 -0.89285,-62.95819 z"
       id="path4060" />
    <path
       style="fill:#de8787;fill-opacity:1;stroke:#000000;stroke-width:2;stroke-linecap:round;stroke-linejoin:miter;stroke-miterlimit:4;stroke-opacity:1;stroke-dasharray:none"
       d="m 269.71073,570.26688 c -0.14435,-2.83614 0.44742,-5.60001 0.24901,-8.437 0.0512,-3.03028 -0.10085,-6.08862 0.1129,-9.09698 2.07336,-0.008 3.0926,3.0865 5.17943,3.7007 1.47991,-1.49247 3.39487,-3.97271 5.06529,-5.86469 2.2259,-2.67109 4.64709,-5.27296 5.94843,-8.56499 1.3226,-3.30489 3.22002,-6.21543 4.22618,-9.63613 0.19291,-1.88759 3.32871,-5.90494 -0.29409,-5.03274 -1.40204,-0.0824 -4.63005,0.49078 -2.10595,-1.15516 4.72168,-3.67305 7.4289,-9.13801 10.42093,-14.165 0.466,-2.34716 2.23962,-3.45813 3.02072,-0.67993 2.3757,5.04506 6.46308,8.99793 9.78491,13.41431 1.6315,0.86396 2.81964,3.34804 -0.23794,2.81132 -1.78114,-0.52602 -5.82141,-1.29948 -5.13129,1.75104 -0.81053,3.90985 -1.70058,7.18527 -3.16451,10.8825 -1.04996,2.61038 -2.38093,5.05925 -3.64249,7.54585 -2.45104,3.94879 -4.78104,8.02363 -7.78679,11.58571 -1.92754,2.07189 -4.2464,3.88152 -6.88224,4.9439 -0.0733,1.5859 3.26826,3.95067 1.93836,4.73455 -1.76516,0.0427 -3.55496,-0.16017 -5.26937,0.28461 -2.57246,0.24315 -5.08096,1.00953 -7.62861,1.60654 -1.24131,0.0964 -3.65283,1.64572 -3.80288,-0.62841 z"
       id="path4074"
       sodipodi:nodetypes="cccccccccccccccccccccc" />
    <g
       id="g4104">
      <path
         style="fill:none;stroke:#000000;stroke-width:1px;stroke-linecap:round;stroke-linejoin:miter;stroke-opacity:1"
         d="m 280.19106,556.50355 c 0.64401,0.42891 1.0753,0.48581 1.70439,1.07305 0.528,0.35113 1.00384,0.80672 1.32563,1.32549 0.38969,0.37864 0.49104,0.5045 0.79854,0.86158 0.2932,0.24838 0.89338,1.04611 0.90588,0.96898"
         id="path4080" />
      <path
         style="fill:none;stroke:#000000;stroke-width:1px;stroke-linecap:round;stroke-linejoin:miter;stroke-opacity:1"
         d="m 283.60033,558.14505 c 0.61521,-0.601 1.04199,-1.31328 1.70447,-1.89384 0.24777,-0.38405 0.69619,-0.62858 0.9466,-1.00971"
         id="path4082" />
      <path
         style="fill:none;stroke:#000000;stroke-width:1px;stroke-linecap:round;stroke-linejoin:miter;stroke-opacity:1"
         d="m 282.84271,552.58921 c 0.67831,0.61476 1.18349,1.39173 1.89389,2.02016 0.5815,0.64149 1.32521,0.90142 2.0202,1.51507 0.50351,0.48524 1.08629,0.77563 1.64116,1.13636 0.10615,0.14817 0.11501,-0.007 0.18937,0.1262"
         id="path4084" />
      <path
         style="fill:none;stroke:#000000;stroke-width:1px;stroke-linecap:round;stroke-linejoin:miter;stroke-opacity:1"
         d="m 287.76656,546.27693 c -0.099,0.48787 -0.48541,0.85665 -0.63107,1.32517 -0.27612,0.42767 -0.36342,0.82562 -0.69417,1.26221 -0.11433,0.54619 -1.142,0.93793 -0.95057,1.44663 0.36838,0.46995 0.96525,0.64077 1.34838,1.16089 0.42305,0.41764 0.92941,0.74917 1.37848,1.12917 0.36204,0.224 0.96635,0.45871 1.41125,0.71372 0.42839,0.31505 0.75732,0.67568 1.23084,0.97851 0.33584,-0.0105 0.56872,-0.96515 0.9467,-1.26238 0.31873,-0.43364 0.76193,-0.75893 1.00991,-1.19926 0.17598,-0.46471 0.54009,-0.85149 0.69424,-1.32524 0.14816,-0.10614 -0.007,-0.11501 0.1262,-0.18937"
         id="path4086" />
      <path
         style="fill:none;stroke:#000000;stroke-width:1px;stroke-linecap:round;stroke-linejoin:miter;stroke-opacity:1"
         d="m 288.27228,551.89473 c 0.3775,-0.44704 0.56332,-0.98144 1.07312,-1.38872 0.12679,-0.27341 0.18615,-0.17942 0.3786,-0.44177"
         id="path4088" />
      <path
         style="fill:none;stroke:#000000;stroke-width:1px;stroke-linecap:round;stroke-linejoin:miter;stroke-opacity:1"
         d="m 295.09081,548.3592 c -0.55052,-0.58774 -0.93337,-1.27601 -1.33917,-1.92542 -0.25377,-0.50848 -0.9613,-1.2412 -1.56468,-1.6728 -0.5961,-0.41774 -1.12463,-0.8561 -1.50657,-1.4488 -0.49931,-0.45807 -1.25969,-1.08857 -0.0716,-1.07613 0.78151,-0.0405 1.51915,0.11342 2.27278,0.1893 0.62136,0.15767 1.18897,0.27404 1.8417,0.2524 0.83817,0 1.67634,0 2.51451,0"
         id="path4092" />
      <path
         style="fill:none;stroke:#000000;stroke-width:1px;stroke-linecap:round;stroke-linejoin:miter;stroke-opacity:1"
         d="m 293.25991,545.0762 c 0.43031,-0.56895 0.74807,-1.14654 1.00995,-1.76742 0.1371,-0.25459 0.13225,-0.55516 0.2524,-0.82058"
         id="path4094" />
      <path
         style="fill:none;stroke:#000000;stroke-width:1px;stroke-linecap:round;stroke-linejoin:miter;stroke-opacity:1"
         d="m 291.68155,538.25767 c 0.25723,-0.57809 0.60232,-1.07859 0.75727,-1.70436 0.25268,-0.4362 0.36614,-0.86738 0.5679,-1.2622 0.18732,-0.48892 0.31577,-0.95625 0.4417,-1.45178"
         id="path4096" />
      <path
         style="fill:none;stroke:#000000;stroke-width:1px;stroke-linecap:round;stroke-linejoin:miter;stroke-opacity:1"
         d="m 293.00737,535.92169 c 0.57353,0.4984 1.11862,0.76674 1.76752,1.13607 0.6718,0.37211 1.45611,0.51463 2.14627,0.75738 0.6079,0.18246 1.28121,0.29709 1.89378,0.4417"
         id="path4098" />
      <path
         style="fill:none;stroke:#000000;stroke-width:1px;stroke-linecap:round;stroke-linejoin:miter;stroke-opacity:1"
         d="m 294.14379,531.88108 c 0.51032,0.40704 0.92732,0.87332 1.51493,1.13615 0.55194,0.42281 0.92992,0.56454 1.57802,0.75734 0.0783,0.0703 0.87842,0.28627 0.69434,0.1893"
         id="path4100" />
      <path
         style="fill:none;stroke:#000000;stroke-width:1px;stroke-linecap:round;stroke-linejoin:miter;stroke-opacity:1"
         d="m 300.01531,535.41662 c 0.23149,0.12627 0.46299,0.25253 0.69448,0.3788"
         id="path4102" />
    </g>
  </g>
</svg>
