<?xml version="1.0" encoding="UTF-8" standalone="no"?>
<!-- Created with Inkscape (http://www.inkscape.org/) -->

<svg
   xmlns:dc="http://purl.org/dc/elements/1.1/"
   xmlns:cc="http://creativecommons.org/ns#"
   xmlns:rdf="http://www.w3.org/1999/02/22-rdf-syntax-ns#"
   xmlns:svg="http://www.w3.org/2000/svg"
   xmlns="http://www.w3.org/2000/svg"
   xmlns:sodipodi="http://sodipodi.sourceforge.net/DTD/sodipodi-0.dtd"
   xmlns:inkscape="http://www.inkscape.org/namespaces/inkscape"
   id="svg2"
   version="1.1"
   inkscape:version="0.47 r22583"
   width="761.81311"
   height="554.15002"
   xml:space="preserve"
   sodipodi:docname="curvefit.eps"><sodipodi:namedview
     pagecolor="#ffffff"
     bordercolor="#666666"
     borderopacity="1"
     objecttolerance="10"
     gridtolerance="10"
     guidetolerance="10"
     inkscape:pageopacity="0"
     inkscape:pageshadow="2"
     inkscape:window-width="1280"
     inkscape:window-height="949"
     id="namedview4"
     showgrid="false"
     inkscape:zoom="0.95353535"
     inkscape:cx="241.53374"
     inkscape:cy="324.72884"
     inkscape:window-x="0"
     inkscape:window-y="25"
     inkscape:window-maximized="1"
     inkscape:current-layer="g12" /><metadata
     id="metadata8"><rdf:RDF><cc:Work
         rdf:about=""><dc:format>image/svg+xml</dc:format><dc:type
           rdf:resource="http://purl.org/dc/dcmitype/StillImage" /><dc:title></dc:title></cc:Work></rdf:RDF></metadata><defs
     id="defs6"><inkscape:perspective
       sodipodi:type="inkscape:persp3d"
       inkscape:vp_x="0 : 0.5 : 1"
       inkscape:vp_y="0 : 1000 : 0"
       inkscape:vp_z="1 : 0.5 : 1"
       inkscape:persp3d-origin="0.5 : 0.33333333 : 1"
       id="perspective10" /><clipPath
       clipPathUnits="userSpaceOnUse"
       id="clipPath20"><path
         d="m 0,1351.67 6120,0 0,5208.33 -6120,0 0,-5208.33 z"
         id="path22" /></clipPath><clipPath
       clipPathUnits="userSpaceOnUse"
       id="clipPath316"><path
         d="m 398.332,1862.5 5721.67,0 0,4008.33 -5721.67,0 0,-4008.33 z"
         id="path318" /></clipPath><inkscape:perspective
       id="perspective3216"
       inkscape:persp3d-origin="0.5 : 0.33333333 : 1"
       inkscape:vp_z="1 : 0.5 : 1"
       inkscape:vp_y="0 : 1000 : 0"
       inkscape:vp_x="0 : 0.5 : 1"
       sodipodi:type="inkscape:persp3d" /><inkscape:perspective
       id="perspective3241"
       inkscape:persp3d-origin="0.5 : 0.33333333 : 1"
       inkscape:vp_z="1 : 0.5 : 1"
       inkscape:vp_y="0 : 1000 : 0"
       inkscape:vp_x="0 : 0.5 : 1"
       sodipodi:type="inkscape:persp3d" /><inkscape:perspective
       id="perspective3241-2"
       inkscape:persp3d-origin="0.5 : 0.33333333 : 1"
       inkscape:vp_z="1 : 0.5 : 1"
       inkscape:vp_y="0 : 1000 : 0"
       inkscape:vp_x="0 : 0.5 : 1"
       sodipodi:type="inkscape:persp3d" /><inkscape:perspective
       id="perspective3241-7"
       inkscape:persp3d-origin="0.5 : 0.33333333 : 1"
       inkscape:vp_z="1 : 0.5 : 1"
       inkscape:vp_y="0 : 1000 : 0"
       inkscape:vp_x="0 : 0.5 : 1"
       sodipodi:type="inkscape:persp3d" /><inkscape:perspective
       id="perspective3241-5"
       inkscape:persp3d-origin="0.5 : 0.33333333 : 1"
       inkscape:vp_z="1 : 0.5 : 1"
       inkscape:vp_y="0 : 1000 : 0"
       inkscape:vp_x="0 : 0.5 : 1"
       sodipodi:type="inkscape:persp3d" /></defs><g
     id="g12"
     inkscape:groupmode="layer"
     inkscape:label="ink_ext_XXXXXX"
     transform="matrix(1.25,0,0,-1.25,-12.621,775.425)"><g
       id="g5143"><g
         id="g4078"><path
   id="path26"
   style="fill:#ffffff;fill-opacity:1;fill-rule:evenodd;stroke:none"
   d="m 26.4168,192.417 585.583,0 0,424.5 -585.583,0 0,-424.5 z" /><path
   id="path28"
   style="fill:none;stroke:#ffffff;stroke-width:0.5;stroke-linecap:butt;stroke-linejoin:round;stroke-miterlimit:10;stroke-opacity:1;stroke-dasharray:none"
   d="m 26.4168,192.417 0,424.5 586.4162,0 0,-424.5 -586.4162,0" /><path
   id="path30"
   style="fill:none;stroke:#000000;stroke-width:0.5;stroke-linecap:butt;stroke-linejoin:round;stroke-miterlimit:10;stroke-opacity:1;stroke-dasharray:none"
   d="m 26.4168,192.417 586.4162,0" /><path
   id="path32"
   style="fill:none;stroke:#000000;stroke-width:0.5;stroke-linecap:butt;stroke-linejoin:round;stroke-miterlimit:10;stroke-opacity:1;stroke-dasharray:none"
   d="m 26.4168,616.917 586.4162,0" /><path
   id="path34"
   style="fill:none;stroke:#000000;stroke-width:0.5;stroke-linecap:butt;stroke-linejoin:round;stroke-miterlimit:10;stroke-opacity:1;stroke-dasharray:none"
   d="m 26.4168,192.417 0,424.5" /><path
   id="path36"
   style="fill:none;stroke:#000000;stroke-width:0.5;stroke-linecap:butt;stroke-linejoin:round;stroke-miterlimit:10;stroke-opacity:1;stroke-dasharray:none"
   d="m 26.4168,192.417 586.4162,0" /><path
   id="path38"
   style="fill:none;stroke:#000000;stroke-width:0.5;stroke-linecap:butt;stroke-linejoin:round;stroke-miterlimit:10;stroke-opacity:1;stroke-dasharray:none"
   d="m 26.4168,192.417 0,424.5" /><path
   id="path40"
   style="fill:none;stroke:#000000;stroke-width:0.5;stroke-linecap:butt;stroke-linejoin:round;stroke-miterlimit:10;stroke-opacity:1;stroke-dasharray:none"
   d="m 26.4168,192.417 0,3" /><path
   id="path42"
   style="fill:none;stroke:#000000;stroke-width:0.5;stroke-linecap:butt;stroke-linejoin:round;stroke-miterlimit:10;stroke-opacity:1;stroke-dasharray:none"
   d="m 26.4168,616.917 0,-2.917" /><path
   id="path44"
   style="fill:none;stroke:#000000;stroke-width:0.5;stroke-linecap:butt;stroke-linejoin:round;stroke-miterlimit:10;stroke-opacity:1;stroke-dasharray:none"
   d="m 26.4168,192.417 0,5.916" /><path
   id="path46"
   style="fill:none;stroke:#000000;stroke-width:0.5;stroke-linecap:butt;stroke-linejoin:round;stroke-miterlimit:10;stroke-opacity:1;stroke-dasharray:none"
   d="m 26.4168,616.917 0,-5.834" /><g
   id="g48"><text
   id="text50"
   transform="matrix(1,0,0,-1,19.0832,177.25)"><tspan
     id="tspan52"
     sodipodi:role="line"
     y="0"
     x="0 5.5599999"
     style="font-size:10px;font-variant:normal;font-weight:normal;writing-mode:lr-tb;fill:#000000;fill-opacity:1;fill-rule:nonzero;stroke:none;font-family:Helvetica;-inkscape-font-specification:Helvetica">10</tspan></text>


<text
   id="text54"
   transform="matrix(1,0,0,-1,30.1668,183.4168)"><tspan
     id="tspan56"
     y="0"
     x="0"
     style="font-size:6.66666985px;font-variant:normal;font-weight:normal;writing-mode:lr-tb;fill:#000000;fill-opacity:1;fill-rule:nonzero;stroke:none;font-family:Helvetica;-inkscape-font-specification:Helvetica">0</tspan></text>


</g><path
   id="path58"
   style="fill:none;stroke:#000000;stroke-width:0.5;stroke-linecap:butt;stroke-linejoin:round;stroke-miterlimit:10;stroke-opacity:1;stroke-dasharray:none"
   d="m 85.25,192.417 0,3" /><path
   id="path60"
   style="fill:none;stroke:#000000;stroke-width:0.5;stroke-linecap:butt;stroke-linejoin:round;stroke-miterlimit:10;stroke-opacity:1;stroke-dasharray:none"
   d="m 85.25,616.917 0,-2.917" /><path
   id="path62"
   style="fill:none;stroke:#000000;stroke-width:0.5;stroke-linecap:butt;stroke-linejoin:round;stroke-miterlimit:10;stroke-opacity:1;stroke-dasharray:none"
   d="m 119.667,192.417 0,3" /><path
   id="path64"
   style="fill:none;stroke:#000000;stroke-width:0.5;stroke-linecap:butt;stroke-linejoin:round;stroke-miterlimit:10;stroke-opacity:1;stroke-dasharray:none"
   d="m 119.667,616.917 0,-2.917" /><path
   id="path66"
   style="fill:none;stroke:#000000;stroke-width:0.5;stroke-linecap:butt;stroke-linejoin:round;stroke-miterlimit:10;stroke-opacity:1;stroke-dasharray:none"
   d="m 144.083,192.417 0,3" /><path
   id="path68"
   style="fill:none;stroke:#000000;stroke-width:0.5;stroke-linecap:butt;stroke-linejoin:round;stroke-miterlimit:10;stroke-opacity:1;stroke-dasharray:none"
   d="m 144.083,616.917 0,-2.917" /><path
   id="path70"
   style="fill:none;stroke:#000000;stroke-width:0.5;stroke-linecap:butt;stroke-linejoin:round;stroke-miterlimit:10;stroke-opacity:1;stroke-dasharray:none"
   d="m 163,192.417 0,3" /><path
   id="path72"
   style="fill:none;stroke:#000000;stroke-width:0.5;stroke-linecap:butt;stroke-linejoin:round;stroke-miterlimit:10;stroke-opacity:1;stroke-dasharray:none"
   d="M 163,616.917 163,614" /><path
   id="path74"
   style="fill:none;stroke:#000000;stroke-width:0.5;stroke-linecap:butt;stroke-linejoin:round;stroke-miterlimit:10;stroke-opacity:1;stroke-dasharray:none"
   d="m 178.5,192.417 0,3" /><path
   id="path76"
   style="fill:none;stroke:#000000;stroke-width:0.5;stroke-linecap:butt;stroke-linejoin:round;stroke-miterlimit:10;stroke-opacity:1;stroke-dasharray:none"
   d="m 178.5,616.917 0,-2.917" /><path
   id="path78"
   style="fill:none;stroke:#000000;stroke-width:0.5;stroke-linecap:butt;stroke-linejoin:round;stroke-miterlimit:10;stroke-opacity:1;stroke-dasharray:none"
   d="m 191.583,192.417 0,3" /><path
   id="path80"
   style="fill:none;stroke:#000000;stroke-width:0.5;stroke-linecap:butt;stroke-linejoin:round;stroke-miterlimit:10;stroke-opacity:1;stroke-dasharray:none"
   d="m 191.583,616.917 0,-2.917" /><path
   id="path82"
   style="fill:none;stroke:#000000;stroke-width:0.5;stroke-linecap:butt;stroke-linejoin:round;stroke-miterlimit:10;stroke-opacity:1;stroke-dasharray:none"
   d="m 202.917,192.417 0,3" /><path
   id="path84"
   style="fill:none;stroke:#000000;stroke-width:0.5;stroke-linecap:butt;stroke-linejoin:round;stroke-miterlimit:10;stroke-opacity:1;stroke-dasharray:none"
   d="m 202.917,616.917 0,-2.917" /><path
   id="path86"
   style="fill:none;stroke:#000000;stroke-width:0.5;stroke-linecap:butt;stroke-linejoin:round;stroke-miterlimit:10;stroke-opacity:1;stroke-dasharray:none"
   d="m 212.917,192.417 0,3" /><path
   id="path88"
   style="fill:none;stroke:#000000;stroke-width:0.5;stroke-linecap:butt;stroke-linejoin:round;stroke-miterlimit:10;stroke-opacity:1;stroke-dasharray:none"
   d="m 212.917,616.917 0,-2.917" /><path
   id="path90"
   style="fill:none;stroke:#000000;stroke-width:0.5;stroke-linecap:butt;stroke-linejoin:round;stroke-miterlimit:10;stroke-opacity:1;stroke-dasharray:none"
   d="m 221.833,192.417 0,3" /><path
   id="path92"
   style="fill:none;stroke:#000000;stroke-width:0.5;stroke-linecap:butt;stroke-linejoin:round;stroke-miterlimit:10;stroke-opacity:1;stroke-dasharray:none"
   d="m 221.833,616.917 0,-2.917" /><path
   id="path94"
   style="fill:none;stroke:#000000;stroke-width:0.5;stroke-linecap:butt;stroke-linejoin:round;stroke-miterlimit:10;stroke-opacity:1;stroke-dasharray:none"
   d="m 221.833,192.417 0,5.916" /><path
   id="path96"
   style="fill:none;stroke:#000000;stroke-width:0.5;stroke-linecap:butt;stroke-linejoin:round;stroke-miterlimit:10;stroke-opacity:1;stroke-dasharray:none"
   d="m 221.833,616.917 0,-5.834" /><g
   id="g98"><text
   id="text100"
   transform="matrix(1,0,0,-1,214.5,177.25)"><tspan
     id="tspan102"
     sodipodi:role="line"
     y="0"
     x="0 5.5599999"
     style="font-size:10px;font-variant:normal;font-weight:normal;writing-mode:lr-tb;fill:#000000;fill-opacity:1;fill-rule:nonzero;stroke:none;font-family:Helvetica;-inkscape-font-specification:Helvetica">10</tspan></text>


<text
   id="text104"
   transform="matrix(1,0,0,-1,225.5832,183.4168)"><tspan
     id="tspan106"
     y="0"
     x="0"
     style="font-size:6.66666985px;font-variant:normal;font-weight:normal;writing-mode:lr-tb;fill:#000000;fill-opacity:1;fill-rule:nonzero;stroke:none;font-family:Helvetica;-inkscape-font-specification:Helvetica">1</tspan></text>


</g><path
   id="path108"
   style="fill:none;stroke:#000000;stroke-width:0.5;stroke-linecap:butt;stroke-linejoin:round;stroke-miterlimit:10;stroke-opacity:1;stroke-dasharray:none"
   d="m 280.667,192.417 0,3" /><path
   id="path110"
   style="fill:none;stroke:#000000;stroke-width:0.5;stroke-linecap:butt;stroke-linejoin:round;stroke-miterlimit:10;stroke-opacity:1;stroke-dasharray:none"
   d="m 280.667,616.917 0,-2.917" /><path
   id="path112"
   style="fill:none;stroke:#000000;stroke-width:0.5;stroke-linecap:butt;stroke-linejoin:round;stroke-miterlimit:10;stroke-opacity:1;stroke-dasharray:none"
   d="m 315.083,192.417 0,3" /><path
   id="path114"
   style="fill:none;stroke:#000000;stroke-width:0.5;stroke-linecap:butt;stroke-linejoin:round;stroke-miterlimit:10;stroke-opacity:1;stroke-dasharray:none"
   d="m 315.083,616.917 0,-2.917" /><path
   id="path116"
   style="fill:none;stroke:#000000;stroke-width:0.5;stroke-linecap:butt;stroke-linejoin:round;stroke-miterlimit:10;stroke-opacity:1;stroke-dasharray:none"
   d="m 339.5,192.417 0,3" /><path
   id="path118"
   style="fill:none;stroke:#000000;stroke-width:0.5;stroke-linecap:butt;stroke-linejoin:round;stroke-miterlimit:10;stroke-opacity:1;stroke-dasharray:none"
   d="m 339.5,616.917 0,-2.917" /><path
   id="path120"
   style="fill:none;stroke:#000000;stroke-width:0.5;stroke-linecap:butt;stroke-linejoin:round;stroke-miterlimit:10;stroke-opacity:1;stroke-dasharray:none"
   d="m 358.5,192.417 0,3" /><path
   id="path122"
   style="fill:none;stroke:#000000;stroke-width:0.5;stroke-linecap:butt;stroke-linejoin:round;stroke-miterlimit:10;stroke-opacity:1;stroke-dasharray:none"
   d="m 358.5,616.917 0,-2.917" /><path
   id="path124"
   style="fill:none;stroke:#000000;stroke-width:0.5;stroke-linecap:butt;stroke-linejoin:round;stroke-miterlimit:10;stroke-opacity:1;stroke-dasharray:none"
   d="m 373.917,192.417 0,3" /><path
   id="path126"
   style="fill:none;stroke:#000000;stroke-width:0.5;stroke-linecap:butt;stroke-linejoin:round;stroke-miterlimit:10;stroke-opacity:1;stroke-dasharray:none"
   d="m 373.917,616.917 0,-2.917" /><path
   id="path128"
   style="fill:none;stroke:#000000;stroke-width:0.5;stroke-linecap:butt;stroke-linejoin:round;stroke-miterlimit:10;stroke-opacity:1;stroke-dasharray:none"
   d="m 387,192.417 0,3" /><path
   id="path130"
   style="fill:none;stroke:#000000;stroke-width:0.5;stroke-linecap:butt;stroke-linejoin:round;stroke-miterlimit:10;stroke-opacity:1;stroke-dasharray:none"
   d="M 387,616.917 387,614" /><path
   id="path132"
   style="fill:none;stroke:#000000;stroke-width:0.5;stroke-linecap:butt;stroke-linejoin:round;stroke-miterlimit:10;stroke-opacity:1;stroke-dasharray:none"
   d="m 398.417,192.417 0,3" /><path
   id="path134"
   style="fill:none;stroke:#000000;stroke-width:0.5;stroke-linecap:butt;stroke-linejoin:round;stroke-miterlimit:10;stroke-opacity:1;stroke-dasharray:none"
   d="m 398.417,616.917 0,-2.917" /><path
   id="path136"
   style="fill:none;stroke:#000000;stroke-width:0.5;stroke-linecap:butt;stroke-linejoin:round;stroke-miterlimit:10;stroke-opacity:1;stroke-dasharray:none"
   d="m 408.417,192.417 0,3" /><path
   id="path138"
   style="fill:none;stroke:#000000;stroke-width:0.5;stroke-linecap:butt;stroke-linejoin:round;stroke-miterlimit:10;stroke-opacity:1;stroke-dasharray:none"
   d="m 408.417,616.917 0,-2.917" /><path
   id="path140"
   style="fill:none;stroke:#000000;stroke-width:0.5;stroke-linecap:butt;stroke-linejoin:round;stroke-miterlimit:10;stroke-opacity:1;stroke-dasharray:none"
   d="m 417.333,192.417 0,3" /><path
   id="path142"
   style="fill:none;stroke:#000000;stroke-width:0.5;stroke-linecap:butt;stroke-linejoin:round;stroke-miterlimit:10;stroke-opacity:1;stroke-dasharray:none"
   d="m 417.333,616.917 0,-2.917" /><path
   id="path144"
   style="fill:none;stroke:#000000;stroke-width:0.5;stroke-linecap:butt;stroke-linejoin:round;stroke-miterlimit:10;stroke-opacity:1;stroke-dasharray:none"
   d="m 417.333,192.417 0,5.916" /><path
   id="path146"
   style="fill:none;stroke:#000000;stroke-width:0.5;stroke-linecap:butt;stroke-linejoin:round;stroke-miterlimit:10;stroke-opacity:1;stroke-dasharray:none"
   d="m 417.333,616.917 0,-5.834" /><g
   id="g148"><text
   id="text150"
   transform="matrix(1,0,0,-1,410,177.25)"><tspan
     id="tspan152"
     sodipodi:role="line"
     y="0"
     x="0 5.5599999"
     style="font-size:10px;font-variant:normal;font-weight:normal;writing-mode:lr-tb;fill:#000000;fill-opacity:1;fill-rule:nonzero;stroke:none;font-family:Helvetica;-inkscape-font-specification:Helvetica">10</tspan></text>


<text
   id="text154"
   transform="matrix(1,0,0,-1,421.0832,183.4168)"><tspan
     id="tspan156"
     y="0"
     x="0"
     style="font-size:6.66666985px;font-variant:normal;font-weight:normal;writing-mode:lr-tb;fill:#000000;fill-opacity:1;fill-rule:nonzero;stroke:none;font-family:Helvetica;-inkscape-font-specification:Helvetica">2</tspan></text>


</g><path
   id="path158"
   style="fill:none;stroke:#000000;stroke-width:0.5;stroke-linecap:butt;stroke-linejoin:round;stroke-miterlimit:10;stroke-opacity:1;stroke-dasharray:none"
   d="m 476.167,192.417 0,3" /><path
   id="path160"
   style="fill:none;stroke:#000000;stroke-width:0.5;stroke-linecap:butt;stroke-linejoin:round;stroke-miterlimit:10;stroke-opacity:1;stroke-dasharray:none"
   d="m 476.167,616.917 0,-2.917" /><path
   id="path162"
   style="fill:none;stroke:#000000;stroke-width:0.5;stroke-linecap:butt;stroke-linejoin:round;stroke-miterlimit:10;stroke-opacity:1;stroke-dasharray:none"
   d="m 510.583,192.417 0,3" /><path
   id="path164"
   style="fill:none;stroke:#000000;stroke-width:0.5;stroke-linecap:butt;stroke-linejoin:round;stroke-miterlimit:10;stroke-opacity:1;stroke-dasharray:none"
   d="m 510.583,616.917 0,-2.917" /><path
   id="path166"
   style="fill:none;stroke:#000000;stroke-width:0.5;stroke-linecap:butt;stroke-linejoin:round;stroke-miterlimit:10;stroke-opacity:1;stroke-dasharray:none"
   d="m 535,192.417 0,3" /><path
   id="path168"
   style="fill:none;stroke:#000000;stroke-width:0.5;stroke-linecap:butt;stroke-linejoin:round;stroke-miterlimit:10;stroke-opacity:1;stroke-dasharray:none"
   d="M 535,616.917 535,614" /><path
   id="path170"
   style="fill:none;stroke:#000000;stroke-width:0.5;stroke-linecap:butt;stroke-linejoin:round;stroke-miterlimit:10;stroke-opacity:1;stroke-dasharray:none"
   d="m 553.917,192.417 0,3" /><path
   id="path172"
   style="fill:none;stroke:#000000;stroke-width:0.5;stroke-linecap:butt;stroke-linejoin:round;stroke-miterlimit:10;stroke-opacity:1;stroke-dasharray:none"
   d="m 553.917,616.917 0,-2.917" /><path
   id="path174"
   style="fill:none;stroke:#000000;stroke-width:0.5;stroke-linecap:butt;stroke-linejoin:round;stroke-miterlimit:10;stroke-opacity:1;stroke-dasharray:none"
   d="m 569.417,192.417 0,3" /><path
   id="path176"
   style="fill:none;stroke:#000000;stroke-width:0.5;stroke-linecap:butt;stroke-linejoin:round;stroke-miterlimit:10;stroke-opacity:1;stroke-dasharray:none"
   d="m 569.417,616.917 0,-2.917" /><path
   id="path178"
   style="fill:none;stroke:#000000;stroke-width:0.5;stroke-linecap:butt;stroke-linejoin:round;stroke-miterlimit:10;stroke-opacity:1;stroke-dasharray:none"
   d="m 582.5,192.417 0,3" /><path
   id="path180"
   style="fill:none;stroke:#000000;stroke-width:0.5;stroke-linecap:butt;stroke-linejoin:round;stroke-miterlimit:10;stroke-opacity:1;stroke-dasharray:none"
   d="m 582.5,616.917 0,-2.917" /><path
   id="path182"
   style="fill:none;stroke:#000000;stroke-width:0.5;stroke-linecap:butt;stroke-linejoin:round;stroke-miterlimit:10;stroke-opacity:1;stroke-dasharray:none"
   d="m 593.833,192.417 0,3" /><path
   id="path184"
   style="fill:none;stroke:#000000;stroke-width:0.5;stroke-linecap:butt;stroke-linejoin:round;stroke-miterlimit:10;stroke-opacity:1;stroke-dasharray:none"
   d="m 593.833,616.917 0,-2.917" /><path
   id="path186"
   style="fill:none;stroke:#000000;stroke-width:0.5;stroke-linecap:butt;stroke-linejoin:round;stroke-miterlimit:10;stroke-opacity:1;stroke-dasharray:none"
   d="m 603.833,192.417 0,3" /><path
   id="path188"
   style="fill:none;stroke:#000000;stroke-width:0.5;stroke-linecap:butt;stroke-linejoin:round;stroke-miterlimit:10;stroke-opacity:1;stroke-dasharray:none"
   d="m 603.833,616.917 0,-2.917" /><g
   id="g190"><text
   id="text192"
   transform="matrix(1,0,0,-1,605.5,177.25)"><tspan
     id="tspan194"
     sodipodi:role="line"
     y="0"
     x="0 5.5599999"
     style="font-size:10px;font-variant:normal;font-weight:normal;writing-mode:lr-tb;fill:#000000;fill-opacity:1;fill-rule:nonzero;stroke:none;font-family:Helvetica;-inkscape-font-specification:Helvetica">10</tspan></text>


</g><path
   id="path196"
   style="fill:none;stroke:#000000;stroke-width:0.5;stroke-linecap:butt;stroke-linejoin:round;stroke-miterlimit:10;stroke-opacity:1;stroke-dasharray:none"
   d="m 26.4168,192.417 5.8332,0" /><path
   id="path198"
   style="fill:none;stroke:#000000;stroke-width:0.5;stroke-linecap:butt;stroke-linejoin:round;stroke-miterlimit:10;stroke-opacity:1;stroke-dasharray:none"
   d="m 612.833,192.417 -5.916,0" /><g
   id="g200"><text
   id="text202"
   transform="matrix(1,0,0,-1,18,188.75)"><tspan
     id="tspan204"
     y="0"
     x="0"
     style="font-size:10px;font-variant:normal;font-weight:normal;writing-mode:lr-tb;fill:#000000;fill-opacity:1;fill-rule:nonzero;stroke:none;font-family:Helvetica;-inkscape-font-specification:Helvetica">0</tspan></text>


</g><path
   id="path206"
   style="fill:none;stroke:#000000;stroke-width:0.5;stroke-linecap:butt;stroke-linejoin:round;stroke-miterlimit:10;stroke-opacity:1;stroke-dasharray:none"
   d="m 26.4168,234.917 5.8332,0" /><path
   id="path208"
   style="fill:none;stroke:#000000;stroke-width:0.5;stroke-linecap:butt;stroke-linejoin:round;stroke-miterlimit:10;stroke-opacity:1;stroke-dasharray:none"
   d="m 612.833,234.917 -5.916,0" /><g
   id="g210"><text
   id="text212"
   transform="matrix(1,0,0,-1,9.6668,231.25)"><tspan
     id="tspan214"
     sodipodi:role="line"
     y="0"
     x="0 5.5599999 8.3400002"
     style="font-size:10px;font-variant:normal;font-weight:normal;writing-mode:lr-tb;fill:#000000;fill-opacity:1;fill-rule:nonzero;stroke:none;font-family:Helvetica;-inkscape-font-specification:Helvetica">0.2</tspan></text>


</g><path
   id="path216"
   style="fill:none;stroke:#000000;stroke-width:0.5;stroke-linecap:butt;stroke-linejoin:round;stroke-miterlimit:10;stroke-opacity:1;stroke-dasharray:none"
   d="m 26.4168,277.333 5.8332,0" /><path
   id="path218"
   style="fill:none;stroke:#000000;stroke-width:0.5;stroke-linecap:butt;stroke-linejoin:round;stroke-miterlimit:10;stroke-opacity:1;stroke-dasharray:none"
   d="m 612.833,277.333 -5.916,0" /><g
   id="g220"><text
   id="text222"
   transform="matrix(1,0,0,-1,9.6668,273.667)"><tspan
     id="tspan224"
     sodipodi:role="line"
     y="0"
     x="0 5.5599999 8.3400002"
     style="font-size:10px;font-variant:normal;font-weight:normal;writing-mode:lr-tb;fill:#000000;fill-opacity:1;fill-rule:nonzero;stroke:none;font-family:Helvetica;-inkscape-font-specification:Helvetica">0.4</tspan></text>


</g><path
   id="path226"
   style="fill:none;stroke:#000000;stroke-width:0.5;stroke-linecap:butt;stroke-linejoin:round;stroke-miterlimit:10;stroke-opacity:1;stroke-dasharray:none"
   d="m 26.4168,319.833 5.8332,0" /><path
   id="path228"
   style="fill:none;stroke:#000000;stroke-width:0.5;stroke-linecap:butt;stroke-linejoin:round;stroke-miterlimit:10;stroke-opacity:1;stroke-dasharray:none"
   d="m 612.833,319.833 -5.916,0" /><g
   id="g230"><text
   id="text232"
   transform="matrix(1,0,0,-1,9.6668,316.167)"><tspan
     id="tspan234"
     sodipodi:role="line"
     y="0"
     x="0 5.5599999 8.3400002"
     style="font-size:10px;font-variant:normal;font-weight:normal;writing-mode:lr-tb;fill:#000000;fill-opacity:1;fill-rule:nonzero;stroke:none;font-family:Helvetica;-inkscape-font-specification:Helvetica">0.6</tspan></text>


</g><path
   id="path236"
   style="fill:none;stroke:#000000;stroke-width:0.5;stroke-linecap:butt;stroke-linejoin:round;stroke-miterlimit:10;stroke-opacity:1;stroke-dasharray:none"
   d="m 26.4168,362.25 5.8332,0" /><path
   id="path238"
   style="fill:none;stroke:#000000;stroke-width:0.5;stroke-linecap:butt;stroke-linejoin:round;stroke-miterlimit:10;stroke-opacity:1;stroke-dasharray:none"
   d="m 612.833,362.25 -5.916,0" /><g
   id="g240"><text
   id="text242"
   transform="matrix(1,0,0,-1,9.6668,358.583)"><tspan
     id="tspan244"
     sodipodi:role="line"
     y="0"
     x="0 5.5599999 8.3400002"
     style="font-size:10px;font-variant:normal;font-weight:normal;writing-mode:lr-tb;fill:#000000;fill-opacity:1;fill-rule:nonzero;stroke:none;font-family:Helvetica;-inkscape-font-specification:Helvetica">0.8</tspan></text>


</g><path
   id="path246"
   style="fill:none;stroke:#000000;stroke-width:0.5;stroke-linecap:butt;stroke-linejoin:round;stroke-miterlimit:10;stroke-opacity:1;stroke-dasharray:none"
   d="m 26.4168,404.667 5.8332,0" /><path
   id="path248"
   style="fill:none;stroke:#000000;stroke-width:0.5;stroke-linecap:butt;stroke-linejoin:round;stroke-miterlimit:10;stroke-opacity:1;stroke-dasharray:none"
   d="m 612.833,404.667 -5.916,0" /><g
   id="g250"><text
   id="text252"
   transform="matrix(1,0,0,-1,18,401)"><tspan
     id="tspan254"
     y="0"
     x="0"
     style="font-size:10px;font-variant:normal;font-weight:normal;writing-mode:lr-tb;fill:#000000;fill-opacity:1;fill-rule:nonzero;stroke:none;font-family:Helvetica;-inkscape-font-specification:Helvetica">1</tspan></text>


</g><path
   id="path256"
   style="fill:none;stroke:#000000;stroke-width:0.5;stroke-linecap:butt;stroke-linejoin:round;stroke-miterlimit:10;stroke-opacity:1;stroke-dasharray:none"
   d="m 26.4168,447.167 5.8332,0" /><path
   id="path258"
   style="fill:none;stroke:#000000;stroke-width:0.5;stroke-linecap:butt;stroke-linejoin:round;stroke-miterlimit:10;stroke-opacity:1;stroke-dasharray:none"
   d="m 612.833,447.167 -5.916,0" /><g
   id="g260"><text
   id="text262"
   transform="matrix(1,0,0,-1,9.6668,443.5)"><tspan
     id="tspan264"
     sodipodi:role="line"
     y="0"
     x="0 5.5599999 8.3400002"
     style="font-size:10px;font-variant:normal;font-weight:normal;writing-mode:lr-tb;fill:#000000;fill-opacity:1;fill-rule:nonzero;stroke:none;font-family:Helvetica;-inkscape-font-specification:Helvetica">1.2</tspan></text>


</g><path
   id="path266"
   style="fill:none;stroke:#000000;stroke-width:0.5;stroke-linecap:butt;stroke-linejoin:round;stroke-miterlimit:10;stroke-opacity:1;stroke-dasharray:none"
   d="m 26.4168,489.583 5.8332,0" /><path
   id="path268"
   style="fill:none;stroke:#000000;stroke-width:0.5;stroke-linecap:butt;stroke-linejoin:round;stroke-miterlimit:10;stroke-opacity:1;stroke-dasharray:none"
   d="m 612.833,489.583 -5.916,0" /><g
   id="g270"><text
   id="text272"
   transform="matrix(1,0,0,-1,9.6668,485.917)"><tspan
     id="tspan274"
     sodipodi:role="line"
     y="0"
     x="0 5.5599999 8.3400002"
     style="font-size:10px;font-variant:normal;font-weight:normal;writing-mode:lr-tb;fill:#000000;fill-opacity:1;fill-rule:nonzero;stroke:none;font-family:Helvetica;-inkscape-font-specification:Helvetica">1.4</tspan></text>


</g><path
   id="path276"
   style="fill:none;stroke:#000000;stroke-width:0.5;stroke-linecap:butt;stroke-linejoin:round;stroke-miterlimit:10;stroke-opacity:1;stroke-dasharray:none"
   d="m 26.4168,532.083 5.8332,0" /><path
   id="path278"
   style="fill:none;stroke:#000000;stroke-width:0.5;stroke-linecap:butt;stroke-linejoin:round;stroke-miterlimit:10;stroke-opacity:1;stroke-dasharray:none"
   d="m 612.833,532.083 -5.916,0" /><g
   id="g280"><text
   id="text282"
   transform="matrix(1,0,0,-1,9.6668,528.417)"><tspan
     id="tspan284"
     sodipodi:role="line"
     y="0"
     x="0 5.5599999 8.3400002"
     style="font-size:10px;font-variant:normal;font-weight:normal;writing-mode:lr-tb;fill:#000000;fill-opacity:1;fill-rule:nonzero;stroke:none;font-family:Helvetica;-inkscape-font-specification:Helvetica">1.6</tspan></text>


</g><path
   id="path286"
   style="fill:none;stroke:#000000;stroke-width:0.5;stroke-linecap:butt;stroke-linejoin:round;stroke-miterlimit:10;stroke-opacity:1;stroke-dasharray:none"
   d="m 26.4168,574.5 5.8332,0" /><path
   id="path288"
   style="fill:none;stroke:#000000;stroke-width:0.5;stroke-linecap:butt;stroke-linejoin:round;stroke-miterlimit:10;stroke-opacity:1;stroke-dasharray:none"
   d="m 612.833,574.5 -5.916,0" /><g
   id="g290"><text
   id="text292"
   transform="matrix(1,0,0,-1,9.6668,570.833)"><tspan
     id="tspan294"
     sodipodi:role="line"
     y="0"
     x="0 5.5599999 8.3400002"
     style="font-size:10px;font-variant:normal;font-weight:normal;writing-mode:lr-tb;fill:#000000;fill-opacity:1;fill-rule:nonzero;stroke:none;font-family:Helvetica;-inkscape-font-specification:Helvetica">1.8</tspan></text>


</g><path
   id="path296"
   style="fill:none;stroke:#000000;stroke-width:0.5;stroke-linecap:butt;stroke-linejoin:round;stroke-miterlimit:10;stroke-opacity:1;stroke-dasharray:none"
   d="m 26.4168,616.917 5.8332,0" /><path
   id="path298"
   style="fill:none;stroke:#000000;stroke-width:0.5;stroke-linecap:butt;stroke-linejoin:round;stroke-miterlimit:10;stroke-opacity:1;stroke-dasharray:none"
   d="m 612.833,616.917 -5.916,0" /><g
   id="g300"><text
   id="text302"
   transform="matrix(1,0,0,-1,18,613.25)"><tspan
     id="tspan304"
     y="0"
     x="0"
     style="font-size:10px;font-variant:normal;font-weight:normal;writing-mode:lr-tb;fill:#000000;fill-opacity:1;fill-rule:nonzero;stroke:none;font-family:Helvetica;-inkscape-font-specification:Helvetica">2</tspan></text>


</g><path
   id="path306"
   style="fill:none;stroke:#000000;stroke-width:0.5;stroke-linecap:butt;stroke-linejoin:round;stroke-miterlimit:10;stroke-opacity:1;stroke-dasharray:none"
   d="m 26.4168,192.417 586.4162,0" /><path
   id="path308"
   style="fill:none;stroke:#000000;stroke-width:0.5;stroke-linecap:butt;stroke-linejoin:round;stroke-miterlimit:10;stroke-opacity:1;stroke-dasharray:none"
   d="m 26.4168,616.917 586.4162,0" /><path
   id="path310"
   style="fill:none;stroke:#000000;stroke-width:0.5;stroke-linecap:butt;stroke-linejoin:round;stroke-miterlimit:10;stroke-opacity:1;stroke-dasharray:none"
   d="m 26.4168,192.417 0,424.5" /><g
   id="g312"
   transform="scale(0.1,0.1)"><g
     clip-path="url(#clipPath316)"
     id="g314"><path
       id="path320"
       style="fill:none;stroke:#000000;stroke-width:5;stroke-linecap:butt;stroke-linejoin:round;stroke-miterlimit:10;stroke-opacity:1;stroke-dasharray:none"
       d="m 489.168,1924.17 c 0,-16.57 -13.434,-30 -30,-30 -16.566,0 -30,13.43 -30,30 0,16.56 13.434,30 30,30 16.566,0 30,-13.44 30,-30" /><path
       id="path322"
       style="fill:none;stroke:#000000;stroke-width:5;stroke-linecap:butt;stroke-linejoin:round;stroke-miterlimit:10;stroke-opacity:1;stroke-dasharray:none"
       d="m 615,2144.17 c 0,-16.57 -13.434,-30 -30,-30 -16.566,0 -30,13.43 -30,30 0,16.56 13.434,30 30,30 16.566,0 30,-13.44 30,-30" /><path
       id="path324"
       style="fill:none;stroke:#000000;stroke-width:5;stroke-linecap:butt;stroke-linejoin:round;stroke-miterlimit:10;stroke-opacity:1;stroke-dasharray:none"
       d="m 740.832,2335.83 c 0,-16.56 -13.434,-30 -30,-30 -16.566,0 -30,13.44 -30,30 0,16.57 13.434,30 30,30 16.566,0 30,-13.43 30,-30" /><path
       id="path326"
       style="fill:none;stroke:#000000;stroke-width:5;stroke-linecap:butt;stroke-linejoin:round;stroke-miterlimit:10;stroke-opacity:1;stroke-dasharray:none"
       d="m 865.832,2510.83 c 0,-16.56 -13.434,-30 -30,-30 -16.566,0 -30,13.44 -30,30 0,16.57 13.434,30 30,30 16.566,0 30,-13.43 30,-30" /><path
       id="path328"
       style="fill:none;stroke:#000000;stroke-width:5;stroke-linecap:butt;stroke-linejoin:round;stroke-miterlimit:10;stroke-opacity:1;stroke-dasharray:none"
       d="m 991.668,2670.83 c 0,-16.56 -13.434,-30 -30,-30 -16.566,0 -30,13.44 -30,30 0,16.57 13.434,30 30,30 16.566,0 30,-13.43 30,-30" /><path
       id="path330"
       style="fill:none;stroke:#000000;stroke-width:5;stroke-linecap:butt;stroke-linejoin:round;stroke-miterlimit:10;stroke-opacity:1;stroke-dasharray:none"
       d="m 1117.5,2820 c 0,-16.57 -13.43,-30 -30,-30 -16.57,0 -30,13.43 -30,30 0,16.57 13.43,30 30,30 16.57,0 30,-13.43 30,-30" /><path
       id="path332"
       style="fill:none;stroke:#000000;stroke-width:5;stroke-linecap:butt;stroke-linejoin:round;stroke-miterlimit:10;stroke-opacity:1;stroke-dasharray:none"
       d="m 1243.33,2957.5 c 0,-16.57 -13.43,-30 -30,-30 -16.56,0 -30,13.43 -30,30 0,16.57 13.44,30 30,30 16.57,0 30,-13.43 30,-30" /><path
       id="path334"
       style="fill:none;stroke:#000000;stroke-width:5;stroke-linecap:butt;stroke-linejoin:round;stroke-miterlimit:10;stroke-opacity:1;stroke-dasharray:none"
       d="m 1369.17,3090 c 0,-16.57 -13.44,-30 -30,-30 -16.57,0 -30,13.43 -30,30 0,16.57 13.43,30 30,30 16.56,0 30,-13.43 30,-30" /><path
       id="path336"
       style="fill:none;stroke:#000000;stroke-width:5;stroke-linecap:butt;stroke-linejoin:round;stroke-miterlimit:10;stroke-opacity:1;stroke-dasharray:none"
       d="m 1494.17,3216.67 c 0,-16.57 -13.44,-30 -30,-30 -16.57,0 -30,13.43 -30,30 0,16.56 13.43,30 30,30 16.56,0 30,-13.44 30,-30" /><path
       id="path338"
       style="fill:none;stroke:#000000;stroke-width:5;stroke-linecap:butt;stroke-linejoin:round;stroke-miterlimit:10;stroke-opacity:1;stroke-dasharray:none"
       d="m 1620,3334.17 c 0,-16.57 -13.43,-30 -30,-30 -16.57,0 -30,13.43 -30,30 0,16.56 13.43,30 30,30 16.57,0 30,-13.44 30,-30" /><path
       id="path340"
       style="fill:none;stroke:#000000;stroke-width:5;stroke-linecap:butt;stroke-linejoin:round;stroke-miterlimit:10;stroke-opacity:1;stroke-dasharray:none"
       d="m 1745.83,3445.83 c 0,-16.56 -13.43,-30 -30,-30 -16.56,0 -30,13.44 -30,30 0,16.57 13.44,30 30,30 16.57,0 30,-13.43 30,-30" /><path
       id="path342"
       style="fill:none;stroke:#000000;stroke-width:5;stroke-linecap:butt;stroke-linejoin:round;stroke-miterlimit:10;stroke-opacity:1;stroke-dasharray:none"
       d="m 1871.67,3550.83 c 0,-16.56 -13.44,-30 -30,-30 -16.57,0 -30,13.44 -30,30 0,16.57 13.43,30 30,30 16.56,0 30,-13.43 30,-30" /><path
       id="path344"
       style="fill:none;stroke:#000000;stroke-width:5;stroke-linecap:butt;stroke-linejoin:round;stroke-miterlimit:10;stroke-opacity:1;stroke-dasharray:none"
       d="m 1997.5,3648.33 c 0,-16.56 -13.43,-30 -30,-30 -16.57,0 -30,13.44 -30,30 0,16.57 13.43,30 30,30 16.57,0 30,-13.43 30,-30" /><path
       id="path346"
       style="fill:none;stroke:#000000;stroke-width:5;stroke-linecap:butt;stroke-linejoin:round;stroke-miterlimit:10;stroke-opacity:1;stroke-dasharray:none"
       d="m 2122.5,3739.17 c 0,-16.57 -13.43,-30 -30,-30 -16.57,0 -30,13.43 -30,30 0,16.56 13.43,30 30,30 16.57,0 30,-13.44 30,-30" /><path
       id="path348"
       style="fill:none;stroke:#000000;stroke-width:5;stroke-linecap:butt;stroke-linejoin:round;stroke-miterlimit:10;stroke-opacity:1;stroke-dasharray:none"
       d="m 2248.33,3825 c 0,-16.57 -13.43,-30 -30,-30 -16.56,0 -30,13.43 -30,30 0,16.57 13.44,30 30,30 16.57,0 30,-13.43 30,-30" /><path
       id="path350"
       style="fill:none;stroke:#000000;stroke-width:5;stroke-linecap:butt;stroke-linejoin:round;stroke-miterlimit:10;stroke-opacity:1;stroke-dasharray:none"
       d="m 2527.5,4004.17 c 0,-16.57 -13.43,-30 -30,-30 -16.57,0 -30,13.43 -30,30 0,16.56 13.43,30 30,30 16.57,0 30,-13.44 30,-30" /><path
       id="path352"
       style="fill:none;stroke:#000000;stroke-width:5;stroke-linecap:butt;stroke-linejoin:round;stroke-miterlimit:10;stroke-opacity:1;stroke-dasharray:none"
       d="m 2806.67,4178.34 c 0,-16.57 -13.44,-30.01 -30,-30.01 -16.57,0 -30,13.44 -30,30.01 0,16.56 13.43,30 30,30 16.56,0 30,-13.44 30,-30" /><path
       id="path354"
       style="fill:none;stroke:#000000;stroke-width:5;stroke-linecap:butt;stroke-linejoin:round;stroke-miterlimit:10;stroke-opacity:1;stroke-dasharray:none"
       d="m 3085.83,4339.17 c 0,-16.57 -13.43,-30 -30,-30 -16.56,0 -30,13.43 -30,30 0,16.56 13.44,30 30,30 16.57,0 30,-13.44 30,-30" /><path
       id="path356"
       style="fill:none;stroke:#000000;stroke-width:5;stroke-linecap:butt;stroke-linejoin:round;stroke-miterlimit:10;stroke-opacity:1;stroke-dasharray:none"
       d="m 3365.83,4490 c 0,-16.57 -13.43,-30 -30,-30 -16.56,0 -30,13.43 -30,30 0,16.57 13.44,30 30,30 16.57,0 30,-13.43 30,-30" /><path
       id="path358"
       style="fill:none;stroke:#000000;stroke-width:5;stroke-linecap:butt;stroke-linejoin:round;stroke-miterlimit:10;stroke-opacity:1;stroke-dasharray:none"
       d="m 3645,4635 c 0,-16.57 -13.43,-30 -30,-30 -16.57,0 -30,13.43 -30,30 0,16.57 13.43,30 30,30 16.57,0 30,-13.43 30,-30" /><path
       id="path360"
       style="fill:none;stroke:#000000;stroke-width:5;stroke-linecap:butt;stroke-linejoin:round;stroke-miterlimit:10;stroke-opacity:1;stroke-dasharray:none"
       d="m 3924.17,4775.84 c 0,-16.57 -13.44,-30.01 -30,-30.01 -16.57,0 -30,13.44 -30,30.01 0,16.56 13.43,30 30,30 16.56,0 30,-13.44 30,-30" /><path
       id="path362"
       style="fill:none;stroke:#000000;stroke-width:5;stroke-linecap:butt;stroke-linejoin:round;stroke-miterlimit:10;stroke-opacity:1;stroke-dasharray:none"
       d="m 4203.33,4921.67 c 0,-16.57 -13.43,-30 -30,-30 -16.56,0 -30,13.43 -30,30 0,16.56 13.44,30 30,30 16.57,0 30,-13.44 30,-30" /><path
       id="path364"
       style="fill:none;stroke:#000000;stroke-width:5;stroke-linecap:butt;stroke-linejoin:round;stroke-miterlimit:10;stroke-opacity:1;stroke-dasharray:none"
       d="m 4482.5,5065.84 c 0,-16.57 -13.43,-30.01 -30,-30.01 -16.57,0 -30,13.44 -30,30.01 0,16.56 13.43,30 30,30 16.57,0 30,-13.44 30,-30" /><path
       id="path366"
       style="fill:none;stroke:#000000;stroke-width:5;stroke-linecap:butt;stroke-linejoin:round;stroke-miterlimit:10;stroke-opacity:1;stroke-dasharray:none"
       d="m 4761.67,5200 c 0,-16.57 -13.44,-30 -30,-30 -16.57,0 -30,13.43 -30,30 0,16.57 13.43,30 30,30 16.56,0 30,-13.43 30,-30" /><path
       id="path368"
       style="fill:none;stroke:#000000;stroke-width:5;stroke-linecap:butt;stroke-linejoin:round;stroke-miterlimit:10;stroke-opacity:1;stroke-dasharray:none"
       d="m 5040.83,5330.84 c 0,-16.57 -13.43,-30.01 -30,-30.01 -16.56,0 -30,13.44 -30,30.01 0,16.56 13.44,30 30,30 16.57,0 30,-13.44 30,-30" /><path
       id="path370"
       style="fill:none;stroke:#000000;stroke-width:5;stroke-linecap:butt;stroke-linejoin:round;stroke-miterlimit:10;stroke-opacity:1;stroke-dasharray:none"
       d="m 5320,5456.67 c 0,-16.57 -13.43,-30 -30,-30 -16.57,0 -30,13.43 -30,30 0,16.56 13.43,30 30,30 16.57,0 30,-13.44 30,-30" /><path
       id="path372"
       style="fill:none;stroke:#000000;stroke-width:5;stroke-linecap:butt;stroke-linejoin:round;stroke-miterlimit:10;stroke-opacity:1;stroke-dasharray:none"
       d="m 5599.17,5580 c 0,-16.57 -13.44,-30 -30,-30 -16.57,0 -30,13.43 -30,30 0,16.57 13.43,30 30,30 16.56,0 30,-13.43 30,-30" /><path
       id="path374"
       style="fill:none;stroke:#000000;stroke-width:5;stroke-linecap:butt;stroke-linejoin:round;stroke-miterlimit:10;stroke-opacity:1;stroke-dasharray:none"
       d="m 5878.33,5700.84 c 0,-16.57 -13.43,-30.01 -30,-30.01 -16.56,0 -30,13.44 -30,30.01 0,16.56 13.44,30 30,30 16.57,0 30,-13.44 30,-30" /><path
       id="path376"
       style="fill:none;stroke:#000000;stroke-width:5;stroke-linecap:butt;stroke-linejoin:round;stroke-miterlimit:10;stroke-opacity:1;stroke-dasharray:none"
       d="m 6158.33,5810 c 0,-16.57 -13.43,-30 -30,-30 -16.56,0 -30,13.43 -30,30 0,16.57 13.44,30 30,30 16.57,0 30,-13.43 30,-30" /></g></g><path
   style="fill:none;stroke:#800000;stroke-width:0.76278621px;stroke-linecap:butt;stroke-linejoin:miter;stroke-opacity:1"
   d="m 184.13817,351.972 0,-20.59231 427.91858,0"
   id="path3188" /><path
   style="fill:none;stroke:#800000;stroke-width:0.74419707px;stroke-linecap:butt;stroke-linejoin:miter;stroke-opacity:1"
   d="m 158.74964,330.16773 0,-23.96682 453.73589,0"
   id="path3190" /><path
   style="fill:none;stroke:#800000;stroke-width:0.74648517px;stroke-linecap:butt;stroke-linejoin:miter;stroke-opacity:1"
   d="m 133.37155,305.62633 0,-26.27173 478.69335,0"
   id="path3192" /><path
   style="fill:none;stroke:#800000;stroke-width:0.7998358px;stroke-linecap:butt;stroke-linejoin:miter;stroke-opacity:1"
   d="m 108.64822,278.96194 0,-27.6866 503.18025,0"
   id="path3194" /><path
   style="fill:none;stroke:#800000;stroke-width:0.79952538px;stroke-linecap:butt;stroke-linejoin:miter;stroke-opacity:1"
   d="m 83.391695,247.98073 0,-21.60386 525.417685,0 3.42548,0 0,351.74609"
   id="path3196"
   sodipodi:nodetypes="ccccc" /><path
   style="fill:none;stroke:#5aa02c;stroke-width:0.72463435px;stroke-linecap:butt;stroke-linejoin:miter;stroke-opacity:1"
   d="m 208.8691,370.65866 0,-15.80651 403.36403,0 0,223.15462"
   id="path3186" /><text
   xml:space="preserve"
   style="font-size:28.79999924px;font-style:normal;font-weight:normal;fill:#800000;fill-opacity:1;stroke:none;font-family:DejaVu Serif;-inkscape-font-specification:DejaVu Serif"
   x="96.902542"
   y="-229.46185"
   id="text3204"
   transform="scale(1,-1)"><tspan
     sodipodi:role="line"
     id="tspan3206"
     x="96.902542"
     y="-229.46185"
     style="font-size:19.20000076px;fill:#800000">0.99481: NO</tspan></text>


<text
   xml:space="preserve"
   style="font-size:28.79999924px;font-style:normal;font-weight:normal;fill:#800000;fill-opacity:1;stroke:none;font-family:DejaVu Serif;-inkscape-font-specification:DejaVu Serif"
   x="125.33358"
   y="-253.93468"
   id="text3204-2"
   transform="scale(1,-1)"><tspan
     sodipodi:role="line"
     id="tspan3206-2"
     x="125.33358"
     y="-253.93468"
     style="font-size:19.20000076px;fill:#800000">0.99641: NO</tspan></text>


<text
   xml:space="preserve"
   style="font-size:28.79999924px;font-style:normal;font-weight:normal;fill:#800000;fill-opacity:1;stroke:none;font-family:DejaVu Serif;-inkscape-font-specification:DejaVu Serif"
   x="149.04248"
   y="-281.62109"
   id="text3204-2-8"
   transform="scale(1,-1)"><tspan
     sodipodi:role="line"
     id="tspan3206-2-1"
     x="149.04248"
     y="-281.62109"
     style="font-size:19.20000076px;fill:#800000">0.99758: NO</tspan></text>


<text
   xml:space="preserve"
   style="font-size:28.79999924px;font-style:normal;font-weight:normal;fill:#800000;fill-opacity:1;stroke:none;font-family:DejaVu Serif;-inkscape-font-specification:DejaVu Serif"
   x="172.95349"
   y="-308.88806"
   id="text3204-2-1"
   transform="scale(1,-1)"><tspan
     sodipodi:role="line"
     id="tspan3206-2-5"
     x="172.95349"
     y="-308.88806"
     style="font-size:19.20000076px;fill:#800000">0.99838: NO</tspan></text>


<text
   xml:space="preserve"
   style="font-size:28.79999924px;font-style:normal;font-weight:normal;fill:#800000;fill-opacity:1;stroke:none;font-family:DejaVu Serif;-inkscape-font-specification:DejaVu Serif"
   x="196.02553"
   y="-333.63806"
   id="text3204-2-4"
   transform="scale(1,-1)"><tspan
     sodipodi:role="line"
     id="tspan3206-2-11"
     x="196.02553"
     y="-333.63806"
     style="font-size:19.20000076px;fill:#800000">0.99884: NO</tspan></text>


<text
   xml:space="preserve"
   style="font-size:28.79999924px;font-style:normal;font-weight:normal;fill:#59a12c;fill-opacity:0.81568627;stroke:none;font-family:DejaVu Serif;-inkscape-font-specification:DejaVu Serif"
   x="221.61452"
   y="-357.12958"
   id="text3204-2-42"
   transform="scale(1,-1)"><tspan
     sodipodi:role="line"
     id="tspan3206-2-2"
     x="221.61452"
     y="-357.12958"
     style="font-size:19.20000076px;fill:#59a12c;fill-opacity:0.81568627">0.99906: YES</tspan></text>


<g
   id="g3318"
   transform="matrix(1.0257671,0,0,1.0413531,-12.151775,-20.857182)"><path
     id="path3312"
     d="M 209.74576,380.8983 612.45762,585.61017"
     style="fill:none;stroke:#44aa00;stroke-width:0.80000001px;stroke-linecap:butt;stroke-linejoin:miter;stroke-opacity:1" /><path
     transform="matrix(0.8,0,0,-0.8,0,792)"
     id="path3314"
     d="m 259.03602,506.40492 7.07892,14.02675"
     style="fill:none;stroke:#59b31c;stroke-width:1px;stroke-linecap:butt;stroke-linejoin:miter;stroke-opacity:1" /><path
     id="path3316"
     d="m 609.27765,592.50449 6.15021,-13.99839"
     style="fill:none;stroke:#44aa00;stroke-width:0.80000001px;stroke-linecap:butt;stroke-linejoin:miter;stroke-opacity:1" /></g></g><g
         transform="matrix(0.89149797,0,0,-0.89149797,114.84455,385.5156)"
         id="g4488"><g
           style="font-style:normal;font-variant:normal;font-weight:normal;font-stretch:normal;letter-spacing:normal;word-spacing:normal;text-anchor:start;fill:none;stroke:#000000;stroke-linecap:butt;stroke-linejoin:miter;stroke-miterlimit:10.43299961;stroke-opacity:1;stroke-dasharray:none;stroke-dashoffset:0"
           word-spacing="normal"
           letter-spacing="normal"
           font-size-adjust="none"
           font-stretch="normal"
           font-weight="normal"
           font-variant="normal"
           font-style="normal"
           fill-rule="even-odd"
           stroke-miterlimit="10.433"
           xml:space="preserve"
           transform="matrix(0.79164289,0,0,-0.79164289,-138.5375,571.35983)"
           id="content"><path
             style="fill:#000000;stroke-width:0"
             id="path4491"
             d="m 466.26,425.93 h 4.69 c 0.99,0 1.49,0 1.49,0.99 0,0.55 -0.5,0.55 -1.4,0.55 h -4.38 c 1.79,7.07 2.04,8.07 2.04,8.37 0,0.84 -0.59,1.34 -1.44,1.34 -0.15,0 -1.55,-0.05 -1.99,-1.79 l -1.95,-7.92 h -4.68 c -1,0 -1.5,0 -1.5,-0.95 0,-0.59 0.4,-0.59 1.4,-0.59 h 4.39 c -3.59,-14.15 -3.79,-15 -3.79,-15.89 0,-2.7 1.89,-4.59 4.58,-4.59 5.08,0 7.92,7.28 7.92,7.67 0,0.5 -0.4,0.5 -0.6,0.5 -0.45,0 -0.49,-0.15 -0.74,-0.69 -2.14,-5.19 -4.78,-6.38 -6.48,-6.38 -1.05,0 -1.54,0.65 -1.54,2.29 0,1.2 0.1,1.54 0.29,2.39 z" /></g></g><g
         transform="matrix(0.77901968,0,0,-0.77901968,-189.74283,588.97607)"
         id="g4921"><g
           style="font-style:normal;font-variant:normal;font-weight:normal;font-stretch:normal;letter-spacing:normal;word-spacing:normal;text-anchor:start;fill:none;stroke:#000000;stroke-linecap:butt;stroke-linejoin:miter;stroke-miterlimit:10.43299961;stroke-opacity:1;stroke-dasharray:none;stroke-dashoffset:0"
           id="g4923"
           transform="matrix(0.79164289,0,0,-0.79164289,-138.5375,571.35983)"
           xml:space="preserve"
           stroke-miterlimit="10.433"
           fill-rule="even-odd"
           font-style="normal"
           font-variant="normal"
           font-weight="normal"
           font-stretch="normal"
           font-size-adjust="none"
           letter-spacing="normal"
           word-spacing="normal"><path
             style="fill:#000000;stroke-width:0"
             d="m 477.27,436.24 0.03,0.13 0.03,0.12 0.03,0.11 0.03,0.11 0.03,0.11 0.03,0.09 0.03,0.1 0.03,0.08 0.03,0.09 0.03,0.07 0.03,0.08 0.03,0.06 0.03,0.07 0.03,0.06 0.03,0.05 0.03,0.06 0.03,0.04 0.03,0.05 0.04,0.04 0.03,0.04 0.04,0.03 0.03,0.04 0.04,0.03 0.04,0.02 0.04,0.03 0.05,0.02 0.04,0.02 0.05,0.02 0.05,0.02 0.05,0.02 0.05,0.01 0.05,0.02 c 0.45,0.1 2.1,0.1 3.14,0.1 5.04,0 7.28,-0.2 7.28,-4.09 0,-0.74 -0.2,-2.68 -0.4,-3.98 -0.05,-0.2 -0.15,-0.8 -0.15,-0.95 0,-0.3 0.15,-0.64 0.6,-0.64 0.55,0 0.64,0.39 0.74,1.14 l 1.35,8.67 c 0.05,0.2 0.1,0.7 0.1,0.85 0,0.54 -0.5,0.54 -1.35,0.54 h -27.64 c -1.2,0 -1.25,-0.05 -1.6,-0.99 l -2.98,-8.77 c -0.05,-0.1 -0.3,-0.8 -0.3,-0.9 0,-0.29 0.25,-0.54 0.59,-0.54 0.5,0 0.55,0.25 0.85,1.04 2.69,7.72 3.98,8.62 11.36,8.62 h 1.94 c 1.4,0 1.4,-0.2 1.4,-0.6 0,-0.3 -0.16,-0.9 -0.2,-1.04 l -6.68,-26.61 c -0.45,-1.84 -0.6,-2.39 -5.93,-2.39 -1.79,0 -2.09,0 -2.09,-0.94 0,-0.6 0.55,-0.6 0.85,-0.6 h 16.78 c 0.5,0 1.1,0 1.1,1 0,0.54 -0.4,0.54 -1.69,0.54 -1.25,0 -1.89,0 -3.19,0.1 -1.45,0.15 -1.84,0.3 -1.84,1.1 0,0.05 0,0.3 0.19,1.05 z"
             id="path4925" /></g></g></g></g></svg>